<?xml version="1.0" encoding="UTF-8"?>
<svg xmlns="http://www.w3.org/2000/svg" version="1.1" viewBox="0 0 885 450">
  <defs>
    <style>
      .cls-1, .cls-2 {
        fill: none;
        stroke: #f5f5f5;
      }

      .cls-3 {
        fill: #f5f5f5;
      }

      .cls-2 {
        stroke-width: 2px;
      }
    </style>
  </defs>
  <!-- Generator: Adobe Illustrator 28.7.6, SVG Export Plug-In . SVG Version: 1.2.0 Build 188)  -->
  <g>
    <g id="Livello_1">
      <path class="cls-3" d="M615,211.2c0-.3-.2-.6-.3-.8-.1-.3-.2-.5-.4-.7-.2-.2-.4-.4-.6-.5-.2-.1-.5-.2-.8-.2-.7,0-1.3.3-1.7,1-.4.7-.6,1.7-.6,3.1s.2,2.4.6,3.1c.4.7,1,1,1.7,1s1.1-.2,1.4-.5c.4-.4.6-.8.8-1.4l2,.6c-.1.4-.3.8-.6,1.2-.2.4-.5.7-.8,1.1-.3.3-.7.6-1.2.8-.4.2-1,.3-1.6.3s-1.3-.1-1.9-.4c-.5-.3-1-.7-1.4-1.2-.4-.5-.7-1.2-.9-1.9-.2-.7-.3-1.6-.3-2.5s.1-1.8.3-2.5c.2-.8.5-1.4.9-1.9.4-.5.8-.9,1.4-1.2.6-.3,1.2-.4,1.9-.4,1.1,0,1.9.3,2.6,1,.7.7,1.2,1.6,1.4,2.7l-2,.4ZM618.4,213.1c0-.9,0-1.7.3-2.5.2-.7.5-1.4.9-1.9.4-.5.8-.9,1.4-1.2.5-.3,1.2-.4,1.9-.4s1.3.1,1.9.4c.6.3,1,.7,1.4,1.2.4.5.7,1.2.9,1.9.2.7.3,1.6.3,2.5s-.1,1.7-.3,2.5c-.2.7-.5,1.4-.9,1.9-.4.5-.8.9-1.4,1.2-.5.3-1.2.4-1.9.4s-1.3-.1-1.9-.4c-.5-.3-1-.7-1.4-1.2-.4-.5-.7-1.2-.9-1.9-.2-.7-.3-1.6-.3-2.5ZM622.8,209c-.8,0-1.4.4-1.8,1.1-.4.7-.5,1.7-.5,3s.2,2.3.5,3c.4.7,1,1.1,1.8,1.1s1.4-.4,1.8-1.1c.4-.7.6-1.7.6-3s-.2-2.3-.6-3c-.4-.7-1-1.1-1.8-1.1ZM629.2,207.2h2.1v9.9h5.2v1.9h-7.3v-11.8ZM638.5,207.2h2.1v9.9h5.2v1.9h-7.3v-11.8ZM654.7,207.2v1.9h-5.3v2.9h4.5v1.8h-4.5v3.3h5.5v1.9h-7.5v-11.8h7.3ZM662.9,211.2c0-.3-.2-.6-.3-.8-.1-.3-.2-.5-.4-.7-.2-.2-.4-.4-.6-.5-.2-.1-.5-.2-.8-.2-.7,0-1.3.3-1.7,1-.4.7-.6,1.7-.6,3.1s.2,2.4.6,3.1c.4.7,1,1,1.7,1s1.1-.2,1.4-.5c.4-.4.6-.8.8-1.4l2,.6c-.1.4-.3.8-.6,1.2-.2.4-.5.7-.8,1.1-.3.3-.7.6-1.2.8-.4.2-1,.3-1.6.3s-1.3-.1-1.9-.4c-.5-.3-1-.7-1.4-1.2-.4-.5-.7-1.2-.9-1.9-.2-.7-.3-1.6-.3-2.5s.1-1.8.3-2.5c.2-.8.5-1.4.9-1.9.4-.5.8-.9,1.4-1.2.6-.3,1.2-.4,1.9-.4,1.1,0,1.9.3,2.6,1,.7.7,1.2,1.6,1.4,2.7l-2,.4ZM674.5,207.2v1.9h-3.3v9.9h-2.1v-9.9h-3.3v-1.9h8.6ZM683.1,217.2v1.8h-7.3v-1.8h2.6v-8.1h-2.6v-1.8h7.2v1.8h-2.6v8.1h2.6ZM686.8,207.2l2.3,9.4,2.2-9.4h2.2l-3.1,11.8h-2.7l-3.1-11.8h2.2ZM702.7,207.2v1.9h-5.3v2.9h4.5v1.8h-4.5v3.3h5.5v1.9h-7.5v-11.8h7.3ZM628.3,230.5c-.1-.4-.3-.7-.7-1-.3-.3-.8-.5-1.3-.5s-.5,0-.8.1c-.2,0-.4.2-.5.3-.1.1-.2.3-.3.4,0,.2,0,.3,0,.5,0,.3,0,.6.3.8.2.2.5.4,1,.6l1.7.5c.9.3,1.6.7,2.1,1.3.5.6.7,1.3.7,2.1s0,.9-.3,1.3c-.2.4-.4.8-.8,1.1-.3.3-.8.6-1.2.8-.5.2-1,.3-1.6.3s-1,0-1.5-.2c-.5-.2-.9-.4-1.2-.7-.4-.3-.7-.6-.9-1-.2-.4-.4-.8-.5-1.3l2-.5c0,.5.3,1,.7,1.3.4.3.9.5,1.5.5s.6,0,.8-.1c.2,0,.4-.2.6-.4.2-.2.3-.3.4-.5,0-.2.1-.4.1-.6,0-.4-.1-.7-.4-1-.2-.3-.6-.5-1.2-.7l-1.5-.4c-.9-.3-1.6-.7-2-1.2-.5-.5-.7-1.2-.7-2.1s0-.8.3-1.2c.2-.4.4-.7.8-1,.3-.3.7-.5,1.2-.7.5-.2,1-.3,1.5-.3s1,0,1.4.2.8.4,1.2.6.6.6.9.9c.2.3.4.7.5,1.1l-2,.5ZM634.4,227.2v7.4c0,.8.2,1.4.5,1.9.3.4.8.7,1.5.7s1.1-.2,1.5-.7c.3-.4.5-1.1.5-1.9v-7.4h2.1v7.4c0,.7,0,1.3-.3,1.8-.2.6-.4,1-.8,1.4-.3.4-.8.7-1.3.9s-1.1.3-1.7.3-1.2-.1-1.7-.3c-.5-.2-.9-.5-1.3-.9-.3-.4-.6-.9-.8-1.4-.2-.6-.3-1.2-.3-1.8v-7.4h2.1ZM642.6,239v-11.8h3.8c.6,0,1.1,0,1.6.3.5.2.9.4,1.2.7.4.3.6.7.8,1.1.2.4.3.9.3,1.5,0,.9-.2,1.6-.7,2.2-.4.6-1,1-1.8,1.2l2.6,4.8h-2.3l-2.4-4.6h-1.2v4.6h-2ZM644.7,229.1v3.4h1.8c.6,0,1-.2,1.3-.5.3-.3.5-.7.5-1.2s-.2-.9-.5-1.2c-.3-.3-.8-.5-1.4-.5h-1.8ZM653.7,227.2l2.3,9.4,2.2-9.4h2.2l-3.1,11.8h-2.7l-3.1-11.8h2.2ZM669.3,237.2v1.8h-7.3v-1.8h2.6v-8.1h-2.6v-1.8h7.2v1.8h-2.6v8.1h2.6ZM673,227.2l2.3,9.4,2.2-9.4h2.2l-3.1,11.8h-2.7l-3.1-11.8h2.2ZM679.7,239l3.3-11.8h2.7l3.2,11.8h-2.2l-.7-2.9h-3.4l-.7,2.9h-2.2ZM685.5,234.3l-1.2-4.9-1.2,4.9h2.4ZM690.3,227.2h2.1v9.9h5.2v1.9h-7.3v-11.8Z"/>
      <rect class="cls-2" x="1" y="41" width="348" height="368"/>
      <rect class="cls-1" x="34.5" y="74" width="277" height="80"/>
      <path class="cls-3" d="M121.7,108v-11.8h3.3c.6,0,1.2,0,1.7.3.5.2.9.4,1.2.8.3.3.6.7.8,1.2.2.4.3.9.3,1.5s0,1-.3,1.5c-.2.4-.4.8-.8,1.2-.3.3-.7.6-1.2.8-.5.2-1.1.3-1.7.3h-2.1v4.5h-1.2ZM122.9,102.4h2.1c.9,0,1.6-.2,2-.7.4-.5.7-1.1.7-1.8s0-.7-.2-1c-.1-.3-.3-.6-.5-.8s-.5-.4-.8-.5c-.3-.1-.7-.2-1.2-.2h-2.1v5ZM131.2,96.2h1.2v10.6h5.8v1.1h-7v-11.8ZM141,96.2v7.5c0,1,.2,1.8.7,2.4.5.6,1.1.8,1.9.8s1.5-.3,1.9-.8c.5-.6.7-1.4.7-2.4v-7.5h1.2v7.6c0,.7,0,1.3-.3,1.8-.2.5-.4,1-.8,1.4-.3.4-.7.7-1.2.9-.5.2-1,.3-1.6.3s-1.1-.1-1.6-.3c-.5-.2-.9-.5-1.2-.9-.3-.4-.6-.8-.8-1.4-.2-.5-.3-1.1-.3-1.8v-7.6h1.2ZM153.8,96.2c.6,0,1.1,0,1.5.2.5.2.8.4,1.2.7.3.3.6.7.7,1.1.2.4.3.9.3,1.4s0,.8-.2,1.2c-.1.4-.3.7-.6,1-.2.3-.5.5-.9.7-.3.2-.7.3-1.2.4l2.9,5.1h-1.4l-2.8-5h-1.9v5h-1.2v-11.8h3.6ZM151.4,101.9h2.5c.8,0,1.4-.2,1.7-.6s.6-1,.6-1.6-.2-1.2-.6-1.6c-.4-.4-1-.6-1.8-.6h-2.4v4.5ZM166.6,106.9v1.1h-7.2v-1.1h3v-9.6h-2.9v-1.1h7v1.1h-2.9v9.6h3ZM169.7,96.2l2.9,10.3,2.8-10.3h1.3l-3.4,11.8h-1.6l-3.3-11.8h1.3ZM186.1,96.2v1.1h-5.7v4h5v1.1h-5v4.4h6v1.1h-7.2v-11.8h7ZM192.6,96.2c.6,0,1.1,0,1.5.2.5.2.8.4,1.2.7.3.3.6.7.7,1.1.2.4.3.9.3,1.4s0,.8-.2,1.2c-.1.4-.3.7-.6,1-.2.3-.5.5-.9.7-.3.2-.7.3-1.2.4l2.9,5.1h-1.4l-2.8-5h-1.9v5h-1.2v-11.8h3.6ZM190.3,101.9h2.5c.8,0,1.4-.2,1.7-.6.4-.4.6-1,.6-1.6s-.2-1.2-.6-1.6c-.4-.4-1-.6-1.8-.6h-2.4v4.5ZM204.5,99c-.2-.5-.5-.9-.9-1.3-.4-.3-1-.5-1.6-.5s-.8,0-1.1.2c-.3.1-.5.3-.7.5-.2.2-.3.4-.4.6,0,.2-.1.4-.1.7,0,.4.1.8.4,1.1.3.3.7.5,1.3.7l1.7.6c.9.3,1.5.7,2,1.3.5.6.7,1.2.7,2s0,.8-.2,1.2c-.1.4-.4.8-.7,1.1-.3.3-.7.6-1.2.8-.5.2-1,.3-1.7.3s-.9,0-1.3-.2c-.4-.1-.8-.4-1.2-.6-.3-.3-.6-.6-.9-.9s-.4-.8-.5-1.2l1.2-.3c0,.3.2.6.4.9.2.3.4.5.6.7.2.2.5.3.8.4.3,0,.6.1.9.1.4,0,.8,0,1.1-.2.3-.1.6-.3.8-.5s.4-.4.5-.7c0-.3.1-.5.1-.8,0-.5-.1-.9-.4-1.3-.3-.4-.8-.7-1.5-.9l-1.6-.5c-.8-.3-1.5-.6-1.9-1.1s-.7-1.1-.7-1.8,0-.8.2-1.1c.1-.4.4-.7.7-1,.3-.3.7-.5,1.1-.7.4-.2.9-.3,1.5-.3s.9,0,1.3.2c.4.1.8.3,1.1.5.3.2.6.5.8.8.2.3.4.6.5,1l-1.2.3ZM213.9,104.7h-4.1l-.9,3.3h-1.3l3.5-11.8h1.6l3.5,11.8h-1.3l-.9-3.3ZM210.1,103.6h3.5l-1.8-6.1-1.7,6.1ZM218,96.2h1.2v10.6h5.8v1.1h-7v-11.8ZM145.2,116.2h2.8c.8,0,1.5.1,2.1.4.6.3,1.2.7,1.6,1.2.4.5.8,1.1,1,1.9.2.7.4,1.5.4,2.4s-.1,1.7-.4,2.4c-.2.7-.6,1.3-1,1.9-.4.5-1,.9-1.6,1.2-.6.3-1.3.4-2.1.4h-2.8v-11.8ZM151.8,122.1c0-.7,0-1.4-.3-1.9-.2-.6-.4-1.1-.8-1.5-.3-.4-.7-.7-1.2-1-.5-.2-1-.4-1.6-.4h-1.6v9.5h1.6c.6,0,1.1-.1,1.6-.3.5-.2.9-.5,1.2-.9.3-.4.6-.9.8-1.5.2-.6.3-1.2.3-2ZM162.3,116.2v1.1h-5.7v4h5v1.1h-5v4.4h6v1.1h-7.2v-11.8h7ZM170.8,119c-.2-.5-.5-.9-.9-1.3-.4-.3-1-.5-1.6-.5s-.8,0-1.1.2c-.3.1-.5.3-.7.5-.2.2-.3.4-.4.6,0,.2-.1.4-.1.7,0,.4.1.8.4,1.1.3.3.7.5,1.3.7l1.7.6c.9.3,1.5.7,2,1.3.5.6.7,1.2.7,2s0,.8-.2,1.2c-.2.4-.4.8-.7,1.1-.3.3-.7.6-1.2.8-.5.2-1,.3-1.7.3s-.9,0-1.3-.2c-.4-.1-.8-.4-1.2-.6-.3-.3-.6-.6-.9-.9-.2-.4-.4-.8-.5-1.2l1.2-.3c0,.3.2.6.4.9.2.3.4.5.6.7.2.2.5.3.8.4.3,0,.6.1.9.1.4,0,.8,0,1.1-.2.3-.1.6-.3.8-.5s.4-.4.5-.7c0-.3.1-.5.1-.8,0-.5-.1-.9-.4-1.3-.3-.4-.8-.7-1.5-.9l-1.6-.5c-.8-.3-1.5-.6-1.9-1.1-.5-.5-.7-1.1-.7-1.8s0-.8.2-1.1c.1-.4.4-.7.7-1,.3-.3.7-.5,1.1-.7.4-.2.9-.3,1.5-.3s.9,0,1.3.2c.4.1.8.3,1.1.5.3.2.6.5.8.8.2.3.4.6.5,1l-1.2.3ZM181.3,126.9v1.1h-7.2v-1.1h3v-9.6h-2.9v-1.1h7v1.1h-2.9v9.6h3ZM187,121.7h4.2v4.2c-.3.7-.8,1.2-1.5,1.6-.6.4-1.4.6-2.2.6s-1.3-.1-1.9-.4c-.6-.3-1-.7-1.4-1.2-.4-.5-.7-1.2-.9-1.9-.2-.7-.3-1.6-.3-2.5s.1-1.8.3-2.5c.2-.7.5-1.4.9-1.9.4-.5.9-.9,1.4-1.2.6-.3,1.2-.4,1.8-.4s1.6.2,2.2.7c.6.4,1.1,1.1,1.4,1.8l-1.1.5c-.3-.6-.6-1-1-1.3-.4-.3-.9-.5-1.5-.5s-.9.1-1.3.3c-.4.2-.7.5-1,.9-.3.4-.5.9-.7,1.5-.1.6-.2,1.3-.2,2,0,1.5.3,2.7.8,3.6.6.9,1.4,1.3,2.4,1.3s1.1-.1,1.6-.4c.5-.3.8-.7,1-1.1v-2.6h-3v-1.1ZM194.8,116.2l4.9,9.4v-9.4h1.2v11.8h-1.2l-4.9-9.4v9.4h-1.2v-11.8h1.2Z"/>
      <rect class="cls-1" x="34.5" y="185" width="277" height="80"/>
      <path class="cls-3" d="M119.7,207.2c.6,0,1.1,0,1.5.2.5.2.8.4,1.2.7.3.3.6.7.7,1.1.2.4.3.9.3,1.4s0,.8-.2,1.2-.3.7-.6,1c-.2.3-.5.5-.9.7-.3.2-.7.3-1.2.4l2.9,5.1h-1.4l-2.8-5h-1.9v5h-1.2v-11.8h3.6ZM117.3,212.9h2.5c.8,0,1.4-.2,1.7-.6.4-.4.6-1,.6-1.6s-.2-1.2-.6-1.6c-.4-.4-1-.6-1.8-.6h-2.4v4.5ZM133,207.2v1.1h-5.7v4h5v1.1h-5v4.4h6v1.1h-7.2v-11.8h7ZM139,212.7h4.2v4.2c-.3.7-.8,1.2-1.5,1.6-.6.4-1.4.6-2.2.6s-1.3-.1-1.9-.4c-.6-.3-1-.7-1.4-1.2-.4-.5-.7-1.2-.9-1.9-.2-.7-.3-1.6-.3-2.5s.1-1.8.3-2.5c.2-.7.5-1.4.9-1.9.4-.5.9-.9,1.4-1.2.6-.3,1.2-.4,1.8-.4s1.6.2,2.2.7c.6.4,1.1,1.1,1.4,1.8l-1.1.5c-.3-.6-.6-1-1-1.3-.4-.3-.9-.5-1.5-.5s-.9.1-1.3.3c-.4.2-.7.5-1,.9-.3.4-.5.9-.7,1.5-.1.6-.2,1.3-.2,2,0,1.5.3,2.7.8,3.6.6.9,1.4,1.3,2.4,1.3s1.1-.1,1.6-.4c.5-.3.8-.7,1-1.1v-2.6h-3v-1.1ZM152.8,207.2v1.1h-5.7v4h5v1.1h-5v4.4h6v1.1h-7.2v-11.8h7ZM156.7,207.2l4.9,9.4v-9.4h1.2v11.8h-1.2l-4.9-9.4v9.4h-1.2v-11.8h1.2ZM172.8,207.2v1.1h-5.7v4h5v1.1h-5v4.4h6v1.1h-7.2v-11.8h7ZM179.3,207.2c.6,0,1.1,0,1.5.2.5.2.8.4,1.2.7.3.3.6.7.7,1.1.2.4.3.9.3,1.4s0,.8-.2,1.2c-.1.4-.3.7-.6,1-.2.3-.5.5-.9.7-.3.2-.7.3-1.2.4l2.9,5.1h-1.4l-2.8-5h-1.9v5h-1.2v-11.8h3.6ZM176.9,212.9h2.5c.8,0,1.4-.2,1.7-.6.4-.4.6-1,.6-1.6s-.2-1.2-.6-1.6c-.4-.4-1-.6-1.8-.6h-2.4v4.5ZM191.1,215.7h-4.1l-.9,3.3h-1.3l3.5-11.8h1.6l3.5,11.8h-1.3l-.9-3.3ZM187.3,214.6h3.5l-1.8-6.1-1.7,6.1ZM202,207.2v1.1h-3.6v10.6h-1.2v-10.6h-3.6v-1.1h8.4ZM210.6,217.9v1.1h-7.2v-1.1h3v-9.6h-2.9v-1.1h7v1.1h-2.9v9.6h3ZM213.7,207.2l2.9,10.3,2.8-10.3h1.3l-3.4,11.8h-1.6l-3.3-11.8h1.3ZM230.1,207.2v1.1h-5.7v4h5v1.1h-5v4.4h6v1.1h-7.2v-11.8h7ZM146.4,230c-.2-.5-.5-.9-.9-1.3-.4-.3-1-.5-1.6-.5s-.8,0-1.1.2c-.3.1-.5.3-.7.5-.2.2-.3.4-.4.6,0,.2-.1.4-.1.7,0,.4.1.8.4,1.1.3.3.7.5,1.3.7l1.7.6c.9.3,1.5.7,2,1.3.5.6.7,1.2.7,2s0,.8-.2,1.2c-.1.4-.4.8-.7,1.1-.3.3-.7.6-1.2.8-.5.2-1,.3-1.7.3s-.9,0-1.3-.2c-.4-.1-.8-.4-1.2-.6-.3-.3-.6-.6-.9-.9-.2-.4-.4-.8-.5-1.2l1.2-.3c0,.3.2.6.4.9.2.3.4.5.6.7.2.2.5.3.8.4.3,0,.6.1.9.1.4,0,.8,0,1.1-.2.3-.1.6-.3.8-.5.2-.2.4-.4.5-.7,0-.3.1-.5.1-.8,0-.5-.1-.9-.4-1.3-.3-.4-.8-.7-1.5-.9l-1.6-.5c-.8-.3-1.5-.6-1.9-1.1-.5-.5-.7-1.1-.7-1.8s0-.8.2-1.1c.1-.4.4-.7.7-1,.3-.3.7-.5,1.1-.7.4-.2.9-.3,1.5-.3s.9,0,1.3.2c.4.1.8.3,1.1.5.3.2.6.5.8.8.2.3.4.6.5,1l-1.2.3ZM150.5,227.2l2.9,5.3,2.9-5.3h1.4l-3.7,6.5v5.2h-1.2v-5.2l-3.7-6.5h1.4ZM165.3,230c-.2-.5-.5-.9-.9-1.3-.4-.3-1-.5-1.6-.5s-.8,0-1.1.2c-.3.1-.5.3-.7.5-.2.2-.3.4-.4.6,0,.2-.1.4-.1.7,0,.4.1.8.4,1.1.3.3.7.5,1.3.7l1.7.6c.9.3,1.5.7,2,1.3.5.6.7,1.2.7,2s0,.8-.2,1.2c-.1.4-.4.8-.7,1.1-.3.3-.7.6-1.2.8-.5.2-1,.3-1.7.3s-.9,0-1.3-.2c-.4-.1-.8-.4-1.2-.6-.3-.3-.6-.6-.9-.9-.2-.4-.4-.8-.5-1.2l1.2-.3c0,.3.2.6.4.9.2.3.4.5.6.7.2.2.5.3.8.4.3,0,.6.1.9.1.4,0,.8,0,1.1-.2.3-.1.6-.3.8-.5.2-.2.4-.4.5-.7,0-.3.1-.5.1-.8,0-.5-.1-.9-.4-1.3-.3-.4-.8-.7-1.5-.9l-1.6-.5c-.8-.3-1.5-.6-1.9-1.1-.5-.5-.7-1.1-.7-1.8s0-.8.2-1.1c.1-.4.4-.7.7-1,.3-.3.7-.5,1.1-.7.4-.2.9-.3,1.5-.3s.9,0,1.3.2c.4.1.8.3,1.1.5.3.2.6.5.8.8.2.3.4.6.5,1l-1.2.3ZM176.5,227.2v1.1h-3.6v10.6h-1.2v-10.6h-3.6v-1.1h8.4ZM185.5,227.2v1.1h-5.7v4h5v1.1h-5v4.4h6v1.1h-7.2v-11.8h7ZM188.3,239v-11.8h1.5l2.4,6.6,2.3-6.6h1.5v11.8h-1.2v-9.6l-2.1,5.8h-1l-2.1-5.9v9.6h-1.2ZM204.5,230c-.2-.5-.5-.9-.9-1.3-.4-.3-1-.5-1.6-.5s-.8,0-1.1.2c-.3.1-.5.3-.7.5-.2.2-.3.4-.4.6,0,.2-.1.4-.1.7,0,.4.1.8.4,1.1.3.3.7.5,1.3.7l1.7.6c.9.3,1.5.7,2,1.3.5.6.7,1.2.7,2s0,.8-.2,1.2c-.1.4-.4.8-.7,1.1-.3.3-.7.6-1.2.8-.5.2-1,.3-1.7.3s-.9,0-1.3-.2c-.4-.1-.8-.4-1.2-.6-.3-.3-.6-.6-.9-.9-.2-.4-.4-.8-.5-1.2l1.2-.3c0,.3.2.6.4.9.2.3.4.5.6.7.2.2.5.3.8.4.3,0,.6.1.9.1.4,0,.8,0,1.1-.2.3-.1.6-.3.8-.5.2-.2.4-.4.5-.7,0-.3.1-.5.1-.8,0-.5-.1-.9-.4-1.3-.3-.4-.8-.7-1.5-.9l-1.6-.5c-.8-.3-1.5-.6-1.9-1.1-.5-.5-.7-1.1-.7-1.8s0-.8.2-1.1c.1-.4.4-.7.7-1,.3-.3.7-.5,1.1-.7.4-.2.9-.3,1.5-.3s.9,0,1.3.2c.4.1.8.3,1.1.5.3.2.6.5.8.8.2.3.4.6.5,1l-1.2.3Z"/>
      <rect class="cls-1" x="34.5" y="296" width="277" height="80"/>
      <path class="cls-3" d="M118.7,318.2v1.1h-5.6v4h5.1v1.1h-5.1v5.5h-1.2v-11.8h6.9ZM122.3,318.2v7.5c0,1,.2,1.8.7,2.4.5.6,1.1.8,1.9.8s1.5-.3,1.9-.8c.5-.6.7-1.4.7-2.4v-7.5h1.2v7.6c0,.7,0,1.3-.3,1.8-.2.5-.4,1-.8,1.4-.3.4-.7.7-1.2.9-.5.2-1,.3-1.6.3s-1.1-.1-1.6-.3c-.5-.2-.9-.5-1.2-.9-.3-.4-.6-.8-.8-1.4-.2-.5-.3-1.1-.3-1.8v-7.6h1.2ZM138.9,318.2v1.1h-3.6v10.6h-1.2v-10.6h-3.6v-1.1h8.4ZM142,318.2v7.5c0,1,.2,1.8.7,2.4.5.6,1.1.8,1.9.8s1.5-.3,1.9-.8c.5-.6.7-1.4.7-2.4v-7.5h1.2v7.6c0,.7,0,1.3-.3,1.8-.2.5-.4,1-.8,1.4-.3.4-.7.7-1.2.9-.5.2-1,.3-1.6.3s-1.1-.1-1.6-.3c-.5-.2-.9-.5-1.2-.9-.3-.4-.6-.8-.8-1.4-.2-.5-.3-1.1-.3-1.8v-7.6h1.2ZM154.7,318.2c.6,0,1.1,0,1.5.2.5.2.8.4,1.2.7.3.3.6.7.7,1.1.2.4.3.9.3,1.4s0,.8-.2,1.2c-.1.4-.3.7-.6,1-.2.3-.5.5-.9.7-.3.2-.7.3-1.2.4l2.9,5.1h-1.4l-2.8-5h-1.9v5h-1.2v-11.8h3.6ZM152.3,323.9h2.5c.8,0,1.4-.2,1.7-.6.4-.4.6-1,.6-1.6s-.2-1.2-.6-1.6c-.4-.4-1-.6-1.8-.6h-2.4v4.5ZM168,318.2v1.1h-5.7v4h5v1.1h-5v4.4h6v1.1h-7.2v-11.8h7ZM179,318.2h2.8c.8,0,1.5.1,2.1.4.6.3,1.2.7,1.6,1.2.4.5.8,1.1,1,1.9.2.7.4,1.5.4,2.4s-.1,1.7-.4,2.4c-.2.7-.6,1.3-1,1.9-.4.5-1,.9-1.6,1.2-.6.3-1.3.4-2.1.4h-2.8v-11.8ZM185.6,324.1c0-.7,0-1.4-.3-1.9-.2-.6-.4-1.1-.8-1.5-.3-.4-.7-.7-1.2-1-.5-.2-1-.4-1.6-.4h-1.6v9.5h1.6c.6,0,1.1-.1,1.6-.3.5-.2.9-.5,1.2-.9.3-.4.6-.9.8-1.5.2-.6.3-1.2.3-2ZM196.2,318.2v1.1h-5.7v4h5v1.1h-5v4.4h6v1.1h-7.2v-11.8h7ZM204.7,321c-.2-.5-.5-.9-.9-1.3s-1-.5-1.6-.5-.8,0-1.1.2c-.3.1-.5.3-.7.5-.2.2-.3.4-.4.6,0,.2-.1.4-.1.7,0,.4.1.8.4,1.1.3.3.7.5,1.3.7l1.7.6c.9.3,1.5.7,2,1.3.5.6.7,1.2.7,2s0,.8-.2,1.2c-.1.4-.4.8-.7,1.1-.3.3-.7.6-1.2.8-.5.2-1,.3-1.7.3s-.9,0-1.3-.2c-.4-.1-.8-.4-1.2-.6-.3-.3-.6-.6-.9-.9-.2-.4-.4-.8-.5-1.2l1.2-.3c0,.3.2.6.4.9.2.3.4.5.6.7.2.2.5.3.8.4.3,0,.6.1.9.1.4,0,.8,0,1.1-.2.3-.1.6-.3.8-.5.2-.2.4-.4.5-.7,0-.3.1-.5.1-.8,0-.5-.1-.9-.4-1.3-.3-.4-.8-.7-1.5-.9l-1.6-.5c-.8-.3-1.5-.6-1.9-1.1-.5-.5-.7-1.1-.7-1.8s0-.8.2-1.1c.1-.4.4-.7.7-1,.3-.3.7-.5,1.1-.7.4-.2.9-.3,1.5-.3s.9,0,1.3.2c.4.1.8.3,1.1.5.3.2.6.5.8.8.2.3.4.6.5,1l-1.2.3ZM215.2,328.9v1.1h-7.2v-1.1h3v-9.6h-2.9v-1.1h7v1.1h-2.9v9.6h3ZM220.8,323.7h4.2v4.2c-.3.7-.8,1.2-1.5,1.6-.6.4-1.4.6-2.2.6s-1.3-.1-1.9-.4c-.6-.3-1-.7-1.4-1.2-.4-.5-.7-1.2-.9-1.9-.2-.7-.3-1.6-.3-2.5s.1-1.8.3-2.5c.2-.7.5-1.4.9-1.9.4-.5.9-.9,1.4-1.2.6-.3,1.2-.4,1.8-.4s1.6.2,2.2.7c.6.4,1.1,1.1,1.4,1.8l-1.1.5c-.3-.6-.6-1-1-1.3s-.9-.5-1.5-.5-.9.1-1.3.3c-.4.2-.7.5-1,.9-.3.4-.5.9-.7,1.5-.1.6-.2,1.3-.2,2,0,1.5.3,2.7.8,3.6.6.9,1.4,1.3,2.4,1.3s1.1-.1,1.6-.4.8-.7,1-1.1v-2.6h-3v-1.1ZM228.6,318.2l4.9,9.4v-9.4h1.2v11.8h-1.2l-4.9-9.4v9.4h-1.2v-11.8h1.2ZM138.2,338.2v1.1h-5.7v4h5v1.1h-5v4.4h6v1.1h-7.2v-11.8h7ZM140.9,338.2h2.8c.8,0,1.5.1,2.1.4.6.3,1.2.7,1.6,1.2.4.5.8,1.1,1,1.9.2.7.4,1.5.4,2.4s-.1,1.7-.4,2.4c-.2.7-.6,1.3-1,1.9-.4.5-1,.9-1.6,1.2-.6.3-1.3.4-2.1.4h-2.8v-11.8ZM147.5,344.1c0-.7,0-1.4-.3-1.9-.2-.6-.4-1.1-.8-1.5-.3-.4-.7-.7-1.2-1-.5-.2-1-.4-1.6-.4h-1.6v9.5h1.6c.6,0,1.1-.1,1.6-.3.5-.2.9-.5,1.2-.9.3-.4.6-.9.8-1.5.2-.6.3-1.2.3-2ZM152,338.2v7.5c0,1,.2,1.8.7,2.4.5.6,1.1.8,1.9.8s1.5-.3,1.9-.8c.5-.6.7-1.4.7-2.4v-7.5h1.2v7.6c0,.7,0,1.3-.3,1.8-.2.5-.4,1-.8,1.4-.3.4-.7.7-1.2.9-.5.2-1,.3-1.6.3s-1.1-.1-1.6-.3c-.5-.2-.9-.5-1.2-.9-.3-.4-.6-.8-.8-1.4-.2-.5-.3-1.1-.3-1.8v-7.6h1.2ZM167.2,341.7c-.2-.7-.5-1.3-1-1.7-.4-.4-1-.7-1.6-.7s-.9.1-1.3.4c-.4.2-.7.6-.9,1-.2.4-.4.9-.6,1.5-.1.6-.2,1.3-.2,2s0,1.4.2,2c.1.6.3,1.1.6,1.5.3.4.6.7.9,1,.4.2.8.4,1.3.4s1.2-.2,1.6-.5c.5-.4.8-.9,1.1-1.6l1.1.4c-.1.4-.3.8-.6,1.2-.2.4-.5.7-.8.9-.3.3-.7.5-1.1.6-.4.1-.8.2-1.3.2-.7,0-1.3-.1-1.8-.4-.5-.3-1-.7-1.3-1.2-.4-.5-.6-1.2-.8-1.9-.2-.7-.3-1.6-.3-2.4s0-1.7.3-2.4c.2-.7.4-1.4.8-1.9.4-.5.8-.9,1.3-1.2.5-.3,1.1-.4,1.8-.4s.8,0,1.2.2.7.3,1.1.6c.3.3.6.6.9,1,.3.4.5.9.6,1.4l-1.2.4ZM176.2,346.7h-4.1l-.9,3.3h-1.3l3.5-11.8h1.6l3.5,11.8h-1.3l-.9-3.3ZM172.4,345.6h3.5l-1.8-6.1-1.7,6.1ZM187.1,338.2v1.1h-3.6v10.6h-1.2v-10.6h-3.6v-1.1h8.4ZM195.7,348.9v1.1h-7.2v-1.1h3v-9.6h-2.9v-1.1h7v1.1h-2.9v9.6h3ZM197.3,344.1c0-.9,0-1.8.3-2.5s.5-1.4.8-1.9c.4-.5.8-.9,1.3-1.2.5-.3,1.1-.4,1.8-.4s1.3.1,1.8.4c.5.3,1,.7,1.3,1.2.4.5.6,1.2.8,1.9.2.7.3,1.6.3,2.5s0,1.8-.3,2.5c-.2.7-.5,1.4-.8,1.9-.4.5-.8.9-1.3,1.2-.5.3-1.1.4-1.8.4s-1.2-.1-1.8-.4c-.5-.3-1-.7-1.3-1.2-.4-.5-.6-1.2-.8-1.9-.2-.7-.3-1.6-.3-2.5ZM201.5,339.2c-1,0-1.7.4-2.2,1.3-.5.9-.7,2.1-.7,3.6s.2,2.7.7,3.6c.5.8,1.2,1.3,2.2,1.3s1.7-.4,2.2-1.3c.5-.9.8-2.1.8-3.6s-.3-2.7-.8-3.6c-.5-.9-1.2-1.3-2.2-1.3ZM209,338.2l4.9,9.4v-9.4h1.2v11.8h-1.2l-4.9-9.4v9.4h-1.2v-11.8h1.2Z"/>
      <path class="cls-3" d="M436.7,225.7c.4-.4.4-1,0-1.4l-6.4-6.4c-.4-.4-1-.4-1.4,0-.4.4-.4,1,0,1.4l5.7,5.7-5.7,5.7c-.4.4-.4,1,0,1.4.4.4,1,.4,1.4,0l6.4-6.4ZM350,226h86v-2h-86v2Z"/>
      <path class="cls-2" d="M660,1h0c123.7,0,224,100.3,224,224h0c0,123.7-100.3,224-224,224h0c-123.7,0-224-100.3-224-224h0c0-123.7,100.3-224,224-224Z"/>
    </g>
  </g>
</svg>