<svg width="885" height="450" viewBox="0 0 885 450" fill="none" xmlns="http://www.w3.org/2000/svg">
<rect x="436" y="1" width="448" height="448" rx="224" stroke="#1A1A1A" stroke-width="2"/>
<path d="M637.004 210.456C636.898 210.072 636.674 209.725 636.332 209.416C636.002 209.107 635.564 208.952 635.02 208.952C634.722 208.952 634.471 208.995 634.268 209.08C634.066 209.165 633.9 209.277 633.772 209.416C633.644 209.555 633.548 209.704 633.484 209.864C633.431 210.024 633.404 210.179 633.404 210.328C633.404 210.627 633.49 210.893 633.66 211.128C633.842 211.352 634.172 211.539 634.652 211.688L636.364 212.216C637.271 212.493 637.964 212.931 638.444 213.528C638.935 214.125 639.18 214.84 639.18 215.672C639.18 216.131 639.084 216.573 638.892 217C638.711 217.416 638.45 217.784 638.108 218.104C637.767 218.424 637.356 218.68 636.876 218.872C636.396 219.064 635.863 219.16 635.276 219.16C634.754 219.16 634.258 219.085 633.788 218.936C633.319 218.776 632.903 218.557 632.54 218.28C632.178 218.003 631.868 217.672 631.612 217.288C631.367 216.893 631.196 216.461 631.1 215.992L633.1 215.464C633.186 215.987 633.42 216.419 633.804 216.76C634.199 217.101 634.684 217.272 635.26 217.272C635.57 217.272 635.842 217.229 636.076 217.144C636.311 217.048 636.503 216.925 636.652 216.776C636.812 216.616 636.93 216.445 637.004 216.264C637.079 216.072 637.116 215.88 637.116 215.688C637.116 215.304 636.994 214.973 636.748 214.696C636.503 214.408 636.108 214.179 635.564 214.008L634.06 213.56C633.186 213.293 632.508 212.893 632.028 212.36C631.548 211.816 631.308 211.128 631.308 210.296C631.308 209.859 631.394 209.448 631.564 209.064C631.746 208.669 631.996 208.328 632.316 208.04C632.636 207.741 633.02 207.507 633.468 207.336C633.927 207.165 634.439 207.08 635.004 207.08C635.506 207.08 635.98 207.155 636.428 207.304C636.876 207.453 637.276 207.656 637.628 207.912C637.98 208.168 638.274 208.472 638.508 208.824C638.743 209.165 638.898 209.533 638.972 209.928L637.004 210.456ZM643.022 207.24V211.976H647.054V207.24H649.118V219H647.054V213.896H643.022V219H640.974V207.24H643.022ZM650.508 219L653.772 207.24H656.492L659.708 219H657.516L656.828 216.136H653.404L652.668 219H650.508ZM656.332 214.328L655.1 209.384L653.884 214.328H656.332ZM661.406 219V207.24H665.246C665.843 207.24 666.382 207.325 666.862 207.496C667.342 207.656 667.753 207.891 668.094 208.2C668.446 208.509 668.713 208.883 668.894 209.32C669.086 209.757 669.182 210.253 669.182 210.808C669.182 211.672 668.958 212.397 668.51 212.984C668.062 213.56 667.47 213.955 666.734 214.168L669.326 219H667.006L664.654 214.44H663.454V219H661.406ZM663.454 209.112V212.552H665.294C665.881 212.552 666.323 212.397 666.622 212.088C666.931 211.768 667.086 211.352 667.086 210.84C667.086 210.317 666.926 209.901 666.606 209.592C666.286 209.272 665.827 209.112 665.23 209.112H663.454ZM678.704 207.24V209.112H673.408V212.008H677.936V213.832H673.408V217.128H678.88V219H671.36V207.24H678.704ZM681.058 207.24H684.13C685.015 207.24 685.783 207.4 686.434 207.72C687.085 208.029 687.623 208.456 688.05 209C688.477 209.533 688.791 210.157 688.994 210.872C689.207 211.587 689.314 212.339 689.314 213.128C689.314 213.917 689.213 214.669 689.01 215.384C688.818 216.088 688.514 216.712 688.098 217.256C687.682 217.789 687.149 218.216 686.498 218.536C685.847 218.845 685.074 219 684.178 219H681.058V207.24ZM687.202 213.128C687.202 212.584 687.143 212.072 687.026 211.592C686.909 211.112 686.727 210.691 686.482 210.328C686.237 209.965 685.917 209.677 685.522 209.464C685.138 209.251 684.679 209.144 684.146 209.144H683.122V217.096H684.194C684.727 217.096 685.181 216.989 685.554 216.776C685.938 216.563 686.247 216.28 686.482 215.928C686.727 215.565 686.909 215.144 687.026 214.664C687.143 214.184 687.202 213.672 687.202 213.128ZM596.671 227.24V231.976H600.703V227.24H602.767V239H600.703V233.896H596.671V239H594.623V227.24H596.671ZM604.157 239L607.421 227.24H610.141L613.357 239H611.165L610.477 236.136H607.053L606.317 239H604.157ZM609.981 234.328L608.749 229.384L607.533 234.328H609.981ZM614.943 239V227.24H619.007C619.561 227.24 620.063 227.315 620.511 227.464C620.959 227.613 621.337 227.827 621.647 228.104C621.956 228.371 622.196 228.696 622.367 229.08C622.537 229.453 622.623 229.864 622.623 230.312C622.623 230.835 622.511 231.304 622.287 231.72C622.063 232.125 621.769 232.456 621.407 232.712C621.631 232.819 621.839 232.968 622.031 233.16C622.233 233.352 622.409 233.571 622.559 233.816C622.719 234.061 622.841 234.333 622.927 234.632C623.023 234.92 623.071 235.219 623.071 235.528C623.071 236.115 622.964 236.627 622.751 237.064C622.548 237.491 622.276 237.848 621.935 238.136C621.593 238.424 621.199 238.643 620.751 238.792C620.313 238.931 619.86 239 619.391 239H614.943ZM619.167 237.16C619.689 237.16 620.121 237.016 620.463 236.728C620.804 236.44 620.975 236.029 620.975 235.496C620.975 234.984 620.809 234.573 620.479 234.264C620.159 233.955 619.673 233.8 619.023 233.8H617.007V237.16H619.167ZM618.911 232.04C619.487 232.04 619.903 231.896 620.159 231.608C620.425 231.32 620.559 230.963 620.559 230.536C620.559 230.067 620.399 229.709 620.079 229.464C619.769 229.208 619.353 229.08 618.831 229.08H617.007V232.04H618.911ZM631.616 237.16V239H624.32V237.16H626.944V229.08H624.384V227.24H631.552V229.08H628.992V237.16H631.616ZM641.569 227.24V229.144H638.305V239H636.209V229.144H632.945V227.24H641.569ZM641.438 239L644.702 227.24H647.422L650.638 239H648.446L647.758 236.136H644.334L643.598 239H641.438ZM647.262 234.328L646.03 229.384L644.814 234.328H647.262ZM652.224 239V227.24H656.288C656.842 227.24 657.344 227.315 657.792 227.464C658.24 227.613 658.618 227.827 658.928 228.104C659.237 228.371 659.477 228.696 659.648 229.08C659.818 229.453 659.904 229.864 659.904 230.312C659.904 230.835 659.792 231.304 659.568 231.72C659.344 232.125 659.05 232.456 658.688 232.712C658.912 232.819 659.12 232.968 659.312 233.16C659.514 233.352 659.69 233.571 659.84 233.816C660 234.061 660.122 234.333 660.208 234.632C660.304 234.92 660.352 235.219 660.352 235.528C660.352 236.115 660.245 236.627 660.032 237.064C659.829 237.491 659.557 237.848 659.216 238.136C658.874 238.424 658.48 238.643 658.032 238.792C657.594 238.931 657.141 239 656.672 239H652.224ZM656.448 237.16C656.97 237.16 657.402 237.016 657.744 236.728C658.085 236.44 658.256 236.029 658.256 235.496C658.256 234.984 658.09 234.573 657.76 234.264C657.44 233.955 656.954 233.8 656.304 233.8H654.288V237.16H656.448ZM656.192 232.04C656.768 232.04 657.184 231.896 657.44 231.608C657.706 231.32 657.84 230.963 657.84 230.536C657.84 230.067 657.68 229.709 657.36 229.464C657.05 229.208 656.634 229.08 656.112 229.08H654.288V232.04H656.192ZM668.897 237.16V239H661.601V237.16H664.225V229.08H661.665V227.24H668.833V229.08H666.273V237.16H668.897ZM671.282 227.24H673.362V237.096H678.594V239H671.282V227.24ZM687.147 237.16V239H679.851V237.16H682.475V229.08H679.915V227.24H687.083V229.08H684.523V237.16H687.147ZM697.1 227.24V229.144H693.836V239H691.74V229.144H688.476V227.24H697.1ZM705.71 237.16V239H698.414V237.16H701.038V229.08H698.478V227.24H705.646V229.08H703.086V237.16H705.71ZM715.571 227.24V229.112H710.275V232.008H714.803V233.832H710.275V237.128H715.747V239H708.227V227.24H715.571ZM723.2 230.456C723.093 230.072 722.869 229.725 722.528 229.416C722.197 229.107 721.76 228.952 721.216 228.952C720.917 228.952 720.666 228.995 720.464 229.08C720.261 229.165 720.096 229.277 719.968 229.416C719.84 229.555 719.744 229.704 719.68 229.864C719.626 230.024 719.6 230.179 719.6 230.328C719.6 230.627 719.685 230.893 719.856 231.128C720.037 231.352 720.368 231.539 720.848 231.688L722.56 232.216C723.466 232.493 724.16 232.931 724.64 233.528C725.13 234.125 725.376 234.84 725.376 235.672C725.376 236.131 725.28 236.573 725.088 237C724.906 237.416 724.645 237.784 724.304 238.104C723.962 238.424 723.552 238.68 723.072 238.872C722.592 239.064 722.058 239.16 721.472 239.16C720.949 239.16 720.453 239.085 719.984 238.936C719.514 238.776 719.098 238.557 718.736 238.28C718.373 238.003 718.064 237.672 717.808 237.288C717.562 236.893 717.392 236.461 717.296 235.992L719.296 235.464C719.381 235.987 719.616 236.419 720 236.76C720.394 237.101 720.88 237.272 721.456 237.272C721.765 237.272 722.037 237.229 722.272 237.144C722.506 237.048 722.698 236.925 722.848 236.776C723.008 236.616 723.125 236.445 723.2 236.264C723.274 236.072 723.312 235.88 723.312 235.688C723.312 235.304 723.189 234.973 722.944 234.696C722.698 234.408 722.304 234.179 721.76 234.008L720.256 233.56C719.381 233.293 718.704 232.893 718.224 232.36C717.744 231.816 717.504 231.128 717.504 230.296C717.504 229.859 717.589 229.448 717.76 229.064C717.941 228.669 718.192 228.328 718.512 228.04C718.832 227.741 719.216 227.507 719.664 227.336C720.122 227.165 720.634 227.08 721.2 227.08C721.701 227.08 722.176 227.155 722.624 227.304C723.072 227.453 723.472 227.656 723.824 227.912C724.176 228.168 724.469 228.472 724.704 228.824C724.938 229.165 725.093 229.533 725.168 229.928L723.2 230.456Z" fill="#1A1A1A"/>
<rect x="1" y="41" width="348" height="368" stroke="#1A1A1A" stroke-width="2"/>
<rect x="34.5" y="74" width="277" height="80" stroke="#1A1A1A"/>
<path d="M128.303 99.952H130.095L133.551 106.896H133.423L136.879 99.952H138.623V110H137.359V101.248H137.583L133.903 108.736H133.071L129.407 101.296H129.551V110H128.303V99.952ZM145.402 110.192C144.57 110.192 143.826 110 143.17 109.616C142.514 109.232 141.997 108.656 141.618 107.888C141.24 107.115 141.05 106.149 141.05 104.992C141.05 103.819 141.24 102.848 141.618 102.08C141.997 101.307 142.514 100.731 143.17 100.352C143.826 99.968 144.57 99.776 145.402 99.776C146.234 99.776 146.978 99.968 147.634 100.352C148.29 100.736 148.808 101.315 149.186 102.088C149.565 102.861 149.754 103.829 149.754 104.992C149.754 106.16 149.565 107.131 149.186 107.904C148.808 108.672 148.29 109.245 147.634 109.624C146.978 110.003 146.234 110.192 145.402 110.192ZM145.402 109.04C146.346 109.04 147.09 108.696 147.634 108.008C148.184 107.32 148.458 106.309 148.458 104.976C148.458 103.669 148.184 102.664 147.634 101.96C147.09 101.251 146.346 100.896 145.402 100.896C144.469 100.896 143.725 101.251 143.17 101.96C142.621 102.669 142.346 103.68 142.346 104.992C142.346 106.32 142.621 107.328 143.17 108.016C143.725 108.699 144.469 109.04 145.402 109.04ZM152.178 110V99.952H155.682C156.829 99.952 157.696 100.227 158.282 100.776C158.874 101.32 159.17 102.037 159.17 102.928C159.17 103.808 158.874 104.523 158.282 105.072C157.696 105.616 156.829 105.888 155.682 105.888H153.426V110H152.178ZM157.81 110L154.93 105.44H156.29L159.426 110H157.81ZM153.426 105.008H155.586C156.338 105.008 156.909 104.824 157.298 104.456C157.693 104.083 157.89 103.6 157.89 103.008C157.89 102.4 157.701 101.917 157.322 101.56C156.949 101.203 156.402 101.024 155.682 101.024H153.426V105.008ZM161.959 110V99.952H168.151V101.024H163.207V104.4H167.863V105.472H163.207V108.912H168.151V110H161.959ZM169.952 105.888V104.8H174.304V105.888H169.952ZM175.002 101.024V99.952H182.826V101.024H179.25L179.53 100.736V110H178.282V100.736L178.562 101.024H175.002ZM184.538 99.952H185.786V104.384H190.762V99.952H191.994V110H190.762V105.456H185.786V110H184.538V99.952ZM194.041 110L197.497 99.952H199.017L202.393 110H201.081L200.233 107.424H196.233L195.353 110H194.041ZM196.553 106.448H199.913L198.233 101.472L196.553 106.448ZM204.412 99.952H205.9L211.004 108.224H210.892V99.952H212.14V110H210.748L205.468 101.456H205.66V110H204.412V99.952ZM214.358 105.888V104.8H218.71V105.888H214.358ZM115.936 118.952H117.184V123.384H122.16V118.952H123.392V129H122.16V124.456H117.184V129H115.936V118.952ZM126.415 118.952H127.663V125.368C127.663 126.312 127.901 126.995 128.375 127.416C128.85 127.832 129.471 128.04 130.239 128.04C131.002 128.04 131.618 127.832 132.087 127.416C132.562 126.995 132.799 126.312 132.799 125.368V118.952H134.047V125.368C134.047 126.211 133.89 126.917 133.575 127.488C133.266 128.053 132.826 128.48 132.255 128.768C131.685 129.051 131.013 129.192 130.239 129.192C129.466 129.192 128.791 129.051 128.215 128.768C127.645 128.48 127.202 128.053 126.887 127.488C126.573 126.917 126.415 126.211 126.415 125.368V118.952ZM137.092 118.952H138.884L142.34 125.896H142.212L145.668 118.952H147.412V129H146.148V120.248H146.372L142.692 127.736H141.86L138.196 120.296H138.34V129H137.092V118.952ZM149.439 129L152.895 118.952H154.415L157.791 129H156.479L155.631 126.424H151.631L150.751 129H149.439ZM151.951 125.448H155.311L153.631 120.472L151.951 125.448ZM159.811 118.952H161.299L166.403 127.224H166.291V118.952H167.539V129H166.147L160.867 120.456H161.059V129H159.811V118.952ZM174.561 118.952H177.505C178.519 118.952 179.399 119.16 180.145 119.576C180.892 119.987 181.471 120.568 181.881 121.32C182.292 122.072 182.497 122.957 182.497 123.976C182.497 124.984 182.292 125.864 181.881 126.616C181.471 127.368 180.892 127.955 180.145 128.376C179.399 128.792 178.519 129 177.505 129H174.561V118.952ZM175.809 120.056V127.912H177.505C178.263 127.912 178.913 127.741 179.457 127.4C180.007 127.059 180.428 126.592 180.721 126C181.02 125.403 181.169 124.728 181.169 123.976C181.169 123.219 181.02 122.547 180.721 121.96C180.428 121.368 180.007 120.904 179.457 120.568C178.913 120.227 178.263 120.056 177.505 120.056H175.809ZM185.108 129V118.952H191.3V120.024H186.356V123.4H191.012V124.472H186.356V127.912H191.3V129H185.108ZM197.324 129.192C196.652 129.192 196.036 129.072 195.476 128.832C194.916 128.587 194.465 128.227 194.124 127.752C193.783 127.277 193.607 126.691 193.596 125.992H194.812C194.812 126.461 194.927 126.848 195.156 127.152C195.385 127.451 195.689 127.675 196.068 127.824C196.447 127.968 196.86 128.04 197.308 128.04C197.793 128.04 198.215 127.963 198.572 127.808C198.929 127.653 199.204 127.451 199.396 127.2C199.593 126.944 199.692 126.664 199.692 126.36C199.692 125.933 199.561 125.589 199.3 125.328C199.039 125.061 198.652 124.845 198.14 124.68L196.364 124.056C195.532 123.757 194.903 123.416 194.476 123.032C194.049 122.648 193.836 122.109 193.836 121.416C193.836 120.637 194.135 120.003 194.732 119.512C195.335 119.021 196.188 118.776 197.292 118.776C198.316 118.776 199.116 119.013 199.692 119.488C200.268 119.957 200.599 120.589 200.684 121.384H199.452C199.372 120.92 199.153 120.56 198.796 120.304C198.444 120.043 197.943 119.912 197.292 119.912C196.631 119.912 196.116 120.059 195.748 120.352C195.38 120.645 195.196 121.016 195.196 121.464C195.196 121.832 195.311 122.125 195.54 122.344C195.775 122.557 196.14 122.749 196.636 122.92L198.716 123.64C199.436 123.88 200.004 124.216 200.42 124.648C200.841 125.08 201.052 125.64 201.052 126.328C201.052 126.861 200.908 127.344 200.62 127.776C200.337 128.208 199.919 128.552 199.364 128.808C198.809 129.064 198.129 129.192 197.324 129.192ZM203.78 129V118.952H205.028V129H203.78ZM211.8 129.192C211 129.192 210.272 128.984 209.616 128.568C208.96 128.152 208.438 127.563 208.048 126.8C207.659 126.037 207.464 125.133 207.464 124.088C207.464 123.219 207.59 122.453 207.84 121.792C208.091 121.131 208.435 120.576 208.872 120.128C209.31 119.68 209.811 119.344 210.376 119.12C210.947 118.891 211.55 118.776 212.184 118.776C212.968 118.776 213.656 118.939 214.248 119.264C214.84 119.584 215.347 120.093 215.768 120.792L214.584 121.208C214.227 120.765 213.843 120.44 213.432 120.232C213.027 120.019 212.595 119.912 212.136 119.912C211.534 119.912 210.979 120.08 210.472 120.416C209.966 120.752 209.558 121.232 209.248 121.856C208.944 122.48 208.792 123.224 208.792 124.088C208.792 124.856 208.918 125.539 209.168 126.136C209.419 126.728 209.774 127.195 210.232 127.536C210.696 127.872 211.246 128.04 211.88 128.04C212.366 128.04 212.8 127.928 213.184 127.704C213.574 127.48 213.88 127.144 214.104 126.696C214.328 126.243 214.44 125.672 214.44 124.984H214.824C214.824 125.837 214.723 126.579 214.52 127.208C214.318 127.837 213.992 128.325 213.544 128.672C213.102 129.019 212.52 129.192 211.8 129.192ZM214.664 129L214.44 126.632V124.952L211.912 124.872V124.024H215.656V129H214.664ZM218.545 118.952H220.033L225.137 127.224H225.025V118.952H226.273V129H224.881L219.601 120.456H219.793V129H218.545V118.952Z" fill="#1A1A1A"/>
<rect x="34.5" y="185" width="277" height="80" stroke="#1A1A1A"/>
<path d="M121.217 221V210.952H124.721C125.868 210.952 126.735 211.227 127.321 211.776C127.913 212.32 128.209 213.037 128.209 213.928C128.209 214.808 127.913 215.523 127.321 216.072C126.735 216.616 125.868 216.888 124.721 216.888H122.465V221H121.217ZM126.849 221L123.969 216.44H125.329L128.465 221H126.849ZM122.465 216.008H124.625C125.377 216.008 125.948 215.824 126.337 215.456C126.732 215.083 126.929 214.6 126.929 214.008C126.929 213.4 126.74 212.917 126.361 212.56C125.988 212.203 125.441 212.024 124.721 212.024H122.465V216.008ZM130.998 221V210.952H137.19V212.024H132.246V215.4H136.902V216.472H132.246V219.912H137.19V221H130.998ZM143.535 221.192C142.735 221.192 142.007 220.984 141.351 220.568C140.695 220.152 140.172 219.563 139.783 218.8C139.393 218.037 139.199 217.133 139.199 216.088C139.199 215.219 139.324 214.453 139.575 213.792C139.825 213.131 140.169 212.576 140.607 212.128C141.044 211.68 141.545 211.344 142.111 211.12C142.681 210.891 143.284 210.776 143.919 210.776C144.703 210.776 145.391 210.939 145.983 211.264C146.575 211.584 147.081 212.093 147.503 212.792L146.319 213.208C145.961 212.765 145.577 212.44 145.167 212.232C144.761 212.019 144.329 211.912 143.871 211.912C143.268 211.912 142.713 212.08 142.207 212.416C141.7 212.752 141.292 213.232 140.983 213.856C140.679 214.48 140.527 215.224 140.527 216.088C140.527 216.856 140.652 217.539 140.903 218.136C141.153 218.728 141.508 219.195 141.967 219.536C142.431 219.872 142.98 220.04 143.615 220.04C144.1 220.04 144.535 219.928 144.919 219.704C145.308 219.48 145.615 219.144 145.839 218.696C146.063 218.243 146.175 217.672 146.175 216.984H146.559C146.559 217.837 146.457 218.579 146.255 219.208C146.052 219.837 145.727 220.325 145.279 220.672C144.836 221.019 144.255 221.192 143.535 221.192ZM146.399 221L146.175 218.632V216.952L143.647 216.872V216.024H147.391V221H146.399ZM150.28 221V210.952H156.472V212.024H151.528V215.4H156.184V216.472H151.528V219.912H156.472V221H150.28ZM159.264 210.952H160.752L165.856 219.224H165.744V210.952H166.992V221H165.6L160.32 212.456H160.512V221H159.264V210.952ZM170.201 221V210.952H176.393V212.024H171.449V215.4H176.105V216.472H171.449V219.912H176.393V221H170.201ZM179.202 221V210.952H182.706C183.853 210.952 184.719 211.227 185.306 211.776C185.898 212.32 186.194 213.037 186.194 213.928C186.194 214.808 185.898 215.523 185.306 216.072C184.719 216.616 183.853 216.888 182.706 216.888H180.45V221H179.202ZM184.834 221L181.954 216.44H183.314L186.45 221H184.834ZM180.45 216.008H182.61C183.362 216.008 183.933 215.824 184.322 215.456C184.717 215.083 184.914 214.6 184.914 214.008C184.914 213.4 184.725 212.917 184.346 212.56C183.973 212.203 183.426 212.024 182.706 212.024H180.45V216.008ZM187.799 221L191.255 210.952H192.775L196.151 221H194.839L193.991 218.424H189.991L189.111 221H187.799ZM190.311 217.448H193.671L191.991 212.472L190.311 217.448ZM196.01 212.024V210.952H203.834V212.024H200.258L200.538 211.736V221H199.29V211.736L199.57 212.024H196.01ZM205.546 221V210.952H206.794V221H205.546ZM212.83 219.672L215.806 210.952H217.134L213.55 221H212.254L208.702 210.952H210.03L212.99 219.672H212.83ZM219.014 221V210.952H225.206V212.024H220.262V215.4H224.918V216.472H220.262V219.912H225.206V221H219.014ZM134.412 240V229.952H140.604V231.024H135.66V234.4H140.316V235.472H135.66V238.912H140.604V240H134.412ZM146.901 240.192C146.015 240.192 145.253 239.971 144.613 239.528C143.973 239.08 143.479 238.461 143.133 237.672C142.786 236.877 142.613 235.957 142.613 234.912C142.613 233.797 142.799 232.859 143.173 232.096C143.551 231.333 144.063 230.757 144.709 230.368C145.359 229.973 146.09 229.776 146.901 229.776C147.973 229.776 148.834 230.045 149.485 230.584C150.141 231.117 150.591 231.813 150.837 232.672L149.493 232.944C149.285 232.32 148.951 231.824 148.493 231.456C148.039 231.083 147.509 230.896 146.901 230.896C146.373 230.896 145.885 231.048 145.437 231.352C144.994 231.651 144.637 232.099 144.365 232.696C144.093 233.293 143.957 234.032 143.957 234.912C143.957 235.712 144.063 236.424 144.277 237.048C144.495 237.672 144.821 238.163 145.253 238.52C145.69 238.877 146.239 239.056 146.901 239.056C147.695 239.056 148.325 238.843 148.789 238.416C149.258 237.989 149.493 237.429 149.493 236.736H150.853C150.853 237.456 150.687 238.075 150.357 238.592C150.026 239.104 149.562 239.499 148.965 239.776C148.373 240.053 147.685 240.192 146.901 240.192ZM156.777 240.192C155.945 240.192 155.201 240 154.545 239.616C153.889 239.232 153.372 238.656 152.993 237.888C152.615 237.115 152.425 236.149 152.425 234.992C152.425 233.819 152.615 232.848 152.993 232.08C153.372 231.307 153.889 230.731 154.545 230.352C155.201 229.968 155.945 229.776 156.777 229.776C157.609 229.776 158.353 229.968 159.009 230.352C159.665 230.736 160.183 231.315 160.561 232.088C160.94 232.861 161.129 233.829 161.129 234.992C161.129 236.16 160.94 237.131 160.561 237.904C160.183 238.672 159.665 239.245 159.009 239.624C158.353 240.003 157.609 240.192 156.777 240.192ZM156.777 239.04C157.721 239.04 158.465 238.696 159.009 238.008C159.559 237.32 159.833 236.309 159.833 234.976C159.833 233.669 159.559 232.664 159.009 231.96C158.465 231.251 157.721 230.896 156.777 230.896C155.844 230.896 155.1 231.251 154.545 231.96C153.996 232.669 153.721 233.68 153.721 234.992C153.721 236.32 153.996 237.328 154.545 238.016C155.1 238.699 155.844 239.04 156.777 239.04ZM164.801 229.952V238.912H169.281V240H163.553V229.952H164.801ZM174.59 240.192C173.758 240.192 173.014 240 172.358 239.616C171.702 239.232 171.184 238.656 170.806 237.888C170.427 237.115 170.238 236.149 170.238 234.992C170.238 233.819 170.427 232.848 170.806 232.08C171.184 231.307 171.702 230.731 172.358 230.352C173.014 229.968 173.758 229.776 174.59 229.776C175.422 229.776 176.166 229.968 176.822 230.352C177.478 230.736 177.995 231.315 178.374 232.088C178.752 232.861 178.942 233.829 178.942 234.992C178.942 236.16 178.752 237.131 178.374 237.904C177.995 238.672 177.478 239.245 176.822 239.624C176.166 240.003 175.422 240.192 174.59 240.192ZM174.59 239.04C175.534 239.04 176.278 238.696 176.822 238.008C177.371 237.32 177.646 236.309 177.646 234.976C177.646 233.669 177.371 232.664 176.822 231.96C176.278 231.251 175.534 230.896 174.59 230.896C173.656 230.896 172.912 231.251 172.358 231.96C171.808 232.669 171.534 233.68 171.534 234.992C171.534 236.32 171.808 237.328 172.358 238.016C172.912 238.699 173.656 239.04 174.59 239.04ZM184.902 240.192C184.102 240.192 183.374 239.984 182.718 239.568C182.062 239.152 181.539 238.563 181.15 237.8C180.761 237.037 180.566 236.133 180.566 235.088C180.566 234.219 180.691 233.453 180.942 232.792C181.193 232.131 181.537 231.576 181.974 231.128C182.411 230.68 182.913 230.344 183.478 230.12C184.049 229.891 184.651 229.776 185.286 229.776C186.07 229.776 186.758 229.939 187.35 230.264C187.942 230.584 188.449 231.093 188.87 231.792L187.686 232.208C187.329 231.765 186.945 231.44 186.534 231.232C186.129 231.019 185.697 230.912 185.238 230.912C184.635 230.912 184.081 231.08 183.574 231.416C183.067 231.752 182.659 232.232 182.35 232.856C182.046 233.48 181.894 234.224 181.894 235.088C181.894 235.856 182.019 236.539 182.27 237.136C182.521 237.728 182.875 238.195 183.334 238.536C183.798 238.872 184.347 239.04 184.982 239.04C185.467 239.04 185.902 238.928 186.286 238.704C186.675 238.48 186.982 238.144 187.206 237.696C187.43 237.243 187.542 236.672 187.542 235.984H187.926C187.926 236.837 187.825 237.579 187.622 238.208C187.419 238.837 187.094 239.325 186.646 239.672C186.203 240.019 185.622 240.192 184.902 240.192ZM187.766 240L187.542 237.632V235.952L185.014 235.872V235.024H188.758V240H187.766ZM191.663 240V229.952H192.911V240H191.663ZM196.131 240V229.952H202.323V231.024H197.379V234.4H202.035V235.472H197.379V238.912H202.323V240H196.131ZM208.348 240.192C207.676 240.192 207.06 240.072 206.5 239.832C205.94 239.587 205.489 239.227 205.148 238.752C204.806 238.277 204.63 237.691 204.62 236.992H205.836C205.836 237.461 205.95 237.848 206.18 238.152C206.409 238.451 206.713 238.675 207.092 238.824C207.47 238.968 207.884 239.04 208.332 239.04C208.817 239.04 209.238 238.963 209.596 238.808C209.953 238.653 210.228 238.451 210.42 238.2C210.617 237.944 210.716 237.664 210.716 237.36C210.716 236.933 210.585 236.589 210.324 236.328C210.062 236.061 209.676 235.845 209.164 235.68L207.388 235.056C206.556 234.757 205.926 234.416 205.5 234.032C205.073 233.648 204.86 233.109 204.86 232.416C204.86 231.637 205.158 231.003 205.756 230.512C206.358 230.021 207.212 229.776 208.316 229.776C209.34 229.776 210.14 230.013 210.716 230.488C211.292 230.957 211.622 231.589 211.708 232.384H210.476C210.396 231.92 210.177 231.56 209.82 231.304C209.468 231.043 208.966 230.912 208.316 230.912C207.654 230.912 207.14 231.059 206.772 231.352C206.404 231.645 206.22 232.016 206.22 232.464C206.22 232.832 206.334 233.125 206.564 233.344C206.798 233.557 207.164 233.749 207.66 233.92L209.74 234.64C210.46 234.88 211.028 235.216 211.444 235.648C211.865 236.08 212.076 236.64 212.076 237.328C212.076 237.861 211.932 238.344 211.644 238.776C211.361 239.208 210.942 239.552 210.388 239.808C209.833 240.064 209.153 240.192 208.348 240.192Z" fill="#1A1A1A"/>
<rect x="34.5" y="296" width="277" height="80" stroke="#1A1A1A"/>
<path d="M114.991 332V321.952H118.495C119.642 321.952 120.508 322.227 121.095 322.776C121.687 323.32 121.983 324.037 121.983 324.928C121.983 325.808 121.687 326.523 121.095 327.072C120.508 327.616 119.642 327.888 118.495 327.888H116.239V332H114.991ZM120.623 332L117.743 327.44H119.103L122.239 332H120.623ZM116.239 327.008H118.399C119.151 327.008 119.722 326.824 120.111 326.456C120.506 326.083 120.703 325.6 120.703 325.008C120.703 324.4 120.514 323.917 120.135 323.56C119.762 323.203 119.215 323.024 118.495 323.024H116.239V327.008ZM123.588 332L127.044 321.952H128.564L131.94 332H130.628L129.78 329.424H125.78L124.9 332H123.588ZM126.1 328.448H129.46L127.78 323.472L126.1 328.448ZM133.975 321.952H136.919C137.933 321.952 138.813 322.16 139.559 322.576C140.306 322.987 140.885 323.568 141.295 324.32C141.706 325.072 141.911 325.957 141.911 326.976C141.911 327.984 141.706 328.864 141.295 329.616C140.885 330.368 140.306 330.955 139.559 331.376C138.813 331.792 137.933 332 136.919 332H133.975V321.952ZM135.223 323.056V330.912H136.919C137.677 330.912 138.327 330.741 138.871 330.4C139.421 330.059 139.842 329.592 140.135 329C140.434 328.403 140.583 327.728 140.583 326.976C140.583 326.219 140.434 325.547 140.135 324.96C139.842 324.368 139.421 323.904 138.871 323.568C138.327 323.227 137.677 323.056 136.919 323.056H135.223ZM144.538 332V321.952H145.786V332H144.538ZM152.51 332.192C151.625 332.192 150.862 331.971 150.222 331.528C149.582 331.08 149.089 330.461 148.742 329.672C148.395 328.877 148.222 327.957 148.222 326.912C148.222 325.797 148.409 324.859 148.782 324.096C149.161 323.333 149.673 322.757 150.318 322.368C150.969 321.973 151.699 321.776 152.51 321.776C153.582 321.776 154.443 322.045 155.094 322.584C155.75 323.117 156.201 323.813 156.446 324.672L155.102 324.944C154.894 324.32 154.561 323.824 154.102 323.456C153.649 323.083 153.118 322.896 152.51 322.896C151.982 322.896 151.494 323.048 151.046 323.352C150.603 323.651 150.246 324.099 149.974 324.696C149.702 325.293 149.566 326.032 149.566 326.912C149.566 327.712 149.673 328.424 149.886 329.048C150.105 329.672 150.43 330.163 150.862 330.52C151.299 330.877 151.849 331.056 152.51 331.056C153.305 331.056 153.934 330.843 154.398 330.416C154.867 329.989 155.102 329.429 155.102 328.736H156.462C156.462 329.456 156.297 330.075 155.966 330.592C155.635 331.104 155.171 331.499 154.574 331.776C153.982 332.053 153.294 332.192 152.51 332.192ZM157.635 332L161.091 321.952H162.611L165.987 332H164.675L163.827 329.424H159.827L158.947 332H157.635ZM160.147 328.448H163.507L161.827 323.472L160.147 328.448ZM169.27 321.952V330.912H173.75V332H168.022V321.952H169.27ZM179.303 321.952H182.247C183.261 321.952 184.141 322.16 184.887 322.576C185.634 322.987 186.213 323.568 186.623 324.32C187.034 325.072 187.239 325.957 187.239 326.976C187.239 327.984 187.034 328.864 186.623 329.616C186.213 330.368 185.634 330.955 184.887 331.376C184.141 331.792 183.261 332 182.247 332H179.303V321.952ZM180.551 323.056V330.912H182.247C183.005 330.912 183.655 330.741 184.199 330.4C184.749 330.059 185.17 329.592 185.463 329C185.762 328.403 185.911 327.728 185.911 326.976C185.911 326.219 185.762 325.547 185.463 324.96C185.17 324.368 184.749 323.904 184.199 323.568C183.655 323.227 183.005 323.056 182.247 323.056H180.551ZM189.85 332V321.952H196.042V323.024H191.098V326.4H195.754V327.472H191.098V330.912H196.042V332H189.85ZM202.066 332.192C201.394 332.192 200.778 332.072 200.218 331.832C199.658 331.587 199.208 331.227 198.866 330.752C198.525 330.277 198.349 329.691 198.338 328.992H199.554C199.554 329.461 199.669 329.848 199.898 330.152C200.128 330.451 200.432 330.675 200.81 330.824C201.189 330.968 201.602 331.04 202.05 331.04C202.536 331.04 202.957 330.963 203.314 330.808C203.672 330.653 203.946 330.451 204.138 330.2C204.336 329.944 204.434 329.664 204.434 329.36C204.434 328.933 204.304 328.589 204.042 328.328C203.781 328.061 203.394 327.845 202.882 327.68L201.106 327.056C200.274 326.757 199.645 326.416 199.218 326.032C198.792 325.648 198.578 325.109 198.578 324.416C198.578 323.637 198.877 323.003 199.474 322.512C200.077 322.021 200.93 321.776 202.034 321.776C203.058 321.776 203.858 322.013 204.434 322.488C205.01 322.957 205.341 323.589 205.426 324.384H204.194C204.114 323.92 203.896 323.56 203.538 323.304C203.186 323.043 202.685 322.912 202.034 322.912C201.373 322.912 200.858 323.059 200.49 323.352C200.122 323.645 199.938 324.016 199.938 324.464C199.938 324.832 200.053 325.125 200.282 325.344C200.517 325.557 200.882 325.749 201.378 325.92L203.458 326.64C204.178 326.88 204.746 327.216 205.162 327.648C205.584 328.08 205.794 328.64 205.794 329.328C205.794 329.861 205.65 330.344 205.362 330.776C205.08 331.208 204.661 331.552 204.106 331.808C203.552 332.064 202.872 332.192 202.066 332.192ZM208.522 332V321.952H209.77V332H208.522ZM216.543 332.192C215.743 332.192 215.015 331.984 214.359 331.568C213.703 331.152 213.18 330.563 212.791 329.8C212.401 329.037 212.207 328.133 212.207 327.088C212.207 326.219 212.332 325.453 212.583 324.792C212.833 324.131 213.177 323.576 213.615 323.128C214.052 322.68 214.553 322.344 215.119 322.12C215.689 321.891 216.292 321.776 216.927 321.776C217.711 321.776 218.399 321.939 218.991 322.264C219.583 322.584 220.089 323.093 220.511 323.792L219.327 324.208C218.969 323.765 218.585 323.44 218.175 323.232C217.769 323.019 217.337 322.912 216.879 322.912C216.276 322.912 215.721 323.08 215.215 323.416C214.708 323.752 214.3 324.232 213.991 324.856C213.687 325.48 213.535 326.224 213.535 327.088C213.535 327.856 213.66 328.539 213.911 329.136C214.161 329.728 214.516 330.195 214.975 330.536C215.439 330.872 215.988 331.04 216.623 331.04C217.108 331.04 217.543 330.928 217.927 330.704C218.316 330.48 218.623 330.144 218.847 329.696C219.071 329.243 219.183 328.672 219.183 327.984H219.567C219.567 328.837 219.465 329.579 219.263 330.208C219.06 330.837 218.735 331.325 218.287 331.672C217.844 332.019 217.263 332.192 216.543 332.192ZM219.407 332L219.183 329.632V327.952L216.655 327.872V327.024H220.399V332H219.407ZM223.287 321.952H224.775L229.879 330.224H229.767V321.952H231.015V332H229.623L224.343 323.456H224.535V332H223.287V321.952ZM126.857 351V340.952H130.089C131.193 340.952 132.036 341.232 132.617 341.792C133.204 342.347 133.497 343.101 133.497 344.056C133.497 345 133.204 345.749 132.617 346.304C132.036 346.853 131.193 347.128 130.089 347.128H128.121V351H126.857ZM128.121 346.04H130.089C130.788 346.04 131.316 345.861 131.673 345.504C132.036 345.147 132.217 344.664 132.217 344.056C132.217 343.437 132.036 342.944 131.673 342.576C131.316 342.208 130.788 342.024 130.089 342.024H128.121V346.04ZM135.733 351V340.952H141.925V342.024H136.981V345.4H141.637V346.472H136.981V349.912H141.925V351H135.733ZM144.733 340.952H147.677C148.69 340.952 149.57 341.16 150.317 341.576C151.064 341.987 151.642 342.568 152.053 343.32C152.464 344.072 152.669 344.957 152.669 345.976C152.669 346.984 152.464 347.864 152.053 348.616C151.642 349.368 151.064 349.955 150.317 350.376C149.57 350.792 148.69 351 147.677 351H144.733V340.952ZM145.981 342.056V349.912H147.677C148.434 349.912 149.085 349.741 149.629 349.4C150.178 349.059 150.6 348.592 150.893 348C151.192 347.403 151.341 346.728 151.341 345.976C151.341 345.219 151.192 344.547 150.893 343.96C150.6 343.368 150.178 342.904 149.629 342.568C149.085 342.227 148.434 342.056 147.677 342.056H145.981ZM154.096 351L157.552 340.952H159.072L162.448 351H161.136L160.288 348.424H156.288L155.408 351H154.096ZM156.608 347.448H159.968L158.288 342.472L156.608 347.448ZM168.019 351.192C167.219 351.192 166.491 350.984 165.835 350.568C165.179 350.152 164.656 349.563 164.267 348.8C163.878 348.037 163.683 347.133 163.683 346.088C163.683 345.219 163.808 344.453 164.059 343.792C164.31 343.131 164.654 342.576 165.091 342.128C165.528 341.68 166.03 341.344 166.595 341.12C167.166 340.891 167.768 340.776 168.403 340.776C169.187 340.776 169.875 340.939 170.467 341.264C171.059 341.584 171.566 342.093 171.987 342.792L170.803 343.208C170.446 342.765 170.062 342.44 169.651 342.232C169.246 342.019 168.814 341.912 168.355 341.912C167.752 341.912 167.198 342.08 166.691 342.416C166.184 342.752 165.776 343.232 165.467 343.856C165.163 344.48 165.011 345.224 165.011 346.088C165.011 346.856 165.136 347.539 165.387 348.136C165.638 348.728 165.992 349.195 166.451 349.536C166.915 349.872 167.464 350.04 168.099 350.04C168.584 350.04 169.019 349.928 169.403 349.704C169.792 349.48 170.099 349.144 170.323 348.696C170.547 348.243 170.659 347.672 170.659 346.984H171.043C171.043 347.837 170.942 348.579 170.739 349.208C170.536 349.837 170.211 350.325 169.763 350.672C169.32 351.019 168.739 351.192 168.019 351.192ZM170.883 351L170.659 348.632V346.952L168.131 346.872V346.024H171.875V351H170.883ZM178.332 351.192C177.5 351.192 176.756 351 176.1 350.616C175.444 350.232 174.927 349.656 174.548 348.888C174.169 348.115 173.98 347.149 173.98 345.992C173.98 344.819 174.169 343.848 174.548 343.08C174.927 342.307 175.444 341.731 176.1 341.352C176.756 340.968 177.5 340.776 178.332 340.776C179.164 340.776 179.908 340.968 180.564 341.352C181.22 341.736 181.737 342.315 182.116 343.088C182.495 343.861 182.684 344.829 182.684 345.992C182.684 347.16 182.495 348.131 182.116 348.904C181.737 349.672 181.22 350.245 180.564 350.624C179.908 351.003 179.164 351.192 178.332 351.192ZM178.332 350.04C179.276 350.04 180.02 349.696 180.564 349.008C181.113 348.32 181.388 347.309 181.388 345.976C181.388 344.669 181.113 343.664 180.564 342.96C180.02 342.251 179.276 341.896 178.332 341.896C177.399 341.896 176.655 342.251 176.1 342.96C175.551 343.669 175.276 344.68 175.276 345.992C175.276 347.32 175.551 348.328 176.1 349.016C176.655 349.699 177.399 350.04 178.332 350.04ZM188.644 351.192C187.844 351.192 187.116 350.984 186.46 350.568C185.804 350.152 185.281 349.563 184.892 348.8C184.503 348.037 184.308 347.133 184.308 346.088C184.308 345.219 184.433 344.453 184.684 343.792C184.935 343.131 185.279 342.576 185.716 342.128C186.153 341.68 186.655 341.344 187.22 341.12C187.791 340.891 188.393 340.776 189.028 340.776C189.812 340.776 190.5 340.939 191.092 341.264C191.684 341.584 192.191 342.093 192.612 342.792L191.428 343.208C191.071 342.765 190.687 342.44 190.276 342.232C189.871 342.019 189.439 341.912 188.98 341.912C188.377 341.912 187.823 342.08 187.316 342.416C186.809 342.752 186.401 343.232 186.092 343.856C185.788 344.48 185.636 345.224 185.636 346.088C185.636 346.856 185.761 347.539 186.012 348.136C186.263 348.728 186.617 349.195 187.076 349.536C187.54 349.872 188.089 350.04 188.724 350.04C189.209 350.04 189.644 349.928 190.028 349.704C190.417 349.48 190.724 349.144 190.948 348.696C191.172 348.243 191.284 347.672 191.284 346.984H191.668C191.668 347.837 191.567 348.579 191.364 349.208C191.161 349.837 190.836 350.325 190.388 350.672C189.945 351.019 189.364 351.192 188.644 351.192ZM191.508 351L191.284 348.632V346.952L188.756 346.872V346.024H192.5V351H191.508ZM195.405 351V340.952H196.653V351H195.405ZM199.873 351V340.952H206.065V342.024H201.121V345.4H205.777V346.472H201.121V349.912H206.065V351H199.873ZM212.09 351.192C211.418 351.192 210.802 351.072 210.242 350.832C209.682 350.587 209.231 350.227 208.89 349.752C208.548 349.277 208.372 348.691 208.362 347.992H209.578C209.578 348.461 209.692 348.848 209.922 349.152C210.151 349.451 210.455 349.675 210.834 349.824C211.212 349.968 211.626 350.04 212.074 350.04C212.559 350.04 212.98 349.963 213.338 349.808C213.695 349.653 213.97 349.451 214.162 349.2C214.359 348.944 214.458 348.664 214.458 348.36C214.458 347.933 214.327 347.589 214.066 347.328C213.804 347.061 213.418 346.845 212.906 346.68L211.13 346.056C210.298 345.757 209.668 345.416 209.242 345.032C208.815 344.648 208.602 344.109 208.602 343.416C208.602 342.637 208.9 342.003 209.498 341.512C210.1 341.021 210.954 340.776 212.058 340.776C213.082 340.776 213.882 341.013 214.458 341.488C215.034 341.957 215.364 342.589 215.45 343.384H214.218C214.138 342.92 213.919 342.56 213.562 342.304C213.21 342.043 212.708 341.912 212.058 341.912C211.396 341.912 210.882 342.059 210.514 342.352C210.146 342.645 209.962 343.016 209.962 343.464C209.962 343.832 210.076 344.125 210.306 344.344C210.54 344.557 210.906 344.749 211.402 344.92L213.482 345.64C214.202 345.88 214.77 346.216 215.186 346.648C215.607 347.08 215.818 347.64 215.818 348.328C215.818 348.861 215.674 349.344 215.386 349.776C215.103 350.208 214.684 350.552 214.13 350.808C213.575 351.064 212.895 351.192 212.09 351.192Z" fill="#1A1A1A"/>
<path d="M436.707 225.707C437.098 225.317 437.098 224.683 436.707 224.293L430.343 217.929C429.953 217.538 429.319 217.538 428.929 217.929C428.538 218.319 428.538 218.953 428.929 219.343L434.586 225L428.929 230.657C428.538 231.047 428.538 231.681 428.929 232.071C429.319 232.462 429.953 232.462 430.343 232.071L436.707 225.707ZM350 226H436V224H350V226Z" fill="#1A1A1A"/>
</svg>
