<svg width="137" height="51" viewBox="0 0 137 51" fill="none" xmlns="http://www.w3.org/2000/svg">
<path d="M93.6021 23.2838C93.5882 23.2699 93.5761 23.256 93.5657 23.2421C93.5622 23.2421 93.5605 23.2421 93.5605 23.2421C93.5605 23.2421 93.5605 23.2404 93.5605 23.2369L89.8171 18.421V22.8621C89.8171 23.0321 89.7563 23.1762 89.6349 23.2942C89.5168 23.4157 89.3728 23.4764 89.2027 23.4764C89.0327 23.4764 88.8886 23.4157 88.7706 23.2942C88.6491 23.1762 88.5884 23.0321 88.5884 22.8621V16.6248C88.5884 16.4929 88.6266 16.3749 88.7029 16.2708C88.7793 16.1632 88.8799 16.0886 89.0049 16.0469C89.1264 16.0018 89.2513 15.9983 89.3797 16.0365C89.5047 16.0747 89.6071 16.1458 89.6869 16.25L93.4303 21.0711V16.6248C93.4303 16.4547 93.4893 16.3107 93.6073 16.1927C93.7288 16.0712 93.8746 16.0105 94.0447 16.0105C94.2147 16.0105 94.3588 16.0712 94.4768 16.1927C94.5983 16.3107 94.659 16.4547 94.659 16.6248V22.8725C94.659 22.8794 94.6573 22.8898 94.6538 22.9037C94.6538 22.9176 94.6538 22.9263 94.6538 22.9297C94.6538 22.9367 94.6521 22.9471 94.6486 22.961C94.6486 22.9749 94.6469 22.9853 94.6434 22.9922C94.6434 22.9922 94.6417 23.0009 94.6382 23.0183C94.6347 23.0356 94.6312 23.046 94.6278 23.0495C94.6278 23.053 94.6243 23.0616 94.6174 23.0755C94.6139 23.0894 94.6104 23.0998 94.607 23.1068C94.607 23.1068 94.6035 23.1154 94.5965 23.1328C94.5861 23.1502 94.5809 23.1588 94.5809 23.1588C94.5775 23.1658 94.5722 23.1762 94.5653 23.1901L94.5497 23.2057C94.5462 23.2126 94.5393 23.223 94.5289 23.2369C94.5184 23.2508 94.5132 23.2578 94.5132 23.2578C94.5098 23.2612 94.5028 23.2682 94.4924 23.2786C94.482 23.2925 94.4751 23.2994 94.4716 23.2994C94.4716 23.3029 94.4646 23.3098 94.4508 23.3202C94.4404 23.3306 94.4317 23.3376 94.4247 23.3411C94.4351 23.3341 94.4334 23.3358 94.4195 23.3463C94.4195 23.3463 94.4178 23.348 94.4143 23.3515C94.3866 23.3723 94.3605 23.3896 94.3362 23.4035C94.3327 23.4035 94.331 23.4035 94.331 23.4035C94.3032 23.4174 94.2755 23.4296 94.2477 23.44C94.2338 23.4469 94.2304 23.4487 94.2373 23.4452C94.2095 23.4556 94.18 23.4625 94.1488 23.466C94.1488 23.466 94.1436 23.4677 94.1332 23.4712C94.1019 23.4747 94.0724 23.4764 94.0447 23.4764C94.0238 23.4764 94.0013 23.4747 93.977 23.4712C93.9839 23.4747 93.9805 23.4747 93.9666 23.4712C93.9457 23.4677 93.9284 23.4643 93.9145 23.4608C93.918 23.4643 93.911 23.4625 93.8937 23.4556C93.8763 23.4521 93.8624 23.4487 93.852 23.4452C93.8486 23.4452 93.8416 23.4417 93.8312 23.4348C93.8138 23.4313 93.8 23.4261 93.7896 23.4191C93.7826 23.4191 93.7757 23.4157 93.7687 23.4087C93.7548 23.4018 93.7427 23.3966 93.7323 23.3931C93.7219 23.3862 93.7149 23.381 93.7115 23.3775C93.701 23.3706 93.6889 23.3619 93.675 23.3515C93.6646 23.3445 93.6577 23.3393 93.6542 23.3358C93.6368 23.322 93.6212 23.3081 93.6073 23.2942C93.6073 23.2942 93.6056 23.2925 93.6021 23.289C93.6021 23.289 93.6021 23.2873 93.6021 23.2838Z" fill="black"/>
<path d="M85.6256 23.0288C85.0806 23.3134 84.5027 23.4557 83.8918 23.4557C82.8644 23.4557 81.9863 23.0913 81.2574 22.3624C80.5285 21.6335 80.1641 20.7553 80.1641 19.7279C80.1641 18.7005 80.5285 17.8241 81.2574 17.0987C81.9863 16.3698 82.8644 16.0054 83.8918 16.0054C84.7353 16.0054 85.4902 16.2622 86.1566 16.7759C86.292 16.88 86.3718 17.0171 86.3961 17.1872C86.4169 17.3538 86.3753 17.5048 86.2711 17.6402C86.167 17.7755 86.0317 17.8536 85.865 17.8745C85.695 17.8988 85.5423 17.8588 85.4069 17.7547C84.9591 17.4111 84.4541 17.2393 83.8918 17.2393C83.2046 17.2393 82.6163 17.4822 82.1269 17.9682C81.6409 18.4576 81.398 19.0442 81.398 19.7279C81.398 20.4152 81.6409 21.0035 82.1269 21.4929C82.6163 21.9788 83.2046 22.2218 83.8918 22.2218C84.534 22.2218 85.0928 22.0049 85.5683 21.571C85.5752 21.564 85.5874 21.5536 85.6047 21.5398L85.6099 20.1757H83.5742C83.4007 20.1757 83.2549 20.1167 83.1369 19.9987C83.0154 19.8772 82.9547 19.7314 82.9547 19.5613C82.9547 19.3913 83.0154 19.2455 83.1369 19.124C83.2549 19.0025 83.4007 18.9418 83.5742 18.9418H86.2295C86.3996 18.9418 86.5453 19.0025 86.6668 19.124C86.7883 19.2455 86.8491 19.3913 86.8491 19.5613L86.8334 22.8622C86.8334 23.0322 86.7727 23.1763 86.6512 23.2943C86.5332 23.4158 86.3892 23.4765 86.2191 23.4765H86.2139C86.075 23.4765 85.9501 23.4331 85.839 23.3464C85.7314 23.2631 85.6603 23.1572 85.6256 23.0288Z" fill="black"/>
<path d="M78.399 23.2943C78.281 23.4158 78.137 23.4765 77.9669 23.4765C77.7968 23.4765 77.6528 23.4158 77.5348 23.2943C77.4133 23.1763 77.3525 23.0323 77.3525 22.8622V16.651C77.3525 16.4809 77.4133 16.3369 77.5348 16.2188C77.6528 16.0974 77.7968 16.0366 77.9669 16.0366C78.137 16.0366 78.281 16.0974 78.399 16.2188C78.5205 16.3369 78.5812 16.4809 78.5812 16.651V22.8622C78.5812 23.0323 78.5205 23.1763 78.399 23.2943Z" fill="black"/>
<path d="M75.0873 19.8736C75.4587 20.2658 75.6323 20.7257 75.608 21.2532C75.5802 21.8745 75.332 22.4004 74.8635 22.8308C74.3914 23.2612 73.8291 23.4764 73.1766 23.4764C72.6108 23.4764 72.1041 23.3549 71.6563 23.1119C71.1184 22.8204 70.7765 22.3969 70.6307 21.8416C70.589 21.6784 70.6099 21.524 70.6932 21.3782C70.7799 21.2324 70.9049 21.1387 71.068 21.0971C71.2312 21.0554 71.3856 21.0762 71.5314 21.1595C71.6772 21.2463 71.7709 21.3713 71.8125 21.5344C71.875 21.7669 72.0451 21.9492 72.3228 22.0811C72.5727 22.1956 72.8573 22.2529 73.1766 22.2529C73.5029 22.2529 73.7823 22.1505 74.0148 21.9457C74.2509 21.7444 74.3758 21.4945 74.3897 21.196C74.3966 21.0155 74.3324 20.8541 74.1971 20.7118C73.9819 20.4827 73.6209 20.3647 73.1141 20.3577H73.1089C73.095 20.3577 73.0916 20.3577 73.0985 20.3577C73.095 20.3577 73.0916 20.3577 73.0881 20.3577C72.2377 20.3439 71.5869 20.0992 71.1357 19.6236C70.7643 19.228 70.5908 18.7681 70.6151 18.244C70.6428 17.6192 70.891 17.0916 71.3596 16.6612C71.8282 16.2308 72.3904 16.0156 73.0464 16.0156C73.6122 16.0156 74.119 16.1371 74.5667 16.3801C75.1047 16.6716 75.4466 17.0951 75.5924 17.6504C75.634 17.8136 75.6115 17.968 75.5247 18.1138C75.4414 18.2596 75.3182 18.3533 75.155 18.3949C74.9919 18.4366 74.8374 18.4158 74.6917 18.3325C74.5459 18.2457 74.4522 18.1207 74.4105 17.9576C74.348 17.7251 74.1762 17.5428 73.8951 17.4109C73.6487 17.2964 73.3658 17.2391 73.0464 17.2391C72.7202 17.2391 72.439 17.3415 72.203 17.5463C71.9705 17.7511 71.8472 18.001 71.8334 18.296C71.8264 18.4765 71.8906 18.6396 72.026 18.7854C72.2412 19.011 72.6022 19.1273 73.1089 19.1342H73.135C73.9853 19.1481 74.6361 19.3946 75.0873 19.8736Z" fill="black"/>
<path d="M65.773 22.2424H68.9228C69.0929 22.2424 69.237 22.3032 69.355 22.4247C69.4764 22.5462 69.5372 22.6919 69.5372 22.862C69.5372 23.0321 69.4764 23.1761 69.355 23.2941C69.237 23.4156 69.0929 23.4764 68.9228 23.4764H65.1534C64.9833 23.4764 64.8393 23.4156 64.7213 23.2941C64.5998 23.1761 64.5391 23.0321 64.5391 22.862V16.6196C64.5391 16.446 64.5998 16.3002 64.7213 16.1822C64.8393 16.0607 64.9833 16 65.1534 16H65.1586L68.9228 16.0104C69.0929 16.0104 69.2387 16.0712 69.3602 16.1926C69.4782 16.3141 69.5372 16.4599 69.5372 16.63C69.5372 16.8 69.4764 16.9441 69.355 17.0621C69.237 17.1836 69.0929 17.2443 68.9228 17.2443H68.9176L65.773 17.2339V19.1238H68.043C68.213 19.1238 68.3588 19.1828 68.4803 19.3008C68.6018 19.4223 68.6625 19.5681 68.6625 19.7382C68.6625 19.9083 68.6018 20.054 68.4803 20.1755C68.3588 20.2935 68.213 20.3525 68.043 20.3525H65.773V22.2424Z" fill="black"/>
<path d="M58.2339 17.2443V22.2372L59.1867 22.2216C59.8774 22.2216 60.4657 21.9787 60.9516 21.4927C61.4376 21.0068 61.6805 20.4202 61.6805 19.733C61.6805 19.0492 61.4376 18.4644 60.9516 17.9784C60.4657 17.489 59.8791 17.2443 59.1919 17.2443H58.2339ZM57.6248 23.4764H57.6144C57.4477 23.4764 57.3037 23.4174 57.1822 23.2993C57.0607 23.1779 57 23.0321 57 22.862V16.63C57 16.4599 57.0607 16.3141 57.1822 16.1926C57.3002 16.0746 57.4443 16.0156 57.6144 16.0156H59.1919C60.2193 16.0156 61.0974 16.3783 61.8263 17.1038C62.5517 17.8327 62.9144 18.7091 62.9144 19.733C62.9144 20.7604 62.5517 21.6368 61.8263 22.3622C61.0974 23.0911 60.2193 23.4555 59.1919 23.4555L57.6248 23.4764Z" fill="black"/>
<path d="M24 2.02051C24.8701 1.51818 25.9295 1.48725 26.8232 1.92676L27 2.02051L45.084 12.4609C46.0121 12.9968 46.584 13.9878 46.584 15.0596V35.9404C46.584 36.9451 46.0813 37.8783 45.2539 38.4326L45.084 38.5391L27 48.9795C26.1299 49.4818 25.0705 49.5128 24.1768 49.0732L24 48.9795L5.91602 38.5391C4.98786 38.0032 4.41602 37.0122 4.41602 35.9404V15.0596C4.41602 14.055 4.91874 13.1217 5.74609 12.5674L5.91602 12.4609L24 2.02051Z" stroke="black" stroke-width="2"/>
<path d="M38.5 33L38.5 38" stroke="black" stroke-width="1.66667" stroke-linecap="round"/>
<path d="M41 35.5L36 35.5" stroke="black" stroke-width="1.66667" stroke-linecap="round"/>
<path d="M11.5 18L11.5 23" stroke="black" stroke-width="1.66667" stroke-linecap="round"/>
<path d="M14 20.5L9 20.5" stroke="black" stroke-width="1.66667" stroke-linecap="round"/>
<path d="M23 30L18 30" stroke="black" stroke-width="1.66667" stroke-linecap="round"/>
<path d="M32 11L27 11" stroke="black" stroke-width="1.66667" stroke-linecap="round"/>
<circle cx="21" cy="21" r="1" fill="black"/>
<circle cx="12" cy="30" r="1" fill="black"/>
<circle cx="25" cy="45" r="1" fill="black"/>
<path d="M58.0104 34.8177C57.8924 34.9392 57.7483 35 57.5781 35C57.408 35 57.2639 34.9392 57.1458 34.8177C57.0243 34.6997 56.9635 34.5556 56.9635 34.3854V28.1719C56.9635 28.0017 57.0243 27.8576 57.1458 27.7396C57.2639 27.6181 57.408 27.5573 57.5781 27.5573C57.7483 27.5573 57.8924 27.6181 58.0104 27.7396C58.1319 27.8576 58.1927 28.0017 58.1927 28.1719V34.3854C58.1927 34.5556 58.1319 34.6997 58.0104 34.8177ZM65.0317 34.8073C65.0178 34.7934 65.0056 34.7795 64.9952 34.7656C64.9917 34.7656 64.99 34.7656 64.99 34.7656C64.99 34.7656 64.99 34.7639 64.99 34.7604L61.2452 29.9427V34.3854C61.2452 34.5556 61.1844 34.6997 61.0629 34.8177C60.9449 34.9392 60.8008 35 60.6306 35C60.4605 35 60.3164 34.9392 60.1983 34.8177C60.0768 34.6997 60.016 34.5556 60.016 34.3854V28.1458C60.016 28.0139 60.0542 27.8958 60.1306 27.7917C60.207 27.684 60.3077 27.6094 60.4327 27.5677C60.5542 27.5226 60.6792 27.5191 60.8077 27.5573C60.9327 27.5955 61.0351 27.6667 61.115 27.7708L64.8598 32.5937V28.1458C64.8598 27.9757 64.9188 27.8316 65.0369 27.7135C65.1584 27.592 65.3042 27.5312 65.4744 27.5312C65.6445 27.5312 65.7886 27.592 65.9067 27.7135C66.0282 27.8316 66.089 27.9757 66.089 28.1458V34.3958C66.089 34.4028 66.0872 34.4132 66.0838 34.4271C66.0838 34.441 66.0838 34.4497 66.0838 34.4531C66.0838 34.4601 66.082 34.4705 66.0785 34.4844C66.0785 34.4983 66.0768 34.5087 66.0733 34.5156C66.0733 34.5156 66.0716 34.5243 66.0681 34.5417C66.0647 34.559 66.0612 34.5694 66.0577 34.5729C66.0577 34.5764 66.0542 34.5851 66.0473 34.599C66.0438 34.6128 66.0403 34.6233 66.0369 34.6302C66.0369 34.6302 66.0334 34.6389 66.0265 34.6562C66.016 34.6736 66.0108 34.6823 66.0108 34.6823C66.0074 34.6892 66.0022 34.6997 65.9952 34.7135L65.9796 34.7292C65.9761 34.7361 65.9692 34.7465 65.9588 34.7604C65.9483 34.7743 65.9431 34.7812 65.9431 34.7812C65.9397 34.7847 65.9327 34.7917 65.9223 34.8021C65.9119 34.816 65.9049 34.8229 65.9015 34.8229C65.9015 34.8264 65.8945 34.8333 65.8806 34.8437C65.8702 34.8542 65.8615 34.8611 65.8546 34.8646C65.865 34.8576 65.8633 34.8594 65.8494 34.8698C65.8494 34.8698 65.8476 34.8715 65.8442 34.875C65.8164 34.8958 65.7903 34.9132 65.766 34.9271C65.7626 34.9271 65.7608 34.9271 65.7608 34.9271C65.7331 34.941 65.7053 34.9531 65.6775 34.9635C65.6636 34.9705 65.6601 34.9722 65.6671 34.9687C65.6393 34.9792 65.6098 34.9861 65.5785 34.9896C65.5785 34.9896 65.5733 34.9913 65.5629 34.9948C65.5317 34.9983 65.5022 35 65.4744 35C65.4535 35 65.431 34.9983 65.4067 34.9948C65.4136 34.9983 65.4101 34.9983 65.3963 34.9948C65.3754 34.9913 65.3581 34.9878 65.3442 34.9844C65.3476 34.9878 65.3407 34.9861 65.3233 34.9792C65.306 34.9757 65.2921 34.9722 65.2817 34.9687C65.2782 34.9687 65.2713 34.9653 65.2608 34.9583C65.2435 34.9549 65.2296 34.9497 65.2192 34.9427C65.2122 34.9427 65.2053 34.9392 65.1983 34.9323C65.1844 34.9253 65.1723 34.9201 65.1619 34.9167C65.1515 34.9097 65.1445 34.9045 65.141 34.901C65.1306 34.8941 65.1185 34.8854 65.1046 34.875C65.0942 34.8681 65.0872 34.8628 65.0838 34.8594C65.0664 34.8455 65.0508 34.8316 65.0369 34.8177C65.0369 34.8177 65.0351 34.816 65.0317 34.8125C65.0317 34.8125 65.0317 34.8108 65.0317 34.8073ZM69.3602 34.3854V28.75H67.8133C67.6432 28.75 67.4974 28.6892 67.3758 28.5677C67.2578 28.4497 67.1988 28.3056 67.1988 28.1354C67.1988 27.9653 67.2578 27.8212 67.3758 27.7031C67.4974 27.5816 67.6432 27.5208 67.8133 27.5208H72.1415C72.3081 27.5208 72.4522 27.5816 72.5738 27.7031C72.6918 27.8212 72.7508 27.9653 72.7508 28.1354C72.7508 28.3056 72.6918 28.4497 72.5738 28.5677C72.4522 28.6892 72.3081 28.75 72.1415 28.75H70.5894V34.3854C70.5894 34.5556 70.5286 34.7014 70.4071 34.8229C70.289 34.941 70.1449 35 69.9748 35C69.8047 35 69.6606 34.941 69.5425 34.8229C69.421 34.7014 69.3602 34.5556 69.3602 34.3854ZM74.9231 33.7656H78.0742C78.2443 33.7656 78.3884 33.8264 78.5065 33.9479C78.628 34.0694 78.6888 34.2153 78.6888 34.3854C78.6888 34.5556 78.628 34.6997 78.5065 34.8177C78.3884 34.9392 78.2443 35 78.0742 35H74.3033C74.1332 35 73.9891 34.9392 73.871 34.8177C73.7495 34.6997 73.6888 34.5556 73.6888 34.3854V28.1406C73.6888 27.967 73.7495 27.8212 73.871 27.7031C73.9891 27.5816 74.1332 27.5208 74.3033 27.5208H74.3085L78.0742 27.5312C78.2443 27.5312 78.3901 27.592 78.5117 27.7135C78.6297 27.8351 78.6888 27.9809 78.6888 28.151C78.6888 28.3212 78.628 28.4653 78.5065 28.5833C78.3884 28.7049 78.2443 28.7656 78.0742 28.7656H78.069L74.9231 28.7552V30.6458H77.194C77.3641 30.6458 77.5099 30.7049 77.6315 30.8229C77.753 30.9444 77.8138 31.0903 77.8138 31.2604C77.8138 31.4306 77.753 31.5764 77.6315 31.6979C77.5099 31.816 77.3641 31.875 77.194 31.875H74.9231V33.7656ZM80.085 27.7135C80.2031 27.592 80.3472 27.5312 80.5173 27.5312C80.6874 27.5312 80.8315 27.592 80.9496 27.7135C81.0711 27.8316 81.1319 27.9757 81.1319 28.1458V33.7708H83.8871C84.0572 33.7708 84.2031 33.8316 84.3246 33.9531C84.4426 34.0712 84.5017 34.2153 84.5017 34.3854C84.5017 34.5556 84.4426 34.6997 84.3246 34.8177C84.2031 34.9392 84.0572 35 83.8871 35H80.5173C80.3472 35 80.2031 34.9392 80.085 34.8177C79.9635 34.6997 79.9027 34.5556 79.9027 34.3854V28.1458C79.9027 27.9757 79.9635 27.8316 80.085 27.7135ZM85.6271 27.7135C85.7451 27.592 85.8892 27.5312 86.0594 27.5312C86.2295 27.5312 86.3736 27.592 86.4917 27.7135C86.6132 27.8316 86.674 27.9757 86.674 28.1458V33.7708H89.4292C89.5993 33.7708 89.7451 33.8316 89.8667 33.9531C89.9847 34.0712 90.0438 34.2153 90.0438 34.3854C90.0438 34.5556 89.9847 34.6997 89.8667 34.8177C89.7451 34.9392 89.5993 35 89.4292 35H86.0594C85.8892 35 85.7451 34.9392 85.6271 34.8177C85.5056 34.6997 85.4448 34.5556 85.4448 34.3854V28.1458C85.4448 27.9757 85.5056 27.8316 85.6271 27.7135ZM92.0233 34.8177C91.9053 34.9392 91.7612 35 91.591 35C91.4209 35 91.2768 34.9392 91.1587 34.8177C91.0372 34.6997 90.9765 34.5556 90.9765 34.3854V28.1719C90.9765 28.0017 91.0372 27.8576 91.1587 27.7396C91.2768 27.6181 91.4209 27.5573 91.591 27.5573C91.7612 27.5573 91.9053 27.6181 92.0233 27.7396C92.1449 27.8576 92.2056 28.0017 92.2056 28.1719V34.3854C92.2056 34.5556 92.1449 34.6997 92.0233 34.8177ZM99.0394 34.5521C98.4942 34.8368 97.9161 34.9792 97.305 34.9792C96.2772 34.9792 95.3988 34.6146 94.6696 33.8854C93.9404 33.1562 93.5758 32.2778 93.5758 31.25C93.5758 30.2222 93.9404 29.3455 94.6696 28.6198C95.3988 27.8906 96.2772 27.526 97.305 27.526C98.1488 27.526 98.904 27.783 99.5706 28.2969C99.706 28.401 99.7859 28.5382 99.8102 28.7083C99.831 28.875 99.7894 29.026 99.6852 29.1615C99.581 29.2969 99.4456 29.375 99.279 29.3958C99.1088 29.4201 98.956 29.3802 98.8206 29.276C98.3727 28.9323 97.8675 28.7604 97.305 28.7604C96.6175 28.7604 96.029 29.0035 95.5394 29.4896C95.0533 29.9792 94.8102 30.566 94.8102 31.25C94.8102 31.9375 95.0533 32.526 95.5394 33.0156C96.029 33.5017 96.6175 33.7448 97.305 33.7448C97.9474 33.7448 98.5064 33.5278 98.9821 33.0937C98.989 33.0868 99.0012 33.0764 99.0185 33.0625L99.0238 31.6979H96.9873C96.8137 31.6979 96.6678 31.6389 96.5498 31.5208C96.4283 31.3993 96.3675 31.2535 96.3675 31.0833C96.3675 30.9132 96.4283 30.7674 96.5498 30.6458C96.6678 30.5243 96.8137 30.4635 96.9873 30.4635H99.6435C99.8137 30.4635 99.9595 30.5243 100.081 30.6458C100.203 30.7674 100.263 30.9132 100.263 31.0833L100.248 34.3854C100.248 34.5556 100.187 34.6997 100.065 34.8177C99.9474 34.9392 99.8033 35 99.6331 35H99.6279C99.489 35 99.364 34.9566 99.2529 34.8698C99.1453 34.7865 99.0741 34.6806 99.0394 34.5521ZM103.019 33.7656H106.17C106.34 33.7656 106.484 33.8264 106.602 33.9479C106.724 34.0694 106.785 34.2153 106.785 34.3854C106.785 34.5556 106.724 34.6997 106.602 34.8177C106.484 34.9392 106.34 35 106.17 35H102.399C102.229 35 102.085 34.9392 101.967 34.8177C101.845 34.6997 101.785 34.5556 101.785 34.3854V28.1406C101.785 27.967 101.845 27.8212 101.967 27.7031C102.085 27.5816 102.229 27.5208 102.399 27.5208H102.404L106.17 27.5312C106.34 27.5312 106.486 27.592 106.608 27.7135C106.726 27.8351 106.785 27.9809 106.785 28.151C106.785 28.3212 106.724 28.4653 106.602 28.5833C106.484 28.7049 106.34 28.7656 106.17 28.7656H106.165L103.019 28.7552V30.6458H105.29C105.46 30.6458 105.606 30.7049 105.727 30.8229C105.849 30.9444 105.91 31.0903 105.91 31.2604C105.91 31.4306 105.849 31.5764 105.727 31.6979C105.606 31.816 105.46 31.875 105.29 31.875H103.019V33.7656ZM113.004 34.8073C112.99 34.7934 112.978 34.7795 112.967 34.7656C112.964 34.7656 112.962 34.7656 112.962 34.7656C112.962 34.7656 112.962 34.7639 112.962 34.7604L109.217 29.9427V34.3854C109.217 34.5556 109.157 34.6997 109.035 34.8177C108.917 34.9392 108.773 35 108.603 35C108.433 35 108.288 34.9392 108.17 34.8177C108.049 34.6997 107.988 34.5556 107.988 34.3854V28.1458C107.988 28.0139 108.026 27.8958 108.103 27.7917C108.179 27.684 108.28 27.6094 108.405 27.5677C108.526 27.5226 108.651 27.5191 108.78 27.5573C108.905 27.5955 109.007 27.6667 109.087 27.7708L112.832 32.5937V28.1458C112.832 27.9757 112.891 27.8316 113.009 27.7135C113.13 27.592 113.276 27.5312 113.446 27.5312C113.617 27.5312 113.761 27.592 113.879 27.7135C114 27.8316 114.061 27.9757 114.061 28.1458V34.3958C114.061 34.4028 114.059 34.4132 114.056 34.4271C114.056 34.441 114.056 34.4497 114.056 34.4531C114.056 34.4601 114.054 34.4705 114.051 34.4844C114.051 34.4983 114.049 34.5087 114.045 34.5156C114.045 34.5156 114.044 34.5243 114.04 34.5417C114.037 34.559 114.033 34.5694 114.03 34.5729C114.03 34.5764 114.026 34.5851 114.019 34.599C114.016 34.6128 114.012 34.6233 114.009 34.6302C114.009 34.6302 114.005 34.6389 113.999 34.6562C113.988 34.6736 113.983 34.6823 113.983 34.6823C113.979 34.6892 113.974 34.6997 113.967 34.7135L113.952 34.7292C113.948 34.7361 113.941 34.7465 113.931 34.7604C113.92 34.7743 113.915 34.7812 113.915 34.7812C113.912 34.7847 113.905 34.7917 113.894 34.8021C113.884 34.816 113.877 34.8229 113.874 34.8229C113.874 34.8264 113.867 34.8333 113.853 34.8437C113.842 34.8542 113.834 34.8611 113.827 34.8646C113.837 34.8576 113.835 34.8594 113.821 34.8698C113.821 34.8698 113.82 34.8715 113.816 34.875C113.788 34.8958 113.762 34.9132 113.738 34.9271C113.735 34.9271 113.733 34.9271 113.733 34.9271C113.705 34.941 113.677 34.9531 113.65 34.9635C113.636 34.9705 113.632 34.9722 113.639 34.9687C113.611 34.9792 113.582 34.9861 113.551 34.9896C113.551 34.9896 113.545 34.9913 113.535 34.9948C113.504 34.9983 113.474 35 113.446 35C113.426 35 113.403 34.9983 113.379 34.9948C113.386 34.9983 113.382 34.9983 113.368 34.9948C113.348 34.9913 113.33 34.9878 113.316 34.9844C113.32 34.9878 113.313 34.9861 113.295 34.9792C113.278 34.9757 113.264 34.9722 113.254 34.9687C113.25 34.9687 113.243 34.9653 113.233 34.9583C113.216 34.9549 113.202 34.9497 113.191 34.9427C113.184 34.9427 113.177 34.9392 113.17 34.9323C113.157 34.9253 113.144 34.9201 113.134 34.9167C113.124 34.9097 113.117 34.9045 113.113 34.901C113.103 34.8941 113.091 34.8854 113.077 34.875C113.066 34.8681 113.059 34.8628 113.056 34.8594C113.038 34.8455 113.023 34.8316 113.009 34.8177C113.009 34.8177 113.007 34.816 113.004 34.8125C113.004 34.8125 113.004 34.8108 113.004 34.8073ZM121.64 34.0312C120.928 34.6771 120.091 35 119.129 35C118.105 35 117.228 34.6372 116.499 33.9115C115.773 33.1823 115.41 32.3056 115.41 31.2812C115.41 30.2535 115.773 29.3767 116.499 28.651C117.228 27.9219 118.105 27.5573 119.129 27.5573C119.973 27.5573 120.73 27.8142 121.4 28.3281C121.532 28.4323 121.61 28.5677 121.634 28.7344C121.655 28.9045 121.614 29.0573 121.509 29.1927C121.405 29.3281 121.27 29.4062 121.103 29.4271C120.933 29.4479 120.78 29.408 120.645 29.3073C120.2 28.9635 119.695 28.7917 119.129 28.7917C118.445 28.7917 117.86 29.0347 117.374 29.5208C116.888 30.0069 116.645 30.5937 116.645 31.2812C116.645 31.9653 116.888 32.5503 117.374 33.0365C117.86 33.5226 118.445 33.7656 119.129 33.7656C119.775 33.7656 120.334 33.5503 120.806 33.1198C120.931 33.0052 121.079 32.9514 121.249 32.9583C121.419 32.9653 121.561 33.033 121.676 33.1615C121.791 33.2865 121.844 33.434 121.838 33.6042C121.831 33.7743 121.765 33.9167 121.64 34.0312ZM124.395 33.7656H127.546C127.716 33.7656 127.86 33.8264 127.979 33.9479C128.1 34.0694 128.161 34.2153 128.161 34.3854C128.161 34.5556 128.1 34.6997 127.979 34.8177C127.86 34.9392 127.716 35 127.546 35H123.775C123.605 35 123.461 34.9392 123.343 34.8177C123.222 34.6997 123.161 34.5556 123.161 34.3854V28.1406C123.161 27.967 123.222 27.8212 123.343 27.7031C123.461 27.5816 123.605 27.5208 123.775 27.5208H123.781L127.546 27.5312C127.716 27.5312 127.862 27.592 127.984 27.7135C128.102 27.8351 128.161 27.9809 128.161 28.151C128.161 28.3212 128.1 28.4653 127.979 28.5833C127.86 28.7049 127.716 28.7656 127.546 28.7656H127.541L124.395 28.7552V30.6458H126.666C126.836 30.6458 126.982 30.7049 127.104 30.8229C127.225 30.9444 127.286 31.0903 127.286 31.2604C127.286 31.4306 127.225 31.5764 127.104 31.6979C126.982 31.816 126.836 31.875 126.666 31.875H124.395V33.7656ZM133.5 31.3958C133.871 31.7882 134.045 32.2483 134.021 32.776C133.993 33.3976 133.745 33.9236 133.276 34.3542C132.804 34.7847 132.241 35 131.588 35C131.022 35 130.515 34.8785 130.067 34.6354C129.529 34.3437 129.187 33.9201 129.041 33.3646C129 33.2014 129.021 33.0469 129.104 32.901C129.191 32.7552 129.316 32.6615 129.479 32.6198C129.642 32.5781 129.797 32.599 129.942 32.6823C130.088 32.7691 130.182 32.8941 130.224 33.0573C130.286 33.2899 130.456 33.4722 130.734 33.6042C130.984 33.7187 131.269 33.776 131.588 33.776C131.915 33.776 132.194 33.6736 132.427 33.4687C132.663 33.2674 132.788 33.0174 132.802 32.7187C132.809 32.5382 132.745 32.3767 132.609 32.2344C132.394 32.0052 132.033 31.8872 131.526 31.8802H131.521C131.507 31.8802 131.503 31.8802 131.51 31.8802C131.507 31.8802 131.503 31.8802 131.5 31.8802C130.649 31.8663 129.998 31.6215 129.547 31.1458C129.175 30.75 129.002 30.2899 129.026 29.7656C129.054 29.1406 129.302 28.6128 129.771 28.1823C130.239 27.7517 130.802 27.5365 131.458 27.5365C132.024 27.5365 132.531 27.658 132.979 27.901C133.517 28.1927 133.859 28.6163 134.005 29.1719C134.047 29.3351 134.024 29.4896 133.937 29.6354C133.854 29.7812 133.731 29.875 133.567 29.9167C133.404 29.9583 133.25 29.9375 133.104 29.8542C132.958 29.7674 132.864 29.6424 132.823 29.4792C132.76 29.2465 132.588 29.0642 132.307 28.9323C132.061 28.8177 131.778 28.7604 131.458 28.7604C131.132 28.7604 130.85 28.8628 130.614 29.0677C130.382 29.2726 130.258 29.5226 130.245 29.8177C130.238 29.9983 130.302 30.1615 130.437 30.3073C130.653 30.533 131.014 30.6493 131.521 30.6562H131.547C132.397 30.6701 133.048 30.9167 133.5 31.3958Z" fill="black"/>
</svg>
