<svg width="137" height="51" viewBox="0 0 137 51" fill="none" xmlns="http://www.w3.org/2000/svg">
<g clip-path="url(#clip0_402_1459)">
<path d="M136.03 31.8736C136.401 32.2658 136.575 32.7257 136.55 33.2532C136.523 33.8745 136.274 34.4004 135.806 34.8308C135.334 35.2612 134.772 35.4764 134.119 35.4764C133.553 35.4764 133.046 35.3549 132.599 35.1119C132.061 34.8204 131.719 34.3969 131.573 33.8416C131.531 33.6784 131.552 33.524 131.636 33.3782C131.722 33.2324 131.847 33.1387 132.01 33.0971C132.174 33.0554 132.328 33.0762 132.474 33.1595C132.62 33.2463 132.713 33.3713 132.755 33.5344C132.817 33.7669 132.987 33.9492 133.265 34.0811C133.515 34.1956 133.8 34.2529 134.119 34.2529C134.445 34.2529 134.725 34.1505 134.957 33.9457C135.193 33.7444 135.318 33.4945 135.332 33.196C135.339 33.0155 135.275 32.8541 135.139 32.7118C134.924 32.4827 134.563 32.3647 134.057 32.3577H134.051C134.037 32.3577 134.034 32.3577 134.041 32.3577C134.037 32.3577 134.034 32.3577 134.03 32.3577C133.18 32.3439 132.529 32.0992 132.078 31.6236C131.707 31.228 131.533 30.7681 131.557 30.244C131.585 29.6192 131.833 29.0916 132.302 28.6612C132.771 28.2308 133.333 28.0156 133.989 28.0156C134.555 28.0156 135.061 28.1371 135.509 28.3801C136.047 28.6716 136.389 29.0951 136.535 29.6504C136.576 29.8136 136.554 29.968 136.467 30.1138C136.384 30.2596 136.261 30.3533 136.097 30.3949C135.934 30.4366 135.78 30.4158 135.634 30.3325C135.488 30.2457 135.395 30.1207 135.353 29.9576C135.29 29.7251 135.119 29.5428 134.837 29.4109C134.591 29.2964 134.308 29.2391 133.989 29.2391C133.663 29.2391 133.381 29.3415 133.145 29.5463C132.913 29.7511 132.79 30.001 132.776 30.296C132.769 30.4765 132.833 30.6396 132.968 30.7854C133.184 31.011 133.545 31.1273 134.051 31.1342H134.077C134.928 31.1481 135.579 31.3946 136.03 31.8736Z" fill="white"/>
<path d="M126.715 34.2424H129.865C130.035 34.2424 130.179 34.3032 130.297 34.4247C130.419 34.5462 130.48 34.6919 130.48 34.862C130.48 35.0321 130.419 35.1761 130.297 35.2941C130.179 35.4156 130.035 35.4764 129.865 35.4764H126.096C125.926 35.4764 125.782 35.4156 125.664 35.2941C125.542 35.1761 125.481 35.0321 125.481 34.862V28.6196C125.481 28.446 125.542 28.3002 125.664 28.1822C125.782 28.0607 125.926 28 126.096 28H126.101L129.865 28.0104C130.035 28.0104 130.181 28.0712 130.303 28.1926C130.421 28.3141 130.48 28.4599 130.48 28.63C130.48 28.8 130.419 28.9441 130.297 29.0621C130.179 29.1836 130.035 29.2443 129.865 29.2443H129.86L126.715 29.2339V31.1238H128.985C129.155 31.1238 129.301 31.1828 129.423 31.3008C129.544 31.4223 129.605 31.5681 129.605 31.7382C129.605 31.9083 129.544 32.054 129.423 32.1755C129.301 32.2935 129.155 32.3525 128.985 32.3525H126.715V34.2424Z" fill="white"/>
<path d="M123.747 34.5082C123.036 35.1537 122.199 35.4765 121.238 35.4765C120.214 35.4765 119.338 35.1138 118.609 34.3884C117.883 33.6595 117.521 32.7831 117.521 31.7592C117.521 30.7318 117.883 29.8554 118.609 29.13C119.338 28.4011 120.214 28.0366 121.238 28.0366C122.081 28.0366 122.838 28.2935 123.508 28.8072C123.64 28.9113 123.718 29.0467 123.742 29.2133C123.763 29.3833 123.721 29.5361 123.617 29.6714C123.513 29.8068 123.378 29.8849 123.211 29.9057C123.041 29.9265 122.888 29.8866 122.753 29.786C122.309 29.4423 121.804 29.2705 121.238 29.2705C120.554 29.2705 119.969 29.5135 119.483 29.9994C118.997 30.4854 118.754 31.0719 118.754 31.7592C118.754 32.443 118.997 33.0278 119.483 33.5137C119.969 33.9997 120.554 34.2426 121.238 34.2426C121.883 34.2426 122.442 34.0274 122.914 33.597C123.039 33.4825 123.187 33.4287 123.357 33.4356C123.527 33.4426 123.669 33.5103 123.784 33.6387C123.898 33.7636 123.952 33.9112 123.945 34.0812C123.938 34.2513 123.872 34.3936 123.747 34.5082Z" fill="white"/>
<path d="M114.901 35.2838C114.888 35.2699 114.875 35.256 114.865 35.2421C114.862 35.2421 114.86 35.2421 114.86 35.2421C114.86 35.2421 114.86 35.2404 114.86 35.2369L111.116 30.421V34.8621C111.116 35.0321 111.056 35.1762 110.934 35.2942C110.816 35.4157 110.672 35.4764 110.502 35.4764C110.332 35.4764 110.188 35.4157 110.07 35.2942C109.948 35.1762 109.888 35.0321 109.888 34.8621V28.6248C109.888 28.4929 109.926 28.3749 110.002 28.2708C110.079 28.1632 110.179 28.0886 110.304 28.0469C110.426 28.0018 110.551 27.9983 110.679 28.0365C110.804 28.0747 110.906 28.1458 110.986 28.25L114.73 33.0711V28.6248C114.73 28.4547 114.789 28.3107 114.907 28.1927C115.028 28.0712 115.174 28.0105 115.344 28.0105C115.514 28.0105 115.658 28.0712 115.776 28.1927C115.898 28.3107 115.958 28.4547 115.958 28.6248V34.8725C115.958 34.8794 115.957 34.8898 115.953 34.9037C115.953 34.9176 115.953 34.9263 115.953 34.9297C115.953 34.9367 115.951 34.9471 115.948 34.961C115.948 34.9749 115.946 34.9853 115.943 34.9922C115.943 34.9922 115.941 35.0009 115.938 35.0183C115.934 35.0356 115.931 35.046 115.927 35.0495C115.927 35.053 115.924 35.0616 115.917 35.0755C115.913 35.0894 115.91 35.0998 115.906 35.1068C115.906 35.1068 115.903 35.1154 115.896 35.1328C115.885 35.1502 115.88 35.1588 115.88 35.1588C115.877 35.1658 115.872 35.1762 115.865 35.1901L115.849 35.2057C115.846 35.2126 115.839 35.223 115.828 35.2369C115.818 35.2508 115.813 35.2578 115.813 35.2578C115.809 35.2612 115.802 35.2682 115.792 35.2786C115.781 35.2925 115.774 35.2994 115.771 35.2994C115.771 35.3029 115.764 35.3098 115.75 35.3202C115.74 35.3306 115.731 35.3376 115.724 35.3411C115.734 35.3341 115.733 35.3358 115.719 35.3463C115.719 35.3463 115.717 35.348 115.714 35.3515C115.686 35.3723 115.66 35.3896 115.636 35.4035C115.632 35.4035 115.63 35.4035 115.63 35.4035C115.603 35.4174 115.575 35.4296 115.547 35.44C115.533 35.4469 115.53 35.4487 115.537 35.4452C115.509 35.4556 115.479 35.4625 115.448 35.466C115.448 35.466 115.443 35.4677 115.432 35.4712C115.401 35.4747 115.372 35.4764 115.344 35.4764C115.323 35.4764 115.301 35.4747 115.276 35.4712C115.283 35.4747 115.28 35.4747 115.266 35.4712C115.245 35.4677 115.228 35.4643 115.214 35.4608C115.217 35.4643 115.21 35.4625 115.193 35.4556C115.176 35.4521 115.162 35.4487 115.151 35.4452C115.148 35.4452 115.141 35.4417 115.131 35.4348C115.113 35.4313 115.099 35.4261 115.089 35.4191C115.082 35.4191 115.075 35.4157 115.068 35.4087C115.054 35.4018 115.042 35.3966 115.032 35.3931C115.021 35.3862 115.014 35.381 115.011 35.3775C115 35.3706 114.988 35.3619 114.974 35.3515C114.964 35.3445 114.957 35.3393 114.954 35.3358C114.936 35.322 114.921 35.3081 114.907 35.2942C114.907 35.2942 114.905 35.2925 114.901 35.289C114.901 35.289 114.901 35.2873 114.901 35.2838Z" fill="white"/>
<path d="M104.708 34.2424H107.857C108.027 34.2424 108.172 34.3032 108.29 34.4247C108.411 34.5462 108.472 34.6919 108.472 34.862C108.472 35.0321 108.411 35.1761 108.29 35.2941C108.172 35.4156 108.027 35.4764 107.857 35.4764H104.088C103.918 35.4764 103.774 35.4156 103.656 35.2941C103.534 35.1761 103.474 35.0321 103.474 34.862V28.6196C103.474 28.446 103.534 28.3002 103.656 28.1822C103.774 28.0607 103.918 28 104.088 28H104.093L107.857 28.0104C108.027 28.0104 108.173 28.0712 108.295 28.1926C108.413 28.3141 108.472 28.4599 108.472 28.63C108.472 28.8 108.411 28.9441 108.29 29.0621C108.172 29.1836 108.027 29.2443 107.857 29.2443H107.852L104.708 29.2339V31.1238H106.978C107.148 31.1238 107.293 31.1828 107.415 31.3008C107.536 31.4223 107.597 31.5681 107.597 31.7382C107.597 31.9083 107.536 32.054 107.415 32.1755C107.293 32.2935 107.148 32.3525 106.978 32.3525H104.708V34.2424Z" fill="white"/>
<path d="M100.516 35.0288C99.9712 35.3134 99.3933 35.4557 98.7825 35.4557C97.7551 35.4557 96.8769 35.0913 96.148 34.3624C95.4191 33.6335 95.0547 32.7553 95.0547 31.7279C95.0547 30.7005 95.4191 29.8241 96.148 29.0987C96.8769 28.3698 97.7551 28.0054 98.7825 28.0054C99.6259 28.0054 100.381 28.2622 101.047 28.7759C101.183 28.88 101.262 29.0171 101.287 29.1872C101.308 29.3538 101.266 29.5048 101.162 29.6402C101.058 29.7755 100.922 29.8536 100.756 29.8745C100.586 29.8988 100.433 29.8588 100.298 29.7547C99.8498 29.4111 99.3447 29.2393 98.7825 29.2393C98.0952 29.2393 97.5069 29.4822 97.0175 29.9682C96.5316 30.4576 96.2886 31.0442 96.2886 31.7279C96.2886 32.4152 96.5316 33.0035 97.0175 33.4929C97.5069 33.9788 98.0952 34.2218 98.7825 34.2218C99.4246 34.2218 99.9834 34.0049 100.459 33.571C100.466 33.564 100.478 33.5536 100.495 33.5398L100.501 32.1757H98.4649C98.2913 32.1757 98.1455 32.1167 98.0275 31.9987C97.906 31.8772 97.8453 31.7314 97.8453 31.5613C97.8453 31.3913 97.906 31.2455 98.0275 31.124C98.1455 31.0025 98.2913 30.9418 98.4649 30.9418H101.12C101.29 30.9418 101.436 31.0025 101.557 31.124C101.679 31.2455 101.74 31.3913 101.74 31.5613L101.724 34.8622C101.724 35.0322 101.663 35.1763 101.542 35.2943C101.424 35.4158 101.28 35.4765 101.11 35.4765H101.105C100.966 35.4765 100.841 35.4331 100.73 35.3464C100.622 35.2631 100.551 35.1572 100.516 35.0288Z" fill="white"/>
<path d="M93.2892 35.2943C93.1711 35.4158 93.0271 35.4765 92.857 35.4765C92.687 35.4765 92.5429 35.4158 92.4249 35.2943C92.3034 35.1763 92.2427 35.0323 92.2427 34.8622V28.651C92.2427 28.4809 92.3034 28.3369 92.4249 28.2188C92.5429 28.0974 92.687 28.0366 92.857 28.0366C93.0271 28.0366 93.1711 28.0974 93.2892 28.2188C93.4106 28.3369 93.4714 28.4809 93.4714 28.651V34.8622C93.4714 35.0323 93.4106 35.1763 93.2892 35.2943Z" fill="white"/>
<path d="M86.6822 28.193C86.8002 28.0715 86.9443 28.0107 87.1144 28.0107C87.2844 28.0107 87.4285 28.0715 87.5465 28.193C87.668 28.311 87.7287 28.455 87.7287 28.6251V34.248H90.4829C90.653 34.248 90.7987 34.3087 90.9202 34.4302C91.0382 34.5482 91.0972 34.6923 91.0972 34.8623C91.0972 35.0324 91.0382 35.1765 90.9202 35.2945C90.7987 35.4159 90.653 35.4767 90.4829 35.4767H87.1144C86.9443 35.4767 86.8002 35.4159 86.6822 35.2945C86.5607 35.1765 86.5 35.0324 86.5 34.8623V28.6251C86.5 28.455 86.5607 28.311 86.6822 28.193Z" fill="white"/>
<path d="M80.9288 28.193C81.0468 28.0715 81.1909 28.0107 81.3609 28.0107C81.531 28.0107 81.6751 28.0715 81.7931 28.193C81.9145 28.311 81.9753 28.455 81.9753 28.6251V34.248H84.7295C84.8995 34.248 85.0453 34.3087 85.1668 34.4302C85.2848 34.5482 85.3438 34.6923 85.3438 34.8623C85.3438 35.0324 85.2848 35.1765 85.1668 35.2945C85.0453 35.4159 84.8995 35.4767 84.7295 35.4767H81.3609C81.1909 35.4767 81.0468 35.4159 80.9288 35.2945C80.8073 35.1765 80.7466 35.0324 80.7466 34.8623V28.6251C80.7466 28.455 80.8073 28.311 80.9288 28.193Z" fill="white"/>
<path d="M75.5557 34.2424H78.7055C78.8756 34.2424 79.0197 34.3032 79.1377 34.4247C79.2592 34.5462 79.3199 34.6919 79.3199 34.862C79.3199 35.0321 79.2592 35.1761 79.1377 35.2941C79.0197 35.4156 78.8756 35.4764 78.7055 35.4764H74.9361C74.7661 35.4764 74.622 35.4156 74.504 35.2941C74.3825 35.1761 74.3218 35.0321 74.3218 34.862V28.6196C74.3218 28.446 74.3825 28.3002 74.504 28.1822C74.622 28.0607 74.7661 28 74.9361 28H74.9413L78.7055 28.0104C78.8756 28.0104 79.0214 28.0712 79.1429 28.1926C79.2609 28.3141 79.3199 28.4599 79.3199 28.63C79.3199 28.8 79.2592 28.9441 79.1377 29.0621C79.0197 29.1836 78.8756 29.2443 78.7055 29.2443H78.7003L75.5557 29.2339V31.1238H77.8257C77.9957 31.1238 78.1415 31.1828 78.263 31.3008C78.3845 31.4223 78.4452 31.5681 78.4452 31.7382C78.4452 31.9083 78.3845 32.054 78.263 32.1755C78.1415 32.2935 77.9957 32.3525 77.8257 32.3525H75.5557V34.2424Z" fill="white"/>
<path d="M69.7817 34.862V29.2287H68.2354C68.0654 29.2287 67.9196 29.168 67.7981 29.0465C67.6801 28.9285 67.6211 28.7844 67.6211 28.6144C67.6211 28.4443 67.6801 28.3002 67.7981 28.1822C67.9196 28.0607 68.0654 28 68.2354 28H72.5619C72.7286 28 72.8726 28.0607 72.9941 28.1822C73.1121 28.3002 73.1711 28.4443 73.1711 28.6144C73.1711 28.7844 73.1121 28.9285 72.9941 29.0465C72.8726 29.168 72.7286 29.2287 72.5619 29.2287H71.0104V34.862C71.0104 35.0321 70.9497 35.1779 70.8282 35.2993C70.7102 35.4174 70.5662 35.4764 70.3961 35.4764C70.226 35.4764 70.082 35.4174 69.964 35.2993C69.8425 35.1779 69.7817 35.0321 69.7817 34.862Z" fill="white"/>
<path d="M65.2418 35.2838C65.2279 35.2699 65.2157 35.256 65.2053 35.2421C65.2019 35.2421 65.2001 35.2421 65.2001 35.2421C65.2001 35.2421 65.2001 35.2404 65.2001 35.2369L61.4567 30.421V34.8621C61.4567 35.0321 61.396 35.1762 61.2745 35.2942C61.1565 35.4157 61.0125 35.4764 60.8424 35.4764C60.6723 35.4764 60.5283 35.4157 60.4103 35.2942C60.2888 35.1762 60.228 35.0321 60.228 34.8621V28.6248C60.228 28.4929 60.2662 28.3749 60.3426 28.2708C60.4189 28.1632 60.5196 28.0886 60.6445 28.0469C60.766 28.0018 60.891 27.9983 61.0194 28.0365C61.1444 28.0747 61.2467 28.1458 61.3266 28.25L65.07 33.0711V28.6248C65.07 28.4547 65.129 28.3107 65.247 28.1927C65.3685 28.0712 65.5142 28.0105 65.6843 28.0105C65.8544 28.0105 65.9984 28.0712 66.1164 28.1927C66.2379 28.3107 66.2987 28.4547 66.2987 28.6248V34.8725C66.2987 34.8794 66.2969 34.8898 66.2935 34.9037C66.2935 34.9176 66.2935 34.9263 66.2935 34.9297C66.2935 34.9367 66.2917 34.9471 66.2883 34.961C66.2883 34.9749 66.2865 34.9853 66.283 34.9922C66.283 34.9922 66.2813 35.0009 66.2778 35.0183C66.2744 35.0356 66.2709 35.046 66.2674 35.0495C66.2674 35.053 66.264 35.0616 66.257 35.0755C66.2535 35.0894 66.2501 35.0998 66.2466 35.1068C66.2466 35.1068 66.2431 35.1154 66.2362 35.1328C66.2258 35.1502 66.2206 35.1588 66.2206 35.1588C66.2171 35.1658 66.2119 35.1762 66.205 35.1901L66.1893 35.2057C66.1859 35.2126 66.1789 35.223 66.1685 35.2369C66.1581 35.2508 66.1529 35.2578 66.1529 35.2578C66.1494 35.2612 66.1425 35.2682 66.1321 35.2786C66.1216 35.2925 66.1147 35.2994 66.1112 35.2994C66.1112 35.3029 66.1043 35.3098 66.0904 35.3202C66.08 35.3306 66.0713 35.3376 66.0644 35.3411C66.0748 35.3341 66.0731 35.3358 66.0592 35.3463C66.0592 35.3463 66.0574 35.348 66.054 35.3515C66.0262 35.3723 66.0002 35.3896 65.9759 35.4035C65.9724 35.4035 65.9707 35.4035 65.9707 35.4035C65.9429 35.4174 65.9151 35.4296 65.8874 35.44C65.8735 35.4469 65.87 35.4487 65.8769 35.4452C65.8492 35.4556 65.8197 35.4625 65.7884 35.466C65.7884 35.466 65.7832 35.4677 65.7728 35.4712C65.7416 35.4747 65.7121 35.4764 65.6843 35.4764C65.6635 35.4764 65.6409 35.4747 65.6166 35.4712C65.6236 35.4747 65.6201 35.4747 65.6062 35.4712C65.5854 35.4677 65.568 35.4643 65.5542 35.4608C65.5576 35.4643 65.5507 35.4625 65.5333 35.4556C65.516 35.4521 65.5021 35.4487 65.4917 35.4452C65.4882 35.4452 65.4813 35.4417 65.4709 35.4348C65.4535 35.4313 65.4396 35.4261 65.4292 35.4191C65.4223 35.4191 65.4153 35.4157 65.4084 35.4087C65.3945 35.4018 65.3823 35.3966 65.3719 35.3931C65.3615 35.3862 65.3546 35.381 65.3511 35.3775C65.3407 35.3706 65.3285 35.3619 65.3147 35.3515C65.3042 35.3445 65.2973 35.3393 65.2938 35.3358C65.2765 35.322 65.2609 35.3081 65.247 35.2942C65.247 35.2942 65.2452 35.2925 65.2418 35.289C65.2418 35.289 65.2418 35.2873 65.2418 35.2838Z" fill="white"/>
<path d="M58.0099 35.2943C57.8918 35.4158 57.7478 35.4765 57.5777 35.4765C57.4077 35.4765 57.2636 35.4158 57.1456 35.2943C57.0241 35.1763 56.9634 35.0323 56.9634 34.8622V28.651C56.9634 28.4809 57.0241 28.3369 57.1456 28.2188C57.2636 28.0974 57.4077 28.0366 57.5777 28.0366C57.7478 28.0366 57.8918 28.0974 58.0099 28.2188C58.1313 28.3369 58.1921 28.4809 58.1921 28.651V34.8622C58.1921 35.0323 58.1313 35.1763 58.0099 35.2943Z" fill="white"/>
<path d="M93.5548 23.2838C93.5409 23.2699 93.5287 23.256 93.5183 23.2421C93.5148 23.2421 93.5131 23.2421 93.5131 23.2421C93.5131 23.2421 93.5131 23.2404 93.5131 23.2369L89.7697 18.421V22.8621C89.7697 23.0321 89.709 23.1762 89.5875 23.2942C89.4695 23.4157 89.3254 23.4764 89.1554 23.4764C88.9853 23.4764 88.8413 23.4157 88.7232 23.2942C88.6018 23.1762 88.541 23.0321 88.541 22.8621V16.6248C88.541 16.4929 88.5792 16.3749 88.6556 16.2708C88.7319 16.1632 88.8326 16.0886 88.9575 16.0469C89.079 16.0018 89.204 15.9983 89.3324 16.0365C89.4573 16.0747 89.5597 16.1458 89.6396 16.25L93.3829 21.0711V16.6248C93.3829 16.4547 93.442 16.3107 93.56 16.1927C93.6814 16.0712 93.8272 16.0105 93.9973 16.0105C94.1674 16.0105 94.3114 16.0712 94.4294 16.1927C94.5509 16.3107 94.6117 16.4547 94.6117 16.6248V22.8725C94.6117 22.8794 94.6099 22.8898 94.6064 22.9037C94.6064 22.9176 94.6064 22.9263 94.6064 22.9297C94.6064 22.9367 94.6047 22.9471 94.6012 22.961C94.6012 22.9749 94.5995 22.9853 94.596 22.9922C94.596 22.9922 94.5943 23.0009 94.5908 23.0183C94.5874 23.0356 94.5839 23.046 94.5804 23.0495C94.5804 23.053 94.5769 23.0616 94.57 23.0755C94.5665 23.0894 94.5631 23.0998 94.5596 23.1068C94.5596 23.1068 94.5561 23.1154 94.5492 23.1328C94.5388 23.1502 94.5336 23.1588 94.5336 23.1588C94.5301 23.1658 94.5249 23.1762 94.5179 23.1901L94.5023 23.2057C94.4988 23.2126 94.4919 23.223 94.4815 23.2369C94.4711 23.2508 94.4659 23.2578 94.4659 23.2578C94.4624 23.2612 94.4555 23.2682 94.445 23.2786C94.4346 23.2925 94.4277 23.2994 94.4242 23.2994C94.4242 23.3029 94.4173 23.3098 94.4034 23.3202C94.393 23.3306 94.3843 23.3376 94.3774 23.3411C94.3878 23.3341 94.386 23.3358 94.3722 23.3463C94.3722 23.3463 94.3704 23.348 94.367 23.3515C94.3392 23.3723 94.3132 23.3896 94.2889 23.4035C94.2854 23.4035 94.2837 23.4035 94.2837 23.4035C94.2559 23.4174 94.2281 23.4296 94.2004 23.44C94.1865 23.4469 94.183 23.4487 94.1899 23.4452C94.1622 23.4556 94.1327 23.4625 94.1014 23.466C94.1014 23.466 94.0962 23.4677 94.0858 23.4712C94.0546 23.4747 94.0251 23.4764 93.9973 23.4764C93.9765 23.4764 93.9539 23.4747 93.9296 23.4712C93.9366 23.4747 93.9331 23.4747 93.9192 23.4712C93.8984 23.4677 93.881 23.4643 93.8671 23.4608C93.8706 23.4643 93.8637 23.4625 93.8463 23.4556C93.829 23.4521 93.8151 23.4487 93.8047 23.4452C93.8012 23.4452 93.7943 23.4417 93.7838 23.4348C93.7665 23.4313 93.7526 23.4261 93.7422 23.4191C93.7352 23.4191 93.7283 23.4157 93.7214 23.4087C93.7075 23.4018 93.6953 23.3966 93.6849 23.3931C93.6745 23.3862 93.6676 23.381 93.6641 23.3775C93.6537 23.3706 93.6415 23.3619 93.6276 23.3515C93.6172 23.3445 93.6103 23.3393 93.6068 23.3358C93.5895 23.322 93.5739 23.3081 93.56 23.2942C93.56 23.2942 93.5582 23.2925 93.5548 23.289C93.5548 23.289 93.5548 23.2873 93.5548 23.2838Z" fill="white"/>
<path d="M85.5782 23.0288C85.0333 23.3134 84.4553 23.4557 83.8445 23.4557C82.8171 23.4557 81.9389 23.0913 81.21 22.3624C80.4811 21.6335 80.1167 20.7553 80.1167 19.7279C80.1167 18.7005 80.4811 17.8241 81.21 17.0987C81.9389 16.3698 82.8171 16.0054 83.8445 16.0054C84.6879 16.0054 85.4428 16.2622 86.1092 16.7759C86.2446 16.88 86.3244 17.0171 86.3487 17.1872C86.3696 17.3538 86.3279 17.5048 86.2238 17.6402C86.1197 17.7755 85.9843 17.8536 85.8177 17.8745C85.6476 17.8988 85.4949 17.8588 85.3595 17.7547C84.9118 17.4111 84.4068 17.2393 83.8445 17.2393C83.1572 17.2393 82.5689 17.4822 82.0795 17.9682C81.5936 18.4576 81.3506 19.0442 81.3506 19.7279C81.3506 20.4152 81.5936 21.0035 82.0795 21.4929C82.5689 21.9788 83.1572 22.2218 83.8445 22.2218C84.4866 22.2218 85.0454 22.0049 85.5209 21.571C85.5279 21.564 85.54 21.5536 85.5574 21.5398L85.5626 20.1757H83.5269C83.3533 20.1757 83.2076 20.1167 83.0895 19.9987C82.9681 19.8772 82.9073 19.7314 82.9073 19.5613C82.9073 19.3913 82.9681 19.2455 83.0895 19.124C83.2076 19.0025 83.3533 18.9418 83.5269 18.9418H86.1821C86.3522 18.9418 86.498 19.0025 86.6195 19.124C86.7409 19.2455 86.8017 19.3913 86.8017 19.5613L86.7861 22.8622C86.7861 23.0322 86.7253 23.1763 86.6038 23.2943C86.4858 23.4158 86.3418 23.4765 86.1717 23.4765H86.1665C86.0277 23.4765 85.9027 23.4331 85.7917 23.3464C85.6841 23.2631 85.6129 23.1572 85.5782 23.0288Z" fill="white"/>
<path d="M78.3517 23.2943C78.2336 23.4158 78.0896 23.4765 77.9195 23.4765C77.7495 23.4765 77.6054 23.4158 77.4874 23.2943C77.3659 23.1763 77.3052 23.0323 77.3052 22.8622V16.651C77.3052 16.4809 77.3659 16.3369 77.4874 16.2188C77.6054 16.0974 77.7495 16.0366 77.9195 16.0366C78.0896 16.0366 78.2336 16.0974 78.3517 16.2188C78.4731 16.3369 78.5339 16.4809 78.5339 16.651V22.8622C78.5339 23.0323 78.4731 23.1763 78.3517 23.2943Z" fill="white"/>
<path d="M75.04 19.8736C75.4114 20.2658 75.5849 20.7257 75.5606 21.2532C75.5329 21.8745 75.2847 22.4004 74.8161 22.8308C74.3441 23.2612 73.7818 23.4764 73.1292 23.4764C72.5635 23.4764 72.0567 23.3549 71.609 23.1119C71.071 22.8204 70.7291 22.3969 70.5833 21.8416C70.5417 21.6784 70.5625 21.524 70.6458 21.3782C70.7326 21.2324 70.8575 21.1387 71.0207 21.0971C71.1838 21.0554 71.3383 21.0762 71.484 21.1595C71.6298 21.2463 71.7235 21.3713 71.7652 21.5344C71.8277 21.7669 71.9977 21.9492 72.2754 22.0811C72.5253 22.1956 72.8099 22.2529 73.1292 22.2529C73.4555 22.2529 73.7349 22.1505 73.9675 21.9457C74.2035 21.7444 74.3284 21.4945 74.3423 21.196C74.3493 21.0155 74.2851 20.8541 74.1497 20.7118C73.9345 20.4827 73.5735 20.3647 73.0668 20.3577H73.0616C73.0477 20.3577 73.0442 20.3577 73.0511 20.3577C73.0477 20.3577 73.0442 20.3577 73.0407 20.3577C72.1904 20.3439 71.5396 20.0992 71.0883 19.6236C70.717 19.228 70.5434 18.7681 70.5677 18.244C70.5955 17.6192 70.8436 17.0916 71.3122 16.6612C71.7808 16.2308 72.3431 16.0156 72.9991 16.0156C73.5648 16.0156 74.0716 16.1371 74.5193 16.3801C75.0573 16.6716 75.3992 17.0951 75.545 17.6504C75.5867 17.8136 75.5641 17.968 75.4773 18.1138C75.394 18.2596 75.2708 18.3533 75.1077 18.3949C74.9445 18.4366 74.7901 18.4158 74.6443 18.3325C74.4985 18.2457 74.4048 18.1207 74.3632 17.9576C74.3007 17.7251 74.1289 17.5428 73.8477 17.4109C73.6013 17.2964 73.3184 17.2391 72.9991 17.2391C72.6728 17.2391 72.3917 17.3415 72.1557 17.5463C71.9231 17.7511 71.7999 18.001 71.786 18.296C71.7791 18.4765 71.8433 18.6396 71.9786 18.7854C72.1938 19.011 72.5548 19.1273 73.0616 19.1342H73.0876C73.938 19.1481 74.5888 19.3946 75.04 19.8736Z" fill="white"/>
<path d="M65.7256 22.2424H68.8755C69.0455 22.2424 69.1896 22.3032 69.3076 22.4247C69.4291 22.5462 69.4898 22.6919 69.4898 22.862C69.4898 23.0321 69.4291 23.1761 69.3076 23.2941C69.1896 23.4156 69.0455 23.4764 68.8755 23.4764H65.1061C64.936 23.4764 64.7919 23.4156 64.6739 23.2941C64.5524 23.1761 64.4917 23.0321 64.4917 22.862V16.6196C64.4917 16.446 64.5524 16.3002 64.6739 16.1822C64.7919 16.0607 64.936 16 65.1061 16H65.1113L68.8755 16.0104C69.0455 16.0104 69.1913 16.0712 69.3128 16.1926C69.4308 16.3141 69.4898 16.4599 69.4898 16.63C69.4898 16.8 69.4291 16.9441 69.3076 17.0621C69.1896 17.1836 69.0455 17.2443 68.8755 17.2443H68.8703L65.7256 17.2339V19.1238H67.9956C68.1657 19.1238 68.3114 19.1828 68.4329 19.3008C68.5544 19.4223 68.6152 19.5681 68.6152 19.7382C68.6152 19.9083 68.5544 20.054 68.4329 20.1755C68.3114 20.2935 68.1657 20.3525 67.9956 20.3525H65.7256V22.2424Z" fill="white"/>
<path d="M58.1865 17.2443V22.2372L59.1393 22.2216C59.83 22.2216 60.4183 21.9787 60.9043 21.4927C61.3902 21.0068 61.6332 20.4202 61.6332 19.733C61.6332 19.0492 61.3902 18.4644 60.9043 17.9784C60.4183 17.489 59.8318 17.2443 59.1445 17.2443H58.1865ZM57.5774 23.4764H57.567C57.4004 23.4764 57.2563 23.4174 57.1349 23.2993C57.0134 23.1779 56.9526 23.0321 56.9526 22.862V16.63C56.9526 16.4599 57.0134 16.3141 57.1349 16.1926C57.2529 16.0746 57.3969 16.0156 57.567 16.0156H59.1445C60.1719 16.0156 61.0501 16.3783 61.779 17.1038C62.5044 17.8327 62.8671 18.7091 62.8671 19.733C62.8671 20.7604 62.5044 21.6368 61.779 22.3622C61.0501 23.0911 60.1719 23.4555 59.1445 23.4555L57.5774 23.4764Z" fill="white"/>
<path d="M24 2.02051C24.8701 1.51818 25.9295 1.48725 26.8232 1.92676L27 2.02051L45.084 12.4609C46.0121 12.9968 46.584 13.9878 46.584 15.0596V35.9404C46.584 36.9451 46.0813 37.8783 45.2539 38.4326L45.084 38.5391L27 48.9795C26.1299 49.4818 25.0705 49.5128 24.1768 49.0732L24 48.9795L5.91602 38.5391C4.98786 38.0032 4.41602 37.0122 4.41602 35.9404V15.0596C4.41602 14.055 4.91874 13.1217 5.74609 12.5674L5.91602 12.4609L24 2.02051Z" stroke="white" stroke-width="2"/>
<path d="M38.5 33L38.5 38" stroke="white" stroke-width="1.66667" stroke-linecap="round"/>
<path d="M41 35.5L36 35.5" stroke="white" stroke-width="1.66667" stroke-linecap="round"/>
<path d="M11.5 18L11.5 23" stroke="white" stroke-width="1.66667" stroke-linecap="round"/>
<path d="M14 20.5L9 20.5" stroke="white" stroke-width="1.66667" stroke-linecap="round"/>
<path d="M23 30L18 30" stroke="white" stroke-width="1.66667" stroke-linecap="round"/>
<path d="M32 11L27 11" stroke="white" stroke-width="1.66667" stroke-linecap="round"/>
<circle cx="21" cy="21" r="1" fill="white"/>
<circle cx="12" cy="30" r="1" fill="white"/>
<circle cx="25" cy="45" r="1" fill="white"/>
</g>
<defs>
<clipPath id="clip0_402_1459">
<rect width="137" height="51" fill="white"/>
</clipPath>
</defs>
</svg>
