<svg width="872" height="556" viewBox="0 0 872 556" fill="none" xmlns="http://www.w3.org/2000/svg">
<path d="M283.161 38.5411C283.552 38.1506 283.552 37.5174 283.161 37.1269L276.797 30.7629C276.406 30.3724 275.773 30.3724 275.383 30.7629C274.992 31.1534 274.992 31.7866 275.383 32.1771L281.04 37.834L275.383 43.4908C274.992 43.8814 274.992 44.5145 275.383 44.9051C275.773 45.2956 276.406 45.2956 276.797 44.9051L283.161 38.5411ZM280.869 38.834H282.454V36.834H280.869V38.834Z" fill="#1A1A1A"/>
<path d="M238.489 274.343V264.295H241.993C243.139 264.295 244.006 264.569 244.593 265.119C245.185 265.663 245.481 266.38 245.481 267.271C245.481 268.151 245.185 268.865 244.593 269.415C244.006 269.959 243.139 270.231 241.993 270.231H239.737V274.343H238.489ZM244.121 274.343L241.241 269.783H242.601L245.737 274.343H244.121ZM239.737 269.351H241.897C242.649 269.351 243.219 269.167 243.609 268.799C244.003 268.425 244.201 267.943 244.201 267.351C244.201 266.743 244.011 266.26 243.633 265.903C243.259 265.545 242.713 265.367 241.993 265.367H239.737V269.351ZM248.269 274.343V264.295H254.461V265.367H249.517V268.743H254.173V269.815H249.517V273.255H254.461V274.343H248.269ZM260.486 274.535C259.814 274.535 259.198 274.415 258.638 274.175C258.078 273.929 257.627 273.569 257.286 273.095C256.944 272.62 256.768 272.033 256.758 271.335H257.974C257.974 271.804 258.088 272.191 258.318 272.495C258.547 272.793 258.851 273.017 259.23 273.167C259.608 273.311 260.022 273.383 260.47 273.383C260.955 273.383 261.376 273.305 261.734 273.151C262.091 272.996 262.366 272.793 262.558 272.543C262.755 272.287 262.854 272.007 262.854 271.703C262.854 271.276 262.723 270.932 262.462 270.671C262.2 270.404 261.814 270.188 261.302 270.023L259.526 269.399C258.694 269.1 258.064 268.759 257.638 268.375C257.211 267.991 256.998 267.452 256.998 266.759C256.998 265.98 257.296 265.345 257.894 264.855C258.496 264.364 259.35 264.119 260.454 264.119C261.478 264.119 262.278 264.356 262.854 264.831C263.43 265.3 263.76 265.932 263.846 266.727H262.614C262.534 266.263 262.315 265.903 261.958 265.647C261.606 265.385 261.104 265.255 260.454 265.255C259.792 265.255 259.278 265.401 258.91 265.695C258.542 265.988 258.358 266.359 258.358 266.807C258.358 267.175 258.472 267.468 258.702 267.687C258.936 267.9 259.302 268.092 259.798 268.263L261.878 268.983C262.598 269.223 263.166 269.559 263.582 269.991C264.003 270.423 264.214 270.983 264.214 271.671C264.214 272.204 264.07 272.687 263.782 273.119C263.499 273.551 263.08 273.895 262.526 274.151C261.971 274.407 261.291 274.535 260.486 274.535ZM266.926 274.343V264.295H273.118V265.367H268.174V268.743H272.83V269.815H268.174V273.255H273.118V274.343H266.926ZM274.726 274.343L278.182 264.295H279.702L283.078 274.343H281.766L280.918 271.767H276.918L276.038 274.343H274.726ZM277.238 270.791H280.598L278.918 265.815L277.238 270.791ZM285.114 274.343V264.295H288.618C289.764 264.295 290.631 264.569 291.218 265.119C291.81 265.663 292.106 266.38 292.106 267.271C292.106 268.151 291.81 268.865 291.218 269.415C290.631 269.959 289.764 270.231 288.618 270.231H286.362V274.343H285.114ZM290.746 274.343L287.866 269.783H289.226L292.362 274.343H290.746ZM286.362 269.351H288.522C289.274 269.351 289.844 269.167 290.234 268.799C290.628 268.425 290.826 267.943 290.826 267.351C290.826 266.743 290.636 266.26 290.258 265.903C289.884 265.545 289.338 265.367 288.618 265.367H286.362V269.351ZM298.398 274.535C297.513 274.535 296.75 274.313 296.11 273.871C295.47 273.423 294.977 272.804 294.63 272.015C294.284 271.22 294.11 270.3 294.11 269.255C294.11 268.14 294.297 267.201 294.67 266.439C295.049 265.676 295.561 265.1 296.206 264.711C296.857 264.316 297.588 264.119 298.398 264.119C299.47 264.119 300.332 264.388 300.982 264.927C301.638 265.46 302.089 266.156 302.334 267.015L300.99 267.287C300.782 266.663 300.449 266.167 299.99 265.799C299.537 265.425 299.006 265.239 298.398 265.239C297.87 265.239 297.382 265.391 296.934 265.695C296.492 265.993 296.134 266.441 295.862 267.039C295.59 267.636 295.454 268.375 295.454 269.255C295.454 270.055 295.561 270.767 295.774 271.391C295.993 272.015 296.318 272.505 296.75 272.863C297.188 273.22 297.737 273.399 298.398 273.399C299.193 273.399 299.822 273.185 300.286 272.759C300.756 272.332 300.99 271.772 300.99 271.079H302.35C302.35 271.799 302.185 272.417 301.854 272.935C301.524 273.447 301.06 273.841 300.462 274.119C299.87 274.396 299.182 274.535 298.398 274.535ZM304.723 264.295H305.971V268.727H310.947V264.295H312.179V274.343H310.947V269.799H305.971V274.343H304.723V264.295Z" fill="#1A1A1A"/>
<path d="M178.658 470.147L181.47 471.019C182.437 471.319 183.216 471.778 183.806 472.397C184.398 473.01 184.778 473.737 184.948 474.577C185.117 475.417 185.051 476.323 184.75 477.296C184.451 478.259 183.994 479.038 183.379 479.635C182.764 480.232 182.038 480.621 181.2 480.802C180.364 480.978 179.461 480.916 178.494 480.616L175.682 479.744L178.658 470.147ZM179.523 471.571L177.196 479.074L178.816 479.577C179.539 479.801 180.211 479.831 180.832 479.666C181.458 479.503 181.998 479.182 182.454 478.703C182.916 478.221 183.258 477.621 183.481 476.903C183.706 476.179 183.762 475.493 183.65 474.844C183.546 474.192 183.281 473.624 182.855 473.14C182.437 472.653 181.866 472.298 181.143 472.073L179.523 471.571ZM188.25 483.842C187.619 483.647 187.103 483.311 186.703 482.835C186.31 482.356 186.058 481.783 185.946 481.118C185.839 480.454 185.902 479.747 186.134 478.998C186.382 478.199 186.738 477.555 187.202 477.068C187.665 476.581 188.192 476.261 188.781 476.109C189.376 475.953 189.992 475.973 190.629 476.171C191.184 476.343 191.623 476.602 191.946 476.948C192.269 477.294 192.491 477.695 192.612 478.151C192.733 478.607 192.764 479.091 192.706 479.604C192.654 480.113 192.528 480.618 192.328 481.12L187.04 479.48L187.267 478.747L191.768 480.142L191.345 480.263C191.454 479.967 191.529 479.661 191.572 479.344C191.619 479.03 191.615 478.727 191.56 478.436C191.507 478.14 191.384 477.879 191.192 477.652C191 477.425 190.718 477.254 190.346 477.138C189.877 476.993 189.448 476.991 189.058 477.133C188.668 477.274 188.333 477.516 188.053 477.86C187.775 478.198 187.566 478.594 187.426 479.047L187.274 479.536C187.116 480.045 187.051 480.525 187.079 480.975C187.112 481.426 187.248 481.817 187.486 482.148C187.724 482.479 188.08 482.717 188.554 482.864C189.027 483.011 189.453 483.018 189.829 482.883C190.206 482.749 190.497 482.468 190.702 482.04L191.94 482.424C191.714 482.884 191.411 483.248 191.032 483.516C190.654 483.778 190.228 483.939 189.752 483.998C189.275 484.057 188.775 484.005 188.25 483.842ZM196.192 486.305C195.484 486.086 194.924 485.803 194.512 485.457C194.101 485.107 193.828 484.718 193.692 484.29C193.559 483.858 193.555 483.41 193.682 482.947L194.828 483.302C194.71 483.774 194.788 484.18 195.061 484.522C195.342 484.86 195.782 485.123 196.384 485.309C196.699 485.407 197.005 485.446 197.302 485.426C197.598 485.407 197.853 485.332 198.067 485.203C198.28 485.074 198.421 484.897 198.491 484.673C198.579 484.387 198.544 484.131 198.386 483.903C198.227 483.675 197.938 483.429 197.517 483.165L196.238 482.266C195.682 481.881 195.29 481.469 195.064 481.03C194.843 480.588 194.807 480.13 194.954 479.656C195.137 479.065 195.544 478.672 196.174 478.476C196.804 478.281 197.542 478.314 198.387 478.577C199.284 478.855 199.922 479.254 200.303 479.774C200.683 480.294 200.798 480.832 200.648 481.388L199.471 481.023C199.525 480.688 199.437 480.396 199.207 480.146C198.979 479.891 198.608 479.684 198.094 479.524C197.6 479.371 197.178 479.363 196.828 479.5C196.485 479.634 196.272 479.836 196.188 480.106C196.031 480.61 196.349 481.116 197.141 481.624L198.441 482.563C199.009 482.946 199.411 483.342 199.648 483.75C199.889 484.16 199.936 484.602 199.79 485.075C199.676 485.442 199.449 485.752 199.108 486.003C198.768 486.255 198.347 486.415 197.845 486.483C197.344 486.551 196.793 486.491 196.192 486.305ZM205.122 478.973C204.878 478.897 204.706 478.769 204.606 478.587C204.507 478.4 204.494 478.192 204.565 477.963C204.634 477.738 204.761 477.582 204.945 477.494C205.128 477.406 205.342 477.4 205.587 477.476C205.831 477.551 206.004 477.678 206.106 477.854C206.208 478.031 206.224 478.231 206.154 478.455C206.083 478.685 205.954 478.849 205.767 478.947C205.582 479.04 205.367 479.049 205.122 478.973ZM201.726 487.82L203.996 480.5L205.188 480.87L202.918 488.19L201.726 487.82ZM207.618 493.768C206.869 493.536 206.253 493.228 205.769 492.843C205.284 492.464 204.943 492.048 204.748 491.597C204.557 491.152 204.527 490.716 204.66 490.288C204.835 489.722 205.176 489.353 205.682 489.181C206.191 489.015 206.774 489.034 207.432 489.238L207.961 489.854C207.411 489.683 206.95 489.666 206.578 489.802C206.206 489.938 205.959 490.205 205.836 490.602C205.713 491 205.822 491.402 206.165 491.81C206.507 492.218 207.091 492.549 207.917 492.805C208.528 492.995 209.09 493.072 209.604 493.035C210.121 493.006 210.552 492.888 210.895 492.682C211.241 492.482 211.465 492.219 211.566 491.893C211.638 491.664 211.615 491.439 211.499 491.219C211.382 491.004 211.15 490.843 210.803 490.735L207.961 489.854C207.467 489.701 207.062 489.494 206.746 489.234C206.437 488.971 206.223 488.687 206.105 488.382C205.988 488.078 205.974 487.78 206.064 487.49C206.159 487.184 206.326 486.952 206.565 486.791C206.805 486.631 207.079 486.538 207.389 486.511C207.704 486.486 208.022 486.523 208.343 486.622L208.435 487.136C208.282 487.089 208.116 487.077 207.936 487.099C207.762 487.118 207.601 487.179 207.451 487.284C207.308 487.385 207.205 487.537 207.142 487.741C207.069 487.975 207.105 488.201 207.25 488.419C207.394 488.637 207.721 488.825 208.231 488.983L211.073 489.864C211.761 490.078 212.256 490.39 212.558 490.802C212.865 491.216 212.939 491.682 212.777 492.202C212.629 492.681 212.316 493.086 211.839 493.419C211.36 493.756 210.759 493.966 210.035 494.049C209.31 494.136 208.504 494.043 207.618 493.768ZM209.661 487.936C209.101 487.762 208.629 487.493 208.245 487.128C207.866 486.765 207.607 486.341 207.467 485.856C207.332 485.373 207.346 484.867 207.511 484.337C207.676 483.802 207.952 483.374 208.336 483.052C208.726 482.732 209.179 482.532 209.695 482.452C210.218 482.368 210.759 482.413 211.32 482.587C211.865 482.756 212.324 483.021 212.698 483.383C213.078 483.741 213.339 484.162 213.479 484.647C213.619 485.131 213.606 485.641 213.44 486.176C213.276 486.706 212.999 487.131 212.609 487.451C212.219 487.771 211.766 487.974 211.248 488.059C210.735 488.146 210.206 488.105 209.661 487.936ZM209.927 487.08C210.487 487.254 210.976 487.215 211.394 486.965C211.812 486.715 212.102 486.331 212.263 485.811C212.429 485.276 212.408 484.795 212.2 484.367C211.993 483.935 211.61 483.632 211.05 483.458C210.494 483.286 210.004 483.318 209.579 483.555C209.161 483.788 208.868 484.172 208.703 484.707C208.541 485.226 208.565 485.708 208.773 486.153C208.987 486.599 209.371 486.908 209.927 487.08ZM213.359 484.492L212.865 484.088C212.997 483.66 213.197 483.311 213.465 483.043C213.734 482.769 214.052 482.591 214.418 482.509C214.786 482.422 215.183 482.445 215.611 482.577L215.155 483.726C214.696 483.584 214.314 483.574 214.008 483.697C213.703 483.814 213.487 484.08 213.359 484.492ZM220.023 493.494L221.355 489.2C221.571 488.502 221.567 487.92 221.343 487.454C221.126 486.984 220.729 486.661 220.154 486.482C219.716 486.346 219.299 486.348 218.904 486.488C218.509 486.628 218.155 486.895 217.843 487.29C217.532 487.679 217.281 488.182 217.09 488.799L216.632 488.656C216.896 487.806 217.233 487.115 217.643 486.583C218.054 486.051 218.522 485.694 219.048 485.511C219.58 485.324 220.155 485.326 220.771 485.518C221.347 485.696 221.798 485.978 222.125 486.365C222.459 486.747 222.661 487.212 222.731 487.759C222.802 488.305 222.735 488.907 222.531 489.565L221.2 493.859L220.023 493.494ZM214.827 491.883L217.092 484.578L218.116 484.895L217.763 486.629L216.019 492.252L214.827 491.883ZM227.523 485.919C227.279 485.844 227.107 485.715 227.007 485.533C226.908 485.346 226.894 485.138 226.966 484.909C227.035 484.685 227.162 484.529 227.345 484.44C227.529 484.352 227.743 484.346 227.988 484.422C228.232 484.498 228.405 484.624 228.507 484.801C228.608 484.977 228.624 485.178 228.555 485.402C228.484 485.631 228.355 485.795 228.168 485.893C227.983 485.987 227.768 485.995 227.523 485.919ZM224.127 494.766L226.397 487.446L227.589 487.816L225.319 495.136L224.127 494.766ZM233.798 497.765L235.13 493.471C235.346 492.773 235.342 492.191 235.118 491.725C234.901 491.256 234.504 490.932 233.929 490.753C233.49 490.618 233.074 490.62 232.679 490.76C232.284 490.899 231.93 491.167 231.618 491.561C231.307 491.951 231.056 492.454 230.865 493.07L230.407 492.928C230.67 492.077 231.007 491.386 231.418 490.854C231.829 490.323 232.297 489.965 232.823 489.782C233.355 489.596 233.93 489.598 234.546 489.789C235.122 489.968 235.573 490.25 235.9 490.636C236.233 491.019 236.436 491.483 236.506 492.03C236.577 492.577 236.51 493.179 236.306 493.836L234.975 498.13L233.798 497.765ZM228.602 496.154L230.867 488.849L231.891 489.167L231.538 490.9L229.794 496.524L228.602 496.154ZM239.242 503.574C238.493 503.342 237.877 503.034 237.393 502.649C236.908 502.27 236.567 501.854 236.372 501.403C236.181 500.958 236.151 500.522 236.284 500.094C236.459 499.529 236.8 499.16 237.306 498.987C237.815 498.821 238.398 498.84 239.055 499.044L239.585 499.66C239.034 499.49 238.574 499.472 238.202 499.608C237.83 499.744 237.583 500.011 237.46 500.409C237.336 500.806 237.446 501.208 237.789 501.616C238.131 502.024 238.715 502.356 239.54 502.612C240.152 502.801 240.714 502.878 241.228 502.842C241.745 502.812 242.175 502.694 242.519 502.488C242.865 502.289 243.089 502.026 243.19 501.7C243.261 501.471 243.239 501.246 243.123 501.026C243.005 500.81 242.773 500.649 242.427 500.542L239.585 499.66C239.09 499.507 238.685 499.301 238.37 499.041C238.06 498.777 237.847 498.493 237.729 498.189C237.611 497.884 237.598 497.587 237.688 497.296C237.782 496.991 237.95 496.758 238.189 496.598C238.429 496.437 238.703 496.344 239.013 496.317C239.328 496.292 239.646 496.329 239.967 496.429L240.059 496.943C239.906 496.895 239.739 496.883 239.559 496.905C239.386 496.924 239.225 496.986 239.075 497.09C238.932 497.191 238.829 497.343 238.766 497.547C238.693 497.781 238.729 498.007 238.874 498.225C239.018 498.443 239.345 498.631 239.855 498.789L242.697 499.671C243.385 499.884 243.88 500.197 244.182 500.609C244.489 501.022 244.562 501.489 244.401 502.008C244.253 502.487 243.94 502.893 243.463 503.225C242.984 503.562 242.383 503.772 241.659 503.855C240.934 503.943 240.128 503.849 239.242 503.574ZM241.285 497.742C240.725 497.568 240.253 497.299 239.869 496.934C239.49 496.571 239.231 496.147 239.09 495.663C238.955 495.18 238.97 494.673 239.134 494.143C239.3 493.609 239.575 493.18 239.96 492.858C240.35 492.538 240.803 492.338 241.319 492.258C241.842 492.174 242.383 492.219 242.944 492.393C243.489 492.562 243.948 492.827 244.322 493.189C244.702 493.547 244.962 493.968 245.102 494.453C245.243 494.938 245.23 495.447 245.064 495.982C244.9 496.512 244.623 496.937 244.233 497.257C243.843 497.577 243.389 497.78 242.872 497.865C242.359 497.952 241.83 497.911 241.285 497.742ZM241.55 496.886C242.111 497.06 242.6 497.022 243.018 496.772C243.436 496.522 243.726 496.137 243.887 495.617C244.053 495.082 244.032 494.601 243.824 494.174C243.617 493.741 243.234 493.438 242.674 493.264C242.118 493.092 241.628 493.124 241.203 493.361C240.784 493.594 240.492 493.978 240.326 494.513C240.165 495.033 240.189 495.515 240.397 495.959C240.611 496.405 240.995 496.714 241.55 496.886ZM244.983 494.299L244.488 493.894C244.621 493.466 244.821 493.118 245.089 492.849C245.358 492.575 245.676 492.397 246.042 492.315C246.409 492.228 246.807 492.251 247.235 492.384L246.778 493.532C246.32 493.39 245.938 493.38 245.632 493.503C245.327 493.621 245.111 493.886 244.983 494.299Z" fill="#1A1A1A"/>
<path fill-rule="evenodd" clip-rule="evenodd" d="M470.741 137.937C501.804 182.225 516.908 235.749 513.579 289.743C510.25 343.736 488.686 395 452.418 435.137C416.687 474.68 368.771 501.116 316.315 510.273L321.679 514.124C322.128 514.446 322.23 515.071 321.908 515.52C321.586 515.968 320.961 516.071 320.513 515.749L313.201 510.5C312.753 510.178 312.65 509.553 312.972 509.105L318.221 501.794C318.543 501.345 319.168 501.242 319.616 501.564C320.065 501.886 320.167 502.511 319.845 502.96L316.015 508.296C368.014 499.208 415.512 472.997 450.934 433.796C486.898 393.995 508.281 343.161 511.582 289.62C514.883 236.078 499.906 183.003 469.104 139.085C438.301 95.1673 393.499 63.0102 342.034 47.88C290.569 32.7498 235.492 35.5432 185.822 55.8029C136.152 76.0625 94.8328 112.588 68.6318 159.397C42.4308 206.205 32.9006 260.524 41.6019 313.457C50.3032 366.389 76.7202 414.798 116.527 450.757L115.186 452.241C75.0433 415.979 48.4031 367.161 39.6284 313.781C30.8536 260.401 40.4643 205.624 66.8866 158.42C93.3089 111.215 134.977 74.3817 185.066 53.951C235.156 33.5202 290.699 30.7032 342.598 45.9612C394.498 61.2192 439.679 93.6479 470.741 137.937Z" fill="#1A1A1A"/>
<path d="M684.049 275.05C684.439 274.659 684.439 274.026 684.049 273.636L677.685 267.272C677.294 266.881 676.661 266.881 676.271 267.272C675.88 267.662 675.88 268.295 676.271 268.686L681.928 274.343L676.271 280C675.88 280.39 675.88 281.023 676.271 281.414C676.661 281.804 677.294 281.804 677.685 281.414L684.049 275.05ZM512.342 275.343L683.342 275.343L683.342 273.343L512.342 273.343L512.342 275.343Z" fill="#1A1A1A"/>
<rect x="783.342" y="187.757" width="123.315" height="123.315" transform="rotate(45 783.342 187.757)" stroke="#1A1A1A" stroke-width="2"/>
<path d="M749.802 260.543L751.914 260.51L754.56 269.19L754.08 269.198L756.436 261.128L757.716 261.109L760.413 268.972L759.981 268.979L762.488 260.347L764.616 260.314L761.209 270.752L759.225 270.782L757.099 264.687L757.275 264.684L755.337 270.842L753.354 270.873L749.802 260.543ZM764.652 270.699L768.028 260.261L770.395 260.225L773.947 270.555L771.963 270.586L771.209 268.357L767.353 268.417L766.652 270.668L764.652 270.699ZM767.811 266.986L770.739 266.94L769.214 262.499L767.811 266.986ZM773.814 260.172L776.053 260.138L778.602 264.563L778.234 264.569L780.741 260.065L782.964 260.031L779.363 266.183L779.429 270.471L777.541 270.5L777.475 266.213L773.814 260.172ZM787.842 270.565C787.123 270.576 786.457 270.461 785.845 270.22C785.238 269.979 784.742 269.605 784.355 269.099C783.974 268.593 783.764 267.945 783.725 267.156L785.581 267.128C785.587 267.528 785.691 267.854 785.892 268.107C786.094 268.36 786.361 268.548 786.693 268.671C787.031 268.788 787.4 268.844 787.8 268.838C788.184 268.832 788.524 268.776 788.821 268.67C789.124 268.564 789.359 268.416 789.527 268.227C789.7 268.032 789.784 267.804 789.78 267.543C789.775 267.196 789.664 266.926 789.448 266.732C789.237 266.538 788.898 266.362 788.431 266.204L786.371 265.419C785.566 265.117 784.947 264.761 784.514 264.352C784.081 263.942 783.859 263.372 783.848 262.642C783.835 261.799 784.158 261.112 784.816 260.579C785.475 260.046 786.401 259.77 787.596 259.752C788.758 259.734 789.661 259.992 790.304 260.526C790.947 261.055 791.318 261.801 791.419 262.765L789.563 262.794C789.487 262.384 789.295 262.059 788.988 261.819C788.68 261.573 788.225 261.454 787.622 261.464C787.089 261.472 786.669 261.59 786.363 261.819C786.057 262.042 785.907 262.322 785.912 262.658C785.917 262.946 786.016 263.174 786.211 263.342C786.411 263.504 786.717 263.659 787.13 263.807L789.415 264.652C790.188 264.939 790.783 265.306 791.201 265.753C791.618 266.2 791.832 266.765 791.843 267.447C791.852 268.071 791.704 268.615 791.396 269.078C791.088 269.536 790.635 269.895 790.036 270.155C789.438 270.415 788.706 270.552 787.842 270.565ZM802.443 270.34C801.52 270.354 800.701 270.164 799.986 269.77C799.275 269.375 798.714 268.779 798.302 267.98C797.889 267.181 797.674 266.184 797.656 264.989C797.637 263.773 797.821 262.765 798.209 261.964C798.597 261.158 799.139 260.555 799.837 260.155C800.541 259.749 801.353 259.54 802.276 259.525C803.204 259.511 804.026 259.701 804.741 260.095C805.456 260.484 806.02 261.076 806.433 261.87C806.845 262.663 807.06 263.655 807.079 264.844C807.097 266.054 806.913 267.065 806.525 267.877C806.138 268.688 805.592 269.299 804.889 269.71C804.186 270.116 803.371 270.326 802.443 270.34ZM802.416 268.628C803.264 268.615 803.931 268.285 804.417 267.637C804.909 266.99 805.145 266.063 805.127 264.858C805.109 263.696 804.844 262.795 804.333 262.158C803.827 261.52 803.15 261.208 802.302 261.221C801.47 261.234 800.809 261.57 800.317 262.228C799.826 262.881 799.589 263.791 799.607 264.959C799.626 266.159 799.891 267.075 800.402 267.707C800.913 268.334 801.584 268.641 802.416 268.628ZM809.392 270.009L809.232 259.626L815.775 259.525L815.801 261.157L811.145 261.229L811.187 263.964L815.443 263.899L815.468 265.515L811.212 265.58L811.28 269.98L809.392 270.009ZM753.266 279.491L755.858 279.451L749.119 286.564L749.079 283.988L753.266 279.491ZM751.029 283.814L756.306 289.83L753.874 289.867L749.736 285.066L751.029 283.814ZM747.267 279.584L749.171 279.555L749.331 289.937L747.427 289.967L747.267 279.584ZM757.702 279.423L759.766 279.391L764.6 286.725L764.456 286.728L764.342 279.321L766.229 279.291L766.39 289.674L764.47 289.704L759.325 281.926L759.629 281.922L759.75 289.777L757.863 289.806L757.702 279.423ZM773.333 289.791C772.41 289.805 771.591 289.615 770.876 289.221C770.166 288.827 769.604 288.23 769.192 287.431C768.78 286.632 768.564 285.635 768.546 284.44C768.527 283.225 768.712 282.216 769.099 281.415C769.487 280.609 770.03 280.006 770.728 279.606C771.431 279.201 772.244 278.991 773.166 278.976C774.094 278.962 774.916 279.152 775.631 279.547C776.347 279.936 776.91 280.527 777.323 281.321C777.735 282.114 777.95 283.106 777.969 284.295C777.987 285.506 777.803 286.517 777.415 287.328C777.028 288.139 776.483 288.751 775.779 289.161C775.076 289.567 774.261 289.777 773.333 289.791ZM773.307 288.079C774.154 288.066 774.821 287.736 775.307 287.088C775.799 286.441 776.035 285.514 776.017 284.309C775.999 283.147 775.734 282.247 775.223 281.609C774.717 280.971 774.04 280.659 773.192 280.672C772.36 280.685 771.699 281.021 771.208 281.679C770.716 282.332 770.48 283.242 770.498 284.41C770.516 285.61 770.781 286.526 771.292 287.158C771.803 287.785 772.475 288.092 773.307 288.079ZM778.795 279.098L780.906 279.065L783.552 287.745L783.073 287.753L785.428 279.684L786.708 279.664L789.406 287.527L788.974 287.534L791.481 278.902L793.609 278.869L790.201 289.307L788.218 289.338L786.091 283.242L786.267 283.239L784.33 289.398L782.346 289.428L778.795 279.098ZM795.421 289.227L795.261 278.844L797.149 278.815L797.309 289.197L795.421 289.227ZM800.104 278.769L802.167 278.737L807.001 286.072L806.857 286.074L806.743 278.667L808.631 278.638L808.791 289.02L806.871 289.05L801.726 281.272L802.03 281.268L802.152 289.123L800.264 289.152L800.104 278.769ZM815.558 289.14C814.71 289.153 813.942 288.941 813.252 288.504C812.563 288.066 812.009 287.451 811.591 286.657C811.179 285.858 810.965 284.922 810.948 283.851C810.935 283.003 811.046 282.241 811.281 281.565C811.521 280.889 811.859 280.311 812.294 279.829C812.729 279.348 813.244 278.98 813.837 278.725C814.431 278.466 815.077 278.33 815.775 278.319C816.746 278.304 817.562 278.503 818.225 278.914C818.893 279.325 819.417 279.981 819.799 280.882L817.87 281.36C817.592 280.921 817.272 280.59 816.911 280.366C816.555 280.137 816.154 280.026 815.706 280.033C815.194 280.041 814.73 280.2 814.313 280.51C813.896 280.815 813.567 281.25 813.325 281.814C813.083 282.377 812.968 283.046 812.98 283.819C812.991 284.544 813.11 285.177 813.337 285.718C813.569 286.258 813.888 286.678 814.293 286.975C814.697 287.273 815.164 287.418 815.691 287.41C816.139 287.403 816.538 287.298 816.887 287.095C817.241 286.887 817.516 286.595 817.713 286.219C817.916 285.842 818.013 285.39 818.004 284.862L818.42 284.855C818.434 285.719 818.341 286.47 818.143 287.108C817.95 287.746 817.641 288.241 817.214 288.595C816.787 288.948 816.235 289.13 815.558 289.14ZM818.338 288.873L818.031 286.59L818.003 284.798L815.667 284.786L815.649 283.586L819.792 283.522L819.874 288.85L818.338 288.873Z" fill="#1A1A1A"/>
</svg>
