<svg width="872" height="555" viewBox="0 0 872 555" fill="none" xmlns="http://www.w3.org/2000/svg">
<path d="M282.237 37.816C282.627 37.4255 282.627 36.7923 282.237 36.4018L275.873 30.0378C275.482 29.6473 274.849 29.6473 274.458 30.0378C274.068 30.4283 274.068 31.0615 274.458 31.452L280.115 37.1089L274.458 42.7657C274.068 43.1563 274.068 43.7894 274.458 44.18C274.849 44.5705 275.482 44.5705 275.873 44.18L282.237 37.816ZM279.944 38.1089H281.53V36.1089H279.944V38.1089Z" fill="#F5F5F5"/>
<path d="M239.866 260.858C240.432 260.858 240.938 260.938 241.386 261.098C241.845 261.258 242.229 261.487 242.538 261.786C242.858 262.085 243.104 262.442 243.274 262.858C243.445 263.263 243.53 263.717 243.53 264.218C243.53 264.634 243.466 265.029 243.338 265.402C243.21 265.775 243.024 266.111 242.778 266.41C242.544 266.698 242.25 266.943 241.898 267.146C241.557 267.338 241.162 267.471 240.714 267.546L243.626 272.618H242.218L239.386 267.626H237.498V272.618H236.266V260.858H239.866ZM237.498 266.49H239.978C240.768 266.49 241.349 266.282 241.722 265.866C242.096 265.45 242.282 264.906 242.282 264.234C242.282 263.562 242.08 263.023 241.674 262.618C241.269 262.202 240.666 261.994 239.866 261.994H237.498V266.49ZM253.196 260.858V261.962H247.452V265.994H252.428V267.082H247.452V271.514H253.42V272.618H246.22V260.858H253.196ZM261.7 263.61C261.519 263.098 261.204 262.671 260.756 262.33C260.308 261.989 259.77 261.818 259.14 261.818C258.724 261.818 258.372 261.877 258.084 261.994C257.796 262.111 257.562 262.266 257.38 262.458C257.21 262.639 257.082 262.842 256.996 263.066C256.922 263.29 256.884 263.514 256.884 263.738C256.884 264.186 257.028 264.559 257.316 264.858C257.604 265.157 258.031 265.397 258.596 265.578L260.34 266.154C261.215 266.431 261.887 266.858 262.356 267.434C262.826 267.999 263.06 268.671 263.06 269.45C263.06 269.845 262.98 270.245 262.82 270.65C262.671 271.045 262.442 271.402 262.132 271.722C261.823 272.031 261.428 272.287 260.948 272.49C260.468 272.682 259.908 272.778 259.268 272.778C258.81 272.778 258.367 272.709 257.94 272.57C257.514 272.421 257.13 272.218 256.788 271.962C256.447 271.695 256.154 271.381 255.908 271.018C255.663 270.655 255.492 270.261 255.396 269.834L256.58 269.514C256.655 269.845 256.778 270.143 256.948 270.41C257.13 270.666 257.338 270.885 257.572 271.066C257.818 271.247 258.084 271.386 258.372 271.482C258.671 271.578 258.97 271.626 259.268 271.626C259.706 271.626 260.084 271.562 260.404 271.434C260.724 271.295 260.986 271.125 261.188 270.922C261.402 270.709 261.556 270.474 261.652 270.218C261.748 269.962 261.796 269.706 261.796 269.45C261.796 268.949 261.658 268.506 261.38 268.122C261.103 267.727 260.602 267.418 259.876 267.194L258.244 266.682C257.412 266.415 256.767 266.047 256.308 265.578C255.85 265.109 255.62 264.495 255.62 263.738C255.62 263.354 255.695 262.981 255.844 262.618C255.994 262.255 256.212 261.935 256.5 261.658C256.799 261.37 257.167 261.141 257.604 260.97C258.042 260.789 258.554 260.698 259.14 260.698C259.62 260.698 260.063 260.767 260.468 260.906C260.874 261.034 261.236 261.215 261.556 261.45C261.876 261.674 262.148 261.946 262.372 262.266C262.596 262.575 262.762 262.911 262.868 263.274L261.7 263.61ZM272.774 260.858V261.962H267.03V265.994H272.006V267.082H267.03V271.514H272.998V272.618H265.798V260.858H272.774ZM280.988 269.338H276.86L275.932 272.618H274.636L278.108 260.826H279.724L283.228 272.618H281.916L280.988 269.338ZM277.18 268.234H280.684L278.924 262.106L277.18 268.234ZM289.054 260.858C289.619 260.858 290.126 260.938 290.574 261.098C291.032 261.258 291.416 261.487 291.726 261.786C292.046 262.085 292.291 262.442 292.462 262.858C292.632 263.263 292.718 263.717 292.718 264.218C292.718 264.634 292.654 265.029 292.526 265.402C292.398 265.775 292.211 266.111 291.966 266.41C291.731 266.698 291.438 266.943 291.086 267.146C290.744 267.338 290.35 267.471 289.902 267.546L292.814 272.618H291.406L288.574 267.626H286.686V272.618H285.454V260.858H289.054ZM286.686 266.49H289.166C289.955 266.49 290.536 266.282 290.91 265.866C291.283 265.45 291.47 264.906 291.47 264.234C291.47 263.562 291.267 263.023 290.862 262.618C290.456 262.202 289.854 261.994 289.054 261.994H286.686V266.49ZM301.488 264.282C301.296 263.546 300.976 262.965 300.528 262.538C300.08 262.101 299.552 261.882 298.944 261.882C298.442 261.882 298.005 261.999 297.632 262.234C297.269 262.469 296.965 262.799 296.72 263.226C296.474 263.653 296.288 264.165 296.16 264.762C296.042 265.359 295.984 266.021 295.984 266.746C295.984 267.471 296.042 268.133 296.16 268.73C296.288 269.327 296.474 269.839 296.72 270.266C296.976 270.682 297.29 271.007 297.664 271.242C298.037 271.477 298.474 271.594 298.976 271.594C299.594 271.594 300.133 271.413 300.592 271.05C301.061 270.677 301.418 270.138 301.664 269.434L302.8 269.85C302.65 270.255 302.453 270.639 302.208 271.002C301.973 271.354 301.696 271.663 301.376 271.93C301.056 272.186 300.693 272.394 300.288 272.554C299.893 272.703 299.456 272.778 298.976 272.778C298.293 272.778 297.685 272.634 297.152 272.346C296.629 272.047 296.186 271.631 295.824 271.098C295.461 270.565 295.184 269.93 294.992 269.194C294.81 268.458 294.72 267.642 294.72 266.746C294.72 265.85 294.81 265.034 294.992 264.298C295.173 263.551 295.44 262.911 295.792 262.378C296.154 261.845 296.597 261.434 297.12 261.146C297.653 260.847 298.261 260.698 298.944 260.698C299.36 260.698 299.76 260.767 300.144 260.906C300.528 261.045 300.88 261.253 301.2 261.53C301.53 261.797 301.818 262.133 302.064 262.538C302.32 262.933 302.517 263.397 302.656 263.93L301.488 264.282ZM306.534 260.858V265.978H311.814V260.858H313.046V272.618H311.814V267.114H306.534V272.618H305.302V260.858H306.534Z" fill="#F5F5F5"/>
<rect x="141.445" y="141.148" width="265.902" height="265.902" stroke="#F5F5F5" stroke-width="2" stroke-dasharray="4 4"/>
<path d="M171.746 464.725L174.39 465.545C175.144 465.779 175.779 466.127 176.295 466.588C176.811 467.05 177.2 467.595 177.463 468.224C177.739 468.845 177.882 469.537 177.891 470.3C177.914 471.055 177.796 471.85 177.537 472.686C177.278 473.521 176.923 474.249 176.474 474.869C176.038 475.482 175.529 475.972 174.946 476.338C174.367 476.695 173.734 476.917 173.048 477.006C172.364 477.084 171.651 477.008 170.907 476.778L168.263 475.958L171.746 464.725ZM176.314 472.306C176.526 471.624 176.63 470.981 176.628 470.377C176.628 469.763 176.532 469.208 176.34 468.713C176.147 468.218 175.86 467.793 175.478 467.44C175.099 467.077 174.629 466.809 174.069 466.635L172.587 466.175L169.777 475.238L171.259 475.697C171.819 475.871 172.357 475.921 172.871 475.846C173.386 475.771 173.861 475.589 174.297 475.299C174.736 475 175.129 474.597 175.476 474.09C175.823 473.584 176.102 472.989 176.314 472.306ZM181.756 479.221C182.205 479.36 182.66 479.406 183.121 479.359C183.595 479.305 184.025 479.126 184.41 478.821L185.195 479.583C184.674 480.003 184.085 480.266 183.426 480.375C182.78 480.476 182.121 480.422 181.448 480.214C180.888 480.04 180.409 479.785 180.01 479.45C179.622 479.117 179.317 478.732 179.095 478.295C178.877 477.847 178.748 477.361 178.71 476.835C178.682 476.313 178.754 475.777 178.924 475.227C179.095 474.676 179.34 474.194 179.658 473.779C179.98 473.354 180.352 473.017 180.775 472.769C181.199 472.52 181.659 472.367 182.157 472.309C182.656 472.252 183.17 472.305 183.699 472.469C184.209 472.627 184.649 472.864 185.02 473.18C185.391 473.496 185.679 473.865 185.883 474.285C186.101 474.699 186.227 475.157 186.261 475.659C186.296 476.161 186.231 476.677 186.066 477.207C186.032 477.319 185.993 477.424 185.952 477.523C185.92 477.625 185.893 477.711 185.871 477.783L179.957 475.949C179.867 476.312 179.835 476.665 179.863 477.008C179.89 477.352 179.981 477.671 180.136 477.964C180.294 478.248 180.506 478.498 180.774 478.715C181.042 478.932 181.369 479.101 181.756 479.221ZM183.407 473.467C183.06 473.36 182.725 473.323 182.402 473.357C182.082 473.38 181.782 473.466 181.502 473.614C181.235 473.754 180.996 473.948 180.785 474.196C180.575 474.443 180.403 474.725 180.272 475.041L185.024 476.515L185.039 476.469C185.13 476.14 185.157 475.819 185.12 475.506C185.083 475.193 184.989 474.902 184.838 474.631C184.697 474.364 184.502 474.131 184.251 473.93C184.014 473.723 183.733 473.568 183.407 473.467ZM194.329 477.792C194.058 477.407 193.742 477.074 193.382 476.795C193.032 476.519 192.653 476.318 192.246 476.191C191.706 476.024 191.241 475.992 190.852 476.094C190.463 476.197 190.217 476.411 190.116 476.737C189.977 477.186 190.273 477.618 191.004 478.034L192.665 479.052C193.256 479.414 193.663 479.814 193.885 480.251C194.12 480.681 194.165 481.131 194.019 481.599C193.912 481.946 193.738 482.238 193.496 482.476C193.268 482.707 192.99 482.883 192.662 483.004C192.337 483.116 191.969 483.169 191.557 483.164C191.156 483.163 190.726 483.091 190.267 482.949C188.912 482.528 187.956 481.813 187.398 480.803L188.374 480.251C188.574 480.648 188.858 480.993 189.225 481.285C189.603 481.581 190.031 481.803 190.51 481.952C191.101 482.135 191.616 482.166 192.055 482.046C192.498 481.915 192.782 481.646 192.909 481.238C192.981 481.004 192.953 480.772 192.823 480.542C192.704 480.315 192.478 480.105 192.147 479.913L190.414 478.856C189.802 478.488 189.378 478.111 189.14 477.724C188.906 477.328 188.86 476.9 189.002 476.442C189.1 476.126 189.254 475.861 189.466 475.648C189.691 475.427 189.954 475.263 190.255 475.155C190.556 475.048 190.896 474.997 191.274 475.002C191.652 475.008 192.055 475.077 192.483 475.21C193.054 475.387 193.565 475.646 194.018 475.987C194.47 476.328 194.86 476.728 195.187 477.187L194.329 477.792ZM195.957 483.524L199.029 484.476L200.759 478.898L197.687 477.946L197.976 477.014L202.148 478.307L200.129 484.817L203.171 485.76L202.882 486.693L195.668 484.456L195.957 483.524ZM202.097 476.365C201.863 476.292 201.689 476.149 201.577 475.936C201.465 475.722 201.445 475.498 201.517 475.264C201.59 475.03 201.733 474.856 201.947 474.744C202.163 474.621 202.389 474.596 202.623 474.669C202.857 474.741 203.029 474.89 203.139 475.113C203.261 475.33 203.286 475.556 203.214 475.79C203.141 476.024 202.993 476.196 202.769 476.305C202.555 476.418 202.331 476.438 202.097 476.365ZM205.428 483.428C205.592 482.899 205.827 482.43 206.132 482.022C206.44 481.604 206.801 481.269 207.214 481.017C207.63 480.755 208.089 480.591 208.59 480.523C209.092 480.455 209.612 480.505 210.152 480.672C210.702 480.843 211.162 481.125 211.531 481.518C211.914 481.905 212.184 482.368 212.34 482.908L212.748 481.594L213.863 481.94L211.48 489.627C211.309 490.177 211.069 490.644 210.76 491.029C210.458 491.426 210.102 491.729 209.691 491.937C209.277 492.155 208.821 492.276 208.322 492.3C207.831 492.337 207.31 492.27 206.759 492.1C206.056 491.882 205.46 491.518 204.97 491.009C204.491 490.503 204.182 489.932 204.043 489.298L205.106 489.058C205.213 489.504 205.451 489.907 205.82 490.267C206.185 490.638 206.608 490.897 207.086 491.045C207.881 491.292 208.562 491.257 209.129 490.942C209.706 490.629 210.118 490.076 210.364 489.281L210.876 487.63C210.466 488.017 209.987 488.282 209.44 488.425C208.893 488.568 208.345 488.554 207.794 488.384C207.275 488.223 206.826 487.977 206.448 487.648C206.083 487.311 205.797 486.921 205.588 486.477C205.383 486.022 205.261 485.532 205.223 485.007C205.195 484.484 205.264 483.958 205.428 483.428ZM209.963 481.769C209.576 481.649 209.201 481.616 208.837 481.671C208.477 481.716 208.146 481.831 207.843 482.016C207.55 482.205 207.29 482.448 207.063 482.746C206.837 483.044 206.664 483.387 206.544 483.774C206.423 484.161 206.371 484.547 206.386 484.932C206.404 485.306 206.485 485.655 206.63 485.979C206.779 486.293 206.987 486.575 207.256 486.826C207.527 487.067 207.851 487.245 208.228 487.362C208.616 487.482 208.986 487.513 209.339 487.455C209.702 487.4 210.035 487.28 210.338 487.095C210.644 486.9 210.904 486.657 211.117 486.365C211.344 486.067 211.514 485.734 211.628 485.368L211.67 485.23C211.781 484.874 211.826 484.513 211.805 484.149C211.783 483.785 211.699 483.446 211.55 483.132C211.402 482.818 211.192 482.541 210.92 482.301C210.659 482.063 210.34 481.886 209.963 481.769ZM217.808 483.163L217.415 484.432C217.812 484.086 218.258 483.855 218.751 483.74C219.245 483.625 219.751 483.649 220.271 483.81C220.699 483.942 221.077 484.144 221.407 484.413C221.74 484.673 221.999 484.988 222.186 485.358C222.373 485.729 222.479 486.142 222.506 486.597C222.545 487.045 222.485 487.528 222.324 488.048L221.002 492.312L219.886 491.966L221.175 487.809C221.39 487.116 221.385 486.5 221.161 485.962C220.951 485.416 220.494 485.035 219.791 484.817C219.312 484.668 218.825 484.673 218.329 484.832C217.843 484.994 217.407 485.284 217.021 485.7L215.5 490.606L214.384 490.26L216.692 482.817L217.808 483.163ZM224.089 492.247L227.161 493.2L228.89 487.622L225.819 486.669L226.108 485.737L230.28 487.031L228.261 493.541L231.302 494.484L231.013 495.416L223.8 493.179L224.089 492.247ZM230.229 485.088C229.994 485.016 229.821 484.873 229.709 484.659C229.596 484.445 229.576 484.222 229.649 483.987C229.722 483.753 229.865 483.58 230.078 483.467C230.295 483.344 230.52 483.319 230.755 483.392C230.989 483.465 231.161 483.613 231.27 483.837C231.393 484.053 231.418 484.279 231.345 484.513C231.273 484.748 231.124 484.919 230.901 485.029C230.687 485.141 230.463 485.161 230.229 485.088ZM236.761 489.04L236.368 490.309C236.765 489.963 237.211 489.733 237.705 489.618C238.198 489.503 238.705 489.526 239.224 489.687C239.652 489.82 240.031 490.021 240.36 490.291C240.693 490.55 240.953 490.865 241.139 491.236C241.326 491.606 241.433 492.019 241.459 492.474C241.499 492.922 241.438 493.406 241.277 493.925L239.955 498.189L238.839 497.843L240.128 493.686C240.343 492.993 240.339 492.378 240.115 491.839C239.904 491.294 239.447 490.912 238.744 490.694C238.266 490.546 237.778 490.551 237.282 490.71C236.796 490.872 236.361 491.161 235.975 491.577L234.453 496.483L233.338 496.137L235.646 488.695L236.761 489.04ZM243.335 495.183C243.499 494.653 243.734 494.184 244.039 493.776C244.347 493.358 244.708 493.024 245.121 492.772C245.537 492.51 245.996 492.345 246.497 492.277C246.999 492.209 247.519 492.259 248.059 492.427C248.609 492.597 249.069 492.879 249.438 493.273C249.821 493.66 250.09 494.123 250.247 494.663L250.654 493.349L251.77 493.695L249.386 501.382C249.216 501.932 248.976 502.399 248.667 502.783C248.365 503.181 248.009 503.484 247.598 503.691C247.184 503.909 246.728 504.03 246.229 504.054C245.737 504.092 245.216 504.025 244.666 503.854C243.963 503.636 243.367 503.273 242.877 502.764C242.397 502.257 242.088 501.687 241.95 501.052L243.013 500.812C243.12 501.259 243.358 501.662 243.727 502.022C244.092 502.392 244.514 502.651 244.993 502.8C245.788 503.046 246.469 503.012 247.036 502.696C247.613 502.384 248.024 501.83 248.271 501.036L248.783 499.385C248.372 499.772 247.894 500.036 247.347 500.18C246.8 500.323 246.251 500.309 245.701 500.138C245.182 499.977 244.733 499.732 244.355 499.402C243.99 499.066 243.704 498.676 243.495 498.231C243.29 497.777 243.168 497.287 243.13 496.761C243.102 496.239 243.17 495.713 243.335 495.183ZM247.87 493.524C247.483 493.404 247.107 493.371 246.744 493.426C246.384 493.471 246.052 493.586 245.749 493.771C245.456 493.959 245.197 494.202 244.97 494.501C244.744 494.799 244.57 495.142 244.45 495.529C244.33 495.916 244.278 496.302 244.293 496.686C244.311 497.06 244.392 497.409 244.537 497.734C244.686 498.048 244.894 498.33 245.162 498.581C245.434 498.821 245.758 499 246.135 499.117C246.522 499.237 246.892 499.268 247.246 499.21C247.609 499.155 247.942 499.035 248.245 498.85C248.551 498.654 248.811 498.411 249.024 498.12C249.251 497.822 249.421 497.489 249.535 497.122L249.577 496.985C249.688 496.628 249.732 496.268 249.711 495.904C249.69 495.54 249.605 495.201 249.457 494.887C249.309 494.573 249.099 494.296 248.827 494.055C248.566 493.818 248.247 493.641 247.87 493.524Z" fill="#F5F5F5"/>
<path fill-rule="evenodd" clip-rule="evenodd" d="M469.817 137.212C500.879 181.501 515.983 235.025 512.654 289.018C509.325 343.012 487.761 394.275 451.493 434.412C415.762 473.956 367.846 500.391 315.39 509.549L320.754 513.399C321.203 513.721 321.305 514.346 320.983 514.795C320.661 515.244 320.036 515.346 319.588 515.024L312.277 509.776C311.828 509.454 311.725 508.829 312.047 508.38L317.296 501.069C317.618 500.62 318.243 500.518 318.691 500.84C319.14 501.162 319.243 501.787 318.921 502.235L315.09 507.571C367.089 498.483 414.587 472.273 450.009 433.072C485.973 393.27 507.357 342.436 510.658 288.895C513.959 235.354 498.982 182.278 468.179 138.361C437.377 94.4427 392.574 62.2856 341.109 47.1554C289.644 32.0251 234.567 34.8186 184.897 55.0782C135.227 75.3379 93.908 111.863 67.707 158.672C41.506 205.481 31.9758 259.799 40.6771 312.732C49.3783 365.665 75.7954 414.074 115.602 450.032L114.261 451.516C74.1185 415.254 47.4783 366.436 38.7036 313.056C29.9288 259.677 39.5395 204.899 65.9618 157.695C92.3841 110.491 134.052 73.6571 184.141 53.2264C234.231 32.7956 289.774 29.9785 341.673 45.2366C393.573 60.4946 438.754 92.9233 469.817 137.212Z" fill="#F5F5F5"/>
<path d="M683.124 274.325C683.515 273.935 683.515 273.302 683.124 272.911L676.76 266.547C676.37 266.157 675.736 266.157 675.346 266.547C674.955 266.938 674.955 267.571 675.346 267.961L681.003 273.618L675.346 279.275C674.955 279.666 674.955 280.299 675.346 280.689C675.736 281.08 676.37 281.08 676.76 280.689L683.124 274.325ZM511.417 274.618L682.417 274.618L682.417 272.618L511.417 272.618L511.417 274.618Z" fill="#F5F5F5"/>
<rect x="782.417" y="187.032" width="123.315" height="123.315" transform="rotate(45 782.417 187.032)" stroke="#F5F5F5" stroke-width="2"/>
<path d="M740.673 266.808L740.747 271.608L741.771 271.592L744.513 266.749L746.801 266.714L743.543 272.349L747.51 278.464L745.094 278.501L741.897 273.494L740.777 273.511L740.855 278.567L738.807 278.598L738.626 266.84L740.673 266.808ZM750.796 270.397L750.81 271.324C751.051 271.001 751.367 270.745 751.758 270.558C752.161 270.37 752.586 270.273 753.034 270.266C753.471 270.259 753.878 270.333 754.254 270.487C754.64 270.631 754.979 270.849 755.272 271.144C755.564 271.438 755.794 271.797 755.961 272.221C756.138 272.645 756.231 273.129 756.239 273.673L756.311 278.328L754.359 278.359L754.29 273.879C754.282 273.335 754.142 272.905 753.87 272.589C753.598 272.274 753.196 272.12 752.663 272.128C752.289 272.134 751.944 272.24 751.628 272.448C751.311 272.656 751.064 272.905 750.887 273.196L750.967 278.411L749.016 278.441L748.892 270.426L750.796 270.397ZM758.255 274.33C758.246 273.754 758.334 273.214 758.518 272.71C758.702 272.206 758.968 271.764 759.314 271.385C759.66 271.007 760.077 270.707 760.564 270.486C761.062 270.265 761.615 270.15 762.223 270.14C762.82 270.131 763.366 270.229 763.86 270.435C764.354 270.641 764.779 270.928 765.137 271.296C765.495 271.663 765.773 272.097 765.973 272.595C766.184 273.093 766.293 273.63 766.302 274.206C766.311 274.771 766.218 275.306 766.023 275.81C765.839 276.315 765.573 276.756 765.227 277.135C764.881 277.514 764.464 277.819 763.977 278.05C763.49 278.271 762.947 278.386 762.35 278.395C761.764 278.404 761.218 278.306 760.713 278.101C760.219 277.884 759.788 277.592 759.42 277.224C759.062 276.857 758.778 276.424 758.568 275.925C758.368 275.427 758.264 274.895 758.255 274.33ZM760.239 274.299C760.244 274.609 760.296 274.901 760.396 275.177C760.496 275.442 760.633 275.68 760.807 275.891C760.992 276.091 761.213 276.253 761.471 276.377C761.729 276.49 762.012 276.544 762.322 276.54C762.631 276.535 762.907 276.472 763.151 276.351C763.405 276.219 763.616 276.05 763.783 275.845C763.961 275.629 764.096 275.387 764.188 275.119C764.28 274.84 764.323 274.546 764.318 274.237C764.314 273.927 764.261 273.635 764.161 273.359C764.06 273.083 763.918 272.845 763.734 272.645C763.56 272.435 763.344 272.273 763.086 272.159C762.839 272.046 762.561 271.991 762.252 271.996C761.953 272.001 761.676 272.064 761.422 272.185C761.168 272.306 760.952 272.475 760.774 272.691C760.607 272.896 760.472 273.138 760.369 273.417C760.277 273.696 760.234 273.99 760.239 274.299ZM768.01 270.131L769.962 270.101L770.714 275.306L771.934 270.343L773.069 270.325L774.409 275.233L774.985 270.024L776.905 269.994L775.637 278.03L773.829 278.058L772.526 273.454L771.381 278.096L769.573 278.124L768.01 270.131ZM778.763 276.254L781.483 276.212L781.35 267.589L778.71 267.63L778.684 265.902L783.275 265.831L783.435 276.182L786.73 276.131L786.757 277.859L778.79 277.982L778.763 276.254ZM791.965 276.227C792.338 276.221 792.678 276.146 792.985 276.003C793.303 275.859 793.582 275.626 793.823 275.302L795.515 276.108C795.077 276.755 794.54 277.222 793.905 277.509C793.279 277.785 792.642 277.928 791.991 277.938C791.394 277.948 790.843 277.855 790.339 277.66C789.845 277.465 789.414 277.189 789.046 276.832C788.688 276.464 788.404 276.031 788.193 275.533C787.994 275.024 787.889 274.46 787.879 273.841C787.871 273.276 787.953 272.741 788.127 272.237C788.311 271.733 788.566 271.297 788.891 270.929C789.226 270.551 789.627 270.251 790.093 270.031C790.57 269.81 791.096 269.695 791.672 269.686C792.248 269.677 792.772 269.776 793.245 269.982C793.728 270.177 794.137 270.454 794.473 270.811C794.82 271.169 795.088 271.586 795.277 272.063C795.466 272.54 795.564 273.045 795.572 273.579C795.575 273.76 795.577 273.915 795.579 274.043C795.581 274.16 795.572 274.283 795.553 274.411L789.922 274.498C789.983 275.02 790.198 275.443 790.565 275.768C790.944 276.082 791.41 276.235 791.965 276.227ZM791.746 271.397C791.245 271.405 790.826 271.566 790.489 271.881C790.163 272.184 789.983 272.571 789.947 273.041L793.499 272.986C793.47 272.507 793.293 272.12 792.969 271.827C792.644 271.533 792.237 271.39 791.746 271.397ZM801.208 277.796C800.664 277.805 800.161 277.7 799.699 277.483C799.237 277.267 798.838 276.974 798.501 276.606C798.175 276.237 797.918 275.804 797.729 275.306C797.54 274.807 797.441 274.281 797.433 273.726C797.424 273.161 797.506 272.626 797.68 272.122C797.853 271.618 798.103 271.177 798.428 270.798C798.752 270.42 799.142 270.115 799.598 269.884C800.053 269.653 800.558 269.533 801.112 269.525C801.582 269.517 802.02 269.601 802.428 269.776C802.847 269.941 803.181 270.154 803.43 270.417L803.355 265.522L805.307 265.492L805.493 277.57L803.701 277.598L803.685 276.526C803.487 276.849 803.166 277.142 802.722 277.405C802.288 277.657 801.784 277.787 801.208 277.796ZM801.397 271.377C801.098 271.381 800.827 271.444 800.584 271.565C800.34 271.686 800.129 271.849 799.951 272.055C799.784 272.26 799.649 272.502 799.546 272.781C799.455 273.06 799.411 273.365 799.416 273.695C799.421 274.026 799.474 274.329 799.574 274.605C799.685 274.881 799.828 275.119 800.001 275.319C800.186 275.518 800.402 275.675 800.649 275.789C800.896 275.902 801.169 275.957 801.467 275.952C802.075 275.943 802.563 275.732 802.93 275.321C803.307 274.899 803.491 274.353 803.481 273.681L803.479 273.585C803.469 272.923 803.269 272.388 802.878 271.978C802.499 271.568 802.005 271.367 801.397 271.377ZM807.369 273.573C807.36 272.986 807.448 272.441 807.632 271.936C807.816 271.422 808.071 270.98 808.396 270.613C808.721 270.234 809.105 269.935 809.55 269.715C809.995 269.494 810.478 269.38 811.001 269.372C811.481 269.365 811.925 269.454 812.333 269.64C812.752 269.825 813.087 270.065 813.336 270.36L813.322 269.432L815.274 269.402L815.401 277.673C815.411 278.271 815.323 278.805 815.138 279.278C814.953 279.75 814.688 280.149 814.341 280.474C814.004 280.799 813.592 281.046 813.104 281.213C812.626 281.391 812.089 281.485 811.492 281.494C810.724 281.506 810.023 281.346 809.388 281.014C808.764 280.683 808.277 280.216 807.926 279.613L809.576 278.643C809.762 278.96 810.027 279.207 810.371 279.383C810.726 279.57 811.085 279.66 811.448 279.655C812.087 279.645 812.581 279.477 812.928 279.152C813.286 278.826 813.46 278.349 813.45 277.719L813.431 276.488C813.338 276.66 813.201 276.817 813.022 276.958C812.854 277.099 812.664 277.225 812.452 277.335C812.251 277.434 812.033 277.507 811.799 277.553C811.576 277.61 811.358 277.64 811.145 277.643C810.622 277.651 810.13 277.557 809.668 277.362C809.217 277.155 808.818 276.873 808.471 276.516C808.134 276.148 807.866 275.715 807.667 275.216C807.477 274.707 807.378 274.159 807.369 273.573ZM811.334 271.223C811.014 271.228 810.732 271.291 810.488 271.412C810.245 271.533 810.034 271.702 809.856 271.918C809.689 272.123 809.559 272.365 809.467 272.644C809.386 272.923 809.348 273.222 809.353 273.542C809.358 273.841 809.405 274.128 809.494 274.404C809.584 274.68 809.716 274.923 809.89 275.134C810.063 275.334 810.279 275.496 810.537 275.62C810.795 275.733 811.089 275.788 811.42 275.783C811.75 275.777 812.038 275.714 812.281 275.593C812.535 275.472 812.746 275.309 812.914 275.103C813.081 274.887 813.205 274.646 813.286 274.378C813.367 274.099 813.406 273.81 813.401 273.512L813.4 273.416C813.399 273.362 813.398 273.314 813.397 273.272C813.397 273.229 813.391 273.181 813.379 273.128C813.343 272.862 813.27 272.612 813.16 272.379C813.06 272.146 812.918 271.946 812.734 271.778C812.561 271.599 812.356 271.464 812.12 271.371C811.884 271.268 811.622 271.219 811.334 271.223ZM821.727 275.768C822.1 275.762 822.44 275.687 822.747 275.544C823.065 275.4 823.344 275.167 823.585 274.843L825.277 275.649C824.839 276.296 824.302 276.763 823.667 277.05C823.042 277.326 822.404 277.469 821.753 277.479C821.156 277.489 820.605 277.396 820.101 277.201C819.607 277.006 819.176 276.73 818.808 276.373C818.45 276.005 818.166 275.572 817.956 275.074C817.756 274.565 817.651 274.001 817.641 273.382C817.633 272.817 817.715 272.282 817.889 271.778C818.073 271.274 818.328 270.838 818.653 270.47C818.988 270.092 819.389 269.792 819.855 269.572C820.332 269.351 820.858 269.236 821.434 269.227C822.01 269.218 822.534 269.317 823.007 269.523C823.49 269.718 823.899 269.995 824.236 270.352C824.582 270.71 824.85 271.127 825.039 271.604C825.228 272.081 825.326 272.586 825.334 273.12C825.337 273.301 825.34 273.456 825.341 273.584C825.343 273.701 825.335 273.824 825.315 273.952L819.684 274.039C819.745 274.561 819.96 274.984 820.327 275.309C820.706 275.623 821.172 275.776 821.727 275.768ZM821.508 270.938C821.007 270.946 820.588 271.107 820.252 271.422C819.926 271.726 819.745 272.112 819.709 272.582L823.261 272.528C823.232 272.048 823.056 271.661 822.731 271.368C822.406 271.074 821.999 270.931 821.508 270.938Z" fill="#F5F5F5"/>
</svg>
