<svg width="765" height="475" viewBox="0 0 765 475" fill="none" xmlns="http://www.w3.org/2000/svg">
<circle cx="237.5" cy="237.5" r="237" stroke="white"/>
<circle cx="527.5" cy="237.5" r="237" stroke="white"/>
<path d="M382 425.226C326.023 381.778 290 313.846 290 237.5C290 160.7 326.453 92.4143 383 49.001" stroke="white" stroke-width="3"/>
<path d="M383 425.225C438.977 381.777 475 313.845 475 237.499C475 160.699 438.547 92.4133 382 49" stroke="white" stroke-width="3"/>
<path d="M356.003 220.24H359.075C359.961 220.24 360.729 220.4 361.379 220.72C362.03 221.029 362.569 221.456 362.995 222C363.422 222.533 363.737 223.157 363.939 223.872C364.153 224.587 364.259 225.339 364.259 226.128C364.259 226.917 364.158 227.669 363.955 228.384C363.763 229.088 363.459 229.712 363.043 230.256C362.627 230.789 362.094 231.216 361.443 231.536C360.793 231.845 360.019 232 359.123 232H356.003V220.24ZM362.147 226.128C362.147 225.584 362.089 225.072 361.971 224.592C361.854 224.112 361.673 223.691 361.427 223.328C361.182 222.965 360.862 222.677 360.467 222.464C360.083 222.251 359.625 222.144 359.091 222.144H358.067V230.096H359.139C359.673 230.096 360.126 229.989 360.499 229.776C360.883 229.563 361.193 229.28 361.427 228.928C361.673 228.565 361.854 228.144 361.971 227.664C362.089 227.184 362.147 226.672 362.147 226.128ZM373.493 220.24V222.112H368.197V225.008H372.725V226.832H368.197V230.128H373.669V232H366.149V220.24H373.493ZM381.121 223.456C381.015 223.072 380.791 222.725 380.449 222.416C380.119 222.107 379.681 221.952 379.137 221.952C378.839 221.952 378.588 221.995 378.385 222.08C378.183 222.165 378.017 222.277 377.889 222.416C377.761 222.555 377.665 222.704 377.601 222.864C377.548 223.024 377.521 223.179 377.521 223.328C377.521 223.627 377.607 223.893 377.777 224.128C377.959 224.352 378.289 224.539 378.769 224.688L380.481 225.216C381.388 225.493 382.081 225.931 382.561 226.528C383.052 227.125 383.297 227.84 383.297 228.672C383.297 229.131 383.201 229.573 383.009 230C382.828 230.416 382.567 230.784 382.225 231.104C381.884 231.424 381.473 231.68 380.993 231.872C380.513 232.064 379.98 232.16 379.393 232.16C378.871 232.16 378.375 232.085 377.905 231.936C377.436 231.776 377.02 231.557 376.657 231.28C376.295 231.003 375.985 230.672 375.729 230.288C375.484 229.893 375.313 229.461 375.217 228.992L377.217 228.464C377.303 228.987 377.537 229.419 377.921 229.76C378.316 230.101 378.801 230.272 379.377 230.272C379.687 230.272 379.959 230.229 380.193 230.144C380.428 230.048 380.62 229.925 380.769 229.776C380.929 229.616 381.047 229.445 381.121 229.264C381.196 229.072 381.233 228.88 381.233 228.688C381.233 228.304 381.111 227.973 380.865 227.696C380.62 227.408 380.225 227.179 379.681 227.008L378.177 226.56C377.303 226.293 376.625 225.893 376.145 225.36C375.665 224.816 375.425 224.128 375.425 223.296C375.425 222.859 375.511 222.448 375.681 222.064C375.863 221.669 376.113 221.328 376.433 221.04C376.753 220.741 377.137 220.507 377.585 220.336C378.044 220.165 378.556 220.08 379.121 220.08C379.623 220.08 380.097 220.155 380.545 220.304C380.993 220.453 381.393 220.656 381.745 220.912C382.097 221.168 382.391 221.472 382.625 221.824C382.86 222.165 383.015 222.533 383.089 222.928L381.121 223.456ZM392.303 230.16V232H385.007V230.16H387.631V222.08H385.071V220.24H392.239V222.08H389.679V230.16H392.303ZM397.773 225.36H402.317V229.824C402.157 230.155 401.943 230.464 401.677 230.752C401.41 231.04 401.106 231.291 400.765 231.504C400.423 231.707 400.045 231.867 399.629 231.984C399.223 232.101 398.797 232.16 398.349 232.16C397.645 232.16 397.005 232.027 396.429 231.76C395.853 231.493 395.357 231.104 394.941 230.592C394.535 230.08 394.221 229.451 393.997 228.704C393.773 227.957 393.661 227.104 393.661 226.144C393.661 225.227 393.773 224.395 393.997 223.648C394.221 222.901 394.535 222.267 394.941 221.744C395.357 221.211 395.847 220.8 396.413 220.512C396.989 220.224 397.623 220.08 398.317 220.08C399.181 220.08 399.959 220.309 400.653 220.768C401.346 221.216 401.863 221.851 402.205 222.672L400.349 223.488C399.922 222.539 399.245 222.064 398.317 222.064C397.527 222.064 396.903 222.427 396.445 223.152C395.986 223.877 395.757 224.875 395.757 226.144C395.757 227.403 395.981 228.395 396.429 229.12C396.877 229.845 397.517 230.208 398.349 230.208C398.818 230.208 399.223 230.112 399.565 229.92C399.917 229.728 400.194 229.483 400.397 229.184V227.184H397.773V225.36ZM404.299 232V220.24H406.283L409.995 227.92V220.24H412.059V232H410.075L406.347 224.336V232H404.299ZM329.772 250.16V252H322.476V250.16H325.1V242.08H322.54V240.24H329.708V242.08H327.148V250.16H329.772ZM332.018 252V240.24H334.002L337.714 247.92V240.24H339.778V252H337.794L334.066 244.336V252H332.018ZM350.132 240.24V242.144H346.868V252H344.772V242.144H341.508V240.24H350.132ZM359.165 240.24V242.112H353.869V245.008H358.397V246.832H353.869V250.128H359.341V252H351.821V240.24H359.165ZM361.61 240.24H363.69V250.096H368.922V252H361.61V240.24ZM370.892 240.24H372.972V250.096H378.204V252H370.892V240.24ZM386.756 250.16V252H379.46V250.16H382.084V242.08H379.524V240.24H386.692V242.08H384.132V250.16H386.756ZM392.226 245.36H396.77V249.824C396.61 250.155 396.397 250.464 396.13 250.752C395.863 251.04 395.559 251.291 395.218 251.504C394.877 251.707 394.498 251.867 394.082 251.984C393.677 252.101 393.25 252.16 392.802 252.16C392.098 252.16 391.458 252.027 390.882 251.76C390.306 251.493 389.81 251.104 389.394 250.592C388.989 250.08 388.674 249.451 388.45 248.704C388.226 247.957 388.114 247.104 388.114 246.144C388.114 245.227 388.226 244.395 388.45 243.648C388.674 242.901 388.989 242.267 389.394 241.744C389.81 241.211 390.301 240.8 390.866 240.512C391.442 240.224 392.077 240.08 392.77 240.08C393.634 240.08 394.413 240.309 395.106 240.768C395.799 241.216 396.317 241.851 396.658 242.672L394.802 243.488C394.375 242.539 393.698 242.064 392.77 242.064C391.981 242.064 391.357 242.427 390.898 243.152C390.439 243.877 390.21 244.875 390.21 246.144C390.21 247.403 390.434 248.395 390.882 249.12C391.33 249.845 391.97 250.208 392.802 250.208C393.271 250.208 393.677 250.112 394.018 249.92C394.37 249.728 394.647 249.483 394.85 249.184V247.184H392.226V245.36ZM406.368 240.24V242.112H401.072V245.008H405.6V246.832H401.072V250.128H406.544V252H399.024V240.24H406.368ZM408.674 252V240.24H410.658L414.37 247.92V240.24H416.434V252H414.45L410.722 244.336V252H408.674ZM424.708 244.224C424.644 243.925 424.553 243.643 424.436 243.376C424.329 243.109 424.196 242.88 424.036 242.688C423.876 242.485 423.678 242.325 423.444 242.208C423.22 242.091 422.953 242.032 422.644 242.032C421.908 242.032 421.337 242.373 420.932 243.056C420.526 243.739 420.324 244.768 420.324 246.144C420.324 247.509 420.537 248.528 420.964 249.2C421.39 249.861 421.956 250.192 422.66 250.192C423.246 250.192 423.716 250.016 424.068 249.664C424.42 249.301 424.676 248.837 424.836 248.272L426.788 248.88C426.649 249.275 426.462 249.669 426.228 250.064C426.004 250.448 425.721 250.8 425.38 251.12C425.049 251.429 424.654 251.68 424.196 251.872C423.748 252.064 423.225 252.16 422.628 252.16C421.934 252.16 421.31 252.016 420.756 251.728C420.212 251.44 419.748 251.035 419.364 250.512C418.99 249.979 418.702 249.344 418.5 248.608C418.308 247.861 418.212 247.04 418.212 246.144C418.212 245.205 418.313 244.363 418.516 243.616C418.718 242.859 419.006 242.219 419.38 241.696C419.764 241.173 420.228 240.773 420.772 240.496C421.326 240.219 421.95 240.08 422.644 240.08C423.71 240.08 424.59 240.416 425.284 241.088C425.977 241.749 426.446 242.656 426.692 243.808L424.708 244.224ZM436.134 240.24V242.112H430.838V245.008H435.366V246.832H430.838V250.128H436.31V252H428.79V240.24H436.134ZM443.762 243.456C443.655 243.072 443.431 242.725 443.09 242.416C442.759 242.107 442.322 241.952 441.778 241.952C441.479 241.952 441.229 241.995 441.026 242.08C440.823 242.165 440.658 242.277 440.53 242.416C440.402 242.555 440.306 242.704 440.242 242.864C440.189 243.024 440.162 243.179 440.162 243.328C440.162 243.627 440.247 243.893 440.418 244.128C440.599 244.352 440.93 244.539 441.41 244.688L443.122 245.216C444.029 245.493 444.722 245.931 445.202 246.528C445.693 247.125 445.938 247.84 445.938 248.672C445.938 249.131 445.842 249.573 445.65 250C445.469 250.416 445.207 250.784 444.866 251.104C444.525 251.424 444.114 251.68 443.634 251.872C443.154 252.064 442.621 252.16 442.034 252.16C441.511 252.16 441.015 252.085 440.546 251.936C440.077 251.776 439.661 251.557 439.298 251.28C438.935 251.003 438.626 250.672 438.37 250.288C438.125 249.893 437.954 249.461 437.858 248.992L439.858 248.464C439.943 248.987 440.178 249.419 440.562 249.76C440.957 250.101 441.442 250.272 442.018 250.272C442.327 250.272 442.599 250.229 442.834 250.144C443.069 250.048 443.261 249.925 443.41 249.776C443.57 249.616 443.687 249.445 443.762 249.264C443.837 249.072 443.874 248.88 443.874 248.688C443.874 248.304 443.751 247.973 443.506 247.696C443.261 247.408 442.866 247.179 442.322 247.008L440.818 246.56C439.943 246.293 439.266 245.893 438.786 245.36C438.306 244.816 438.066 244.128 438.066 243.296C438.066 242.859 438.151 242.448 438.322 242.064C438.503 241.669 438.754 241.328 439.074 241.04C439.394 240.741 439.778 240.507 440.226 240.336C440.685 240.165 441.197 240.08 441.762 240.08C442.263 240.08 442.738 240.155 443.186 240.304C443.634 240.453 444.034 240.656 444.386 240.912C444.738 241.168 445.031 241.472 445.266 241.824C445.501 242.165 445.655 242.533 445.73 242.928L443.762 243.456Z" fill="white"/>
<path d="M160.687 230.24V235.36H165.967V230.24H167.199V242H165.967V236.496H160.687V242H159.455V230.24H160.687ZM170.829 230.24V237.744C170.829 238.779 171.053 239.579 171.501 240.144C171.959 240.709 172.605 240.992 173.437 240.992C174.269 240.992 174.909 240.709 175.357 240.144C175.815 239.579 176.045 238.779 176.045 237.744V230.24H177.277V237.824C177.277 238.485 177.186 239.083 177.005 239.616C176.834 240.149 176.578 240.608 176.237 240.992C175.906 241.365 175.506 241.653 175.037 241.856C174.567 242.059 174.034 242.16 173.437 242.16C172.85 242.16 172.317 242.059 171.837 241.856C171.367 241.653 170.962 241.365 170.621 240.992C170.29 240.608 170.034 240.149 169.853 239.616C169.682 239.083 169.597 238.485 169.597 237.824V230.24H170.829ZM179.675 242V230.24H181.179L183.531 236.8L185.851 230.24H187.355V242H186.123V232.432L184.011 238.272H183.035L180.907 232.416V242H179.675ZM195.813 238.72H191.685L190.757 242H189.461L192.933 230.208H194.549L198.053 242H196.741L195.813 238.72ZM192.005 237.616H195.509L193.749 231.488L192.005 237.616ZM201.239 230.24L206.119 239.6V230.24H207.351V242H206.103L201.223 232.64V242H199.991V230.24H201.239Z" fill="white"/>
<path d="M566.477 150.72H562.349L561.421 154H560.125L563.597 142.208H565.213L568.717 154H567.405L566.477 150.72ZM562.669 149.616H566.173L564.413 143.488L562.669 149.616ZM577.455 153.024V154H570.447V153.024H572.927V147.184H570.447V146.208H574.031V148.176C574.298 147.472 574.687 146.949 575.199 146.608C575.722 146.267 576.303 146.096 576.943 146.096C577.199 146.096 577.444 146.112 577.679 146.144C577.914 146.176 578.154 146.235 578.399 146.32L578.159 147.44C577.956 147.365 577.732 147.307 577.487 147.264C577.242 147.221 576.996 147.2 576.751 147.2C576.292 147.2 575.892 147.296 575.551 147.488C575.22 147.669 574.948 147.925 574.735 148.256C574.522 148.576 574.362 148.955 574.255 149.392C574.148 149.819 574.095 150.277 574.095 150.768V153.024H577.455ZM582.465 146.208L582.625 143.904H583.601V146.208H587.377V147.184H583.601V151.088C583.601 151.803 583.772 152.32 584.113 152.64C584.454 152.949 584.865 153.104 585.345 153.104C585.75 153.093 586.124 152.987 586.465 152.784C586.817 152.581 587.1 152.315 587.313 151.984L588.145 152.64C588.017 152.821 587.868 153.003 587.697 153.184C587.526 153.365 587.324 153.531 587.089 153.68C586.854 153.819 586.588 153.931 586.289 154.016C585.99 154.112 585.654 154.16 585.281 154.16C584.438 154.16 583.75 153.904 583.217 153.392C582.694 152.869 582.433 152.101 582.433 151.088V147.184H580.049V146.208H582.465ZM590.254 153.024H593.47V147.184H590.254V146.208H594.622V153.024H597.806V154H590.254V153.024ZM593.998 144.368C593.753 144.368 593.545 144.283 593.374 144.112C593.204 143.941 593.118 143.733 593.118 143.488C593.118 143.243 593.204 143.035 593.374 142.864C593.545 142.683 593.753 142.592 593.998 142.592C594.244 142.592 594.452 142.683 594.622 142.864C594.804 143.035 594.894 143.243 594.894 143.488C594.894 143.733 594.804 143.941 594.622 144.112C594.452 144.283 594.244 144.368 593.998 144.368ZM599.552 153.024H601.952V147.184H599.632V146.208H601.952V145.344C601.952 144.811 602.027 144.331 602.176 143.904C602.336 143.467 602.56 143.099 602.848 142.8C603.136 142.491 603.478 142.256 603.872 142.096C604.278 141.925 604.726 141.84 605.216 141.84C605.632 141.84 606.011 141.899 606.352 142.016C606.694 142.123 606.998 142.272 607.264 142.464C607.531 142.656 607.76 142.875 607.952 143.12C608.144 143.365 608.294 143.621 608.4 143.888L607.312 144.288C607.131 143.893 606.864 143.573 606.512 143.328C606.171 143.072 605.739 142.944 605.216 142.944C604.544 142.944 604.027 143.152 603.664 143.568C603.302 143.973 603.12 144.565 603.12 145.344V146.208H607.056V147.184H603.12V153.024H607.136V154H599.552V153.024ZM610.098 153.024H613.314V147.184H610.098V146.208H614.466V153.024H617.65V154H610.098V153.024ZM613.842 144.368C613.597 144.368 613.389 144.283 613.218 144.112C613.047 143.941 612.962 143.733 612.962 143.488C612.962 143.243 613.047 143.035 613.218 142.864C613.389 142.683 613.597 142.592 613.842 142.592C614.087 142.592 614.295 142.683 614.466 142.864C614.647 143.035 614.738 143.243 614.738 143.488C614.738 143.733 614.647 143.941 614.466 144.112C614.295 144.283 614.087 144.368 613.842 144.368ZM619.325 150.176C619.325 149.632 619.415 149.115 619.597 148.624C619.778 148.123 620.034 147.685 620.365 147.312C620.695 146.939 621.101 146.645 621.581 146.432C622.061 146.208 622.594 146.096 623.181 146.096C623.959 146.096 624.647 146.299 625.245 146.704C625.853 147.109 626.306 147.664 626.605 148.368L625.517 148.736C625.335 148.288 625.026 147.925 624.589 147.648C624.162 147.36 623.693 147.216 623.181 147.216C622.754 147.216 622.37 147.296 622.029 147.456C621.698 147.616 621.421 147.835 621.197 148.112C620.973 148.379 620.802 148.693 620.685 149.056C620.567 149.408 620.509 149.781 620.509 150.176C620.509 150.571 620.567 150.944 620.685 151.296C620.813 151.637 620.989 151.941 621.213 152.208C621.447 152.464 621.73 152.667 622.061 152.816C622.391 152.965 622.759 153.04 623.165 153.04C623.687 153.04 624.162 152.928 624.589 152.704C625.015 152.48 625.378 152.165 625.677 151.76L626.637 152.352C626.231 152.928 625.735 153.376 625.149 153.696C624.562 154.005 623.901 154.16 623.165 154.16C622.61 154.16 622.093 154.059 621.613 153.856C621.143 153.653 620.738 153.376 620.397 153.024C620.066 152.661 619.805 152.24 619.613 151.76C619.421 151.269 619.325 150.741 619.325 150.176ZM629.098 153.024H632.314V147.184H629.098V146.208H633.466V153.024H636.65V154H629.098V153.024ZM632.842 144.368C632.597 144.368 632.389 144.283 632.218 144.112C632.047 143.941 631.962 143.733 631.962 143.488C631.962 143.243 632.047 143.035 632.218 142.864C632.389 142.683 632.597 142.592 632.842 142.592C633.087 142.592 633.295 142.683 633.466 142.864C633.647 143.035 633.738 143.243 633.738 143.488C633.738 143.733 633.647 143.941 633.466 144.112C633.295 144.283 633.087 144.368 632.842 144.368ZM641.7 154.16C641.177 154.16 640.692 154.059 640.244 153.856C639.796 153.643 639.406 153.355 639.076 152.992C638.745 152.629 638.484 152.203 638.292 151.712C638.1 151.221 638.004 150.693 638.004 150.128C638.004 149.563 638.1 149.035 638.292 148.544C638.484 148.053 638.745 147.627 639.076 147.264C639.417 146.901 639.817 146.619 640.276 146.416C640.734 146.203 641.23 146.096 641.764 146.096C642.404 146.096 642.969 146.235 643.46 146.512C643.95 146.789 644.34 147.147 644.628 147.584V146.208H645.796V154H644.708V152.528C644.59 152.731 644.436 152.933 644.244 153.136C644.052 153.328 643.822 153.504 643.556 153.664C643.3 153.813 643.012 153.931 642.692 154.016C642.382 154.112 642.052 154.16 641.7 154.16ZM641.908 147.2C641.513 147.2 641.15 147.275 640.82 147.424C640.489 147.573 640.201 147.781 639.956 148.048C639.721 148.315 639.534 148.629 639.396 148.992C639.257 149.344 639.188 149.723 639.188 150.128C639.188 150.533 639.252 150.917 639.38 151.28C639.518 151.632 639.705 151.941 639.94 152.208C640.185 152.464 640.473 152.672 640.804 152.832C641.145 152.981 641.513 153.056 641.908 153.056C642.313 153.056 642.681 152.981 643.012 152.832C643.342 152.672 643.625 152.464 643.86 152.208C644.105 151.941 644.292 151.632 644.42 151.28C644.558 150.917 644.628 150.528 644.628 150.112V149.952C644.628 149.579 644.558 149.227 644.42 148.896C644.281 148.565 644.089 148.277 643.844 148.032C643.598 147.776 643.31 147.573 642.98 147.424C642.649 147.275 642.292 147.2 641.908 147.2ZM647.953 153.024H651.025V142.896H648.033V141.92H652.193V153.024H655.761V154H647.953V153.024Z" fill="white"/>
<path d="M608.354 174.646C608.158 174.451 607.842 174.451 607.646 174.646L604.464 177.828C604.269 178.024 604.269 178.34 604.464 178.536C604.66 178.731 604.976 178.731 605.172 178.536L608 175.707L610.828 178.536C611.024 178.731 611.34 178.731 611.536 178.536C611.731 178.34 611.731 178.024 611.536 177.828L608.354 174.646ZM608.5 213L608.5 175L607.5 175L607.5 213L608.5 213Z" fill="white"/>
<path d="M565.551 230.24L570.431 239.6V230.24H571.663V242H570.415L565.535 232.64V242H564.303V230.24H565.551ZM573.697 236.128C573.697 235.2 573.793 234.363 573.985 233.616C574.177 232.869 574.449 232.235 574.801 231.712C575.164 231.189 575.607 230.789 576.129 230.512C576.652 230.224 577.239 230.08 577.889 230.08C578.551 230.08 579.143 230.224 579.665 230.512C580.188 230.789 580.631 231.189 580.993 231.712C581.356 232.235 581.633 232.869 581.825 233.616C582.017 234.363 582.113 235.2 582.113 236.128C582.113 237.056 582.017 237.893 581.825 238.64C581.633 239.387 581.356 240.021 580.993 240.544C580.631 241.067 580.188 241.467 579.665 241.744C579.143 242.021 578.551 242.16 577.889 242.16C577.239 242.16 576.652 242.021 576.129 241.744C575.607 241.467 575.164 241.067 574.801 240.544C574.449 240.021 574.177 239.387 573.985 238.64C573.793 237.893 573.697 237.056 573.697 236.128ZM577.889 231.248C576.919 231.248 576.183 231.675 575.681 232.528C575.191 233.381 574.945 234.581 574.945 236.128C574.945 237.675 575.191 238.875 575.681 239.728C576.183 240.571 576.919 240.992 577.889 240.992C578.871 240.992 579.607 240.571 580.097 239.728C580.599 238.875 580.849 237.675 580.849 236.128C580.849 234.581 580.599 233.381 580.097 232.528C579.596 231.675 578.86 231.248 577.889 231.248ZM585.395 230.24L590.275 239.6V230.24H591.507V242H590.259L585.379 232.64V242H584.147V230.24H585.395ZM595.109 235.648H600.389V236.72H595.109V235.648ZM605.031 230.24V235.36H610.311V230.24H611.543V242H610.311V236.496H605.031V242H603.799V230.24H605.031ZM615.172 230.24V237.744C615.172 238.779 615.396 239.579 615.844 240.144C616.303 240.709 616.948 240.992 617.78 240.992C618.612 240.992 619.252 240.709 619.7 240.144C620.159 239.579 620.388 238.779 620.388 237.744V230.24H621.62V237.824C621.62 238.485 621.53 239.083 621.348 239.616C621.178 240.149 620.922 240.608 620.58 240.992C620.25 241.365 619.85 241.653 619.38 241.856C618.911 242.059 618.378 242.16 617.78 242.16C617.194 242.16 616.66 242.059 616.18 241.856C615.711 241.653 615.306 241.365 614.964 240.992C614.634 240.608 614.378 240.149 614.196 239.616C614.026 239.083 613.94 238.485 613.94 237.824V230.24H615.172ZM624.018 242V230.24H625.522L627.874 236.8L630.194 230.24H631.698V242H630.466V232.432L628.354 238.272H627.378L625.25 232.416V242H624.018ZM640.157 238.72H636.029L635.101 242H633.805L637.277 230.208H638.893L642.397 242H641.085L640.157 238.72ZM636.349 237.616H639.853L638.093 231.488L636.349 237.616ZM645.583 230.24L650.463 239.6V230.24H651.695V242H650.447L645.567 232.64V242H644.335V230.24H645.583Z" fill="white"/>
<path d="M607.646 301.354C607.842 301.549 608.158 301.549 608.354 301.354L611.536 298.172C611.731 297.976 611.731 297.66 611.536 297.464C611.34 297.269 611.024 297.269 610.828 297.464L608 300.293L605.172 297.464C604.976 297.269 604.66 297.269 604.464 297.464C604.269 297.66 604.269 297.976 604.464 298.172L607.646 301.354ZM607.5 263L607.5 301L608.5 301L608.5 263L607.5 263Z" fill="white"/>
<path d="M576.364 318.24L581.244 327.6V318.24H582.476V330H581.228L576.348 320.64V330H575.116V318.24H576.364ZM588.27 330.16C587.747 330.16 587.262 330.059 586.814 329.856C586.366 329.643 585.976 329.355 585.646 328.992C585.315 328.629 585.054 328.203 584.862 327.712C584.67 327.221 584.574 326.693 584.574 326.128C584.574 325.563 584.67 325.035 584.862 324.544C585.054 324.053 585.315 323.627 585.646 323.264C585.987 322.901 586.387 322.619 586.846 322.416C587.304 322.203 587.8 322.096 588.334 322.096C588.974 322.096 589.539 322.235 590.03 322.512C590.52 322.789 590.91 323.147 591.198 323.584V322.208H592.366V330H591.278V328.528C591.16 328.731 591.006 328.933 590.814 329.136C590.622 329.328 590.392 329.504 590.126 329.664C589.87 329.813 589.582 329.931 589.262 330.016C588.952 330.112 588.622 330.16 588.27 330.16ZM588.478 323.2C588.083 323.2 587.72 323.275 587.39 323.424C587.059 323.573 586.771 323.781 586.526 324.048C586.291 324.315 586.104 324.629 585.966 324.992C585.827 325.344 585.758 325.723 585.758 326.128C585.758 326.533 585.822 326.917 585.95 327.28C586.088 327.632 586.275 327.941 586.51 328.208C586.755 328.464 587.043 328.672 587.374 328.832C587.715 328.981 588.083 329.056 588.478 329.056C588.883 329.056 589.251 328.981 589.582 328.832C589.912 328.672 590.195 328.464 590.43 328.208C590.675 327.941 590.862 327.632 590.99 327.28C591.128 326.917 591.198 326.528 591.198 326.112V325.952C591.198 325.579 591.128 325.227 590.99 324.896C590.851 324.565 590.659 324.277 590.414 324.032C590.168 323.776 589.88 323.573 589.55 323.424C589.219 323.275 588.862 323.2 588.478 323.2ZM596.848 322.208L597.008 319.904H597.984V322.208H601.76V323.184H597.984V327.088C597.984 327.803 598.154 328.32 598.496 328.64C598.837 328.949 599.248 329.104 599.728 329.104C600.133 329.093 600.506 328.987 600.848 328.784C601.2 328.581 601.482 328.315 601.696 327.984L602.528 328.64C602.4 328.821 602.25 329.003 602.08 329.184C601.909 329.365 601.706 329.531 601.472 329.68C601.237 329.819 600.97 329.931 600.672 330.016C600.373 330.112 600.037 330.16 599.664 330.16C598.821 330.16 598.133 329.904 597.6 329.392C597.077 328.869 596.816 328.101 596.816 327.088V323.184H594.432V322.208H596.848ZM604.605 322.208H605.773V326.512C605.773 327.323 605.955 327.952 606.317 328.4C606.68 328.837 607.208 329.056 607.901 329.056C608.221 329.056 608.52 328.992 608.797 328.864C609.085 328.736 609.336 328.549 609.549 328.304C609.763 328.059 609.928 327.749 610.045 327.376C610.173 327.003 610.237 326.576 610.237 326.096V322.208H611.405V330H610.317V328.56C610.136 329.008 609.827 329.387 609.389 329.696C608.952 330.005 608.381 330.16 607.677 330.16C606.707 330.16 605.949 329.845 605.405 329.216C604.872 328.576 604.605 327.691 604.605 326.56V322.208ZM621.119 329.024V330H614.111V329.024H616.591V323.184H614.111V322.208H617.695V324.176C617.962 323.472 618.351 322.949 618.863 322.608C619.386 322.267 619.967 322.096 620.607 322.096C620.863 322.096 621.108 322.112 621.343 322.144C621.578 322.176 621.818 322.235 622.063 322.32L621.823 323.44C621.62 323.365 621.396 323.307 621.151 323.264C620.906 323.221 620.66 323.2 620.415 323.2C619.956 323.2 619.556 323.296 619.215 323.488C618.884 323.669 618.612 323.925 618.399 324.256C618.186 324.576 618.026 324.955 617.919 325.392C617.812 325.819 617.759 326.277 617.759 326.768V329.024H621.119ZM627.317 330.16C626.794 330.16 626.309 330.059 625.861 329.856C625.413 329.643 625.023 329.355 624.693 328.992C624.362 328.629 624.101 328.203 623.909 327.712C623.717 327.221 623.621 326.693 623.621 326.128C623.621 325.563 623.717 325.035 623.909 324.544C624.101 324.053 624.362 323.627 624.693 323.264C625.034 322.901 625.434 322.619 625.893 322.416C626.351 322.203 626.847 322.096 627.381 322.096C628.021 322.096 628.586 322.235 629.077 322.512C629.567 322.789 629.957 323.147 630.245 323.584V322.208H631.413V330H630.325V328.528C630.207 328.731 630.053 328.933 629.861 329.136C629.669 329.328 629.439 329.504 629.173 329.664C628.917 329.813 628.629 329.931 628.309 330.016C627.999 330.112 627.669 330.16 627.317 330.16ZM627.525 323.2C627.13 323.2 626.767 323.275 626.437 323.424C626.106 323.573 625.818 323.781 625.573 324.048C625.338 324.315 625.151 324.629 625.013 324.992C624.874 325.344 624.805 325.723 624.805 326.128C624.805 326.533 624.869 326.917 624.997 327.28C625.135 327.632 625.322 327.941 625.557 328.208C625.802 328.464 626.09 328.672 626.421 328.832C626.762 328.981 627.13 329.056 627.525 329.056C627.93 329.056 628.298 328.981 628.629 328.832C628.959 328.672 629.242 328.464 629.477 328.208C629.722 327.941 629.909 327.632 630.037 327.28C630.175 326.917 630.245 326.528 630.245 326.112V325.952C630.245 325.579 630.175 325.227 630.037 324.896C629.898 324.565 629.706 324.277 629.461 324.032C629.215 323.776 628.927 323.573 628.597 323.424C628.266 323.275 627.909 323.2 627.525 323.2ZM633.57 329.024H636.642V318.896H633.65V317.92H637.81V329.024H641.378V330H633.57V329.024Z" fill="white"/>
</svg>
