<svg width="765" height="475" viewBox="0 0 765 475" fill="none" xmlns="http://www.w3.org/2000/svg">
<circle cx="237.5" cy="237.5" r="237" stroke="black"/>
<circle cx="527.5" cy="237.5" r="237" stroke="black"/>
<path d="M382 425.226C326.023 381.778 290 313.846 290 237.5C290 160.7 326.453 92.4143 383 49.001" stroke="black" stroke-width="3"/>
<path d="M383 425.225C438.977 381.777 475 313.845 475 237.499C475 160.699 438.547 92.4133 382 49" stroke="black" stroke-width="3"/>
<path d="M356.003 220.24H359.075C359.961 220.24 360.729 220.4 361.379 220.72C362.03 221.029 362.569 221.456 362.995 222C363.422 222.533 363.737 223.157 363.939 223.872C364.153 224.587 364.259 225.339 364.259 226.128C364.259 226.917 364.158 227.669 363.955 228.384C363.763 229.088 363.459 229.712 363.043 230.256C362.627 230.789 362.094 231.216 361.443 231.536C360.793 231.845 360.019 232 359.123 232H356.003V220.24ZM362.147 226.128C362.147 225.584 362.089 225.072 361.971 224.592C361.854 224.112 361.673 223.691 361.427 223.328C361.182 222.965 360.862 222.677 360.467 222.464C360.083 222.251 359.625 222.144 359.091 222.144H358.067V230.096H359.139C359.673 230.096 360.126 229.989 360.499 229.776C360.883 229.563 361.193 229.28 361.427 228.928C361.673 228.565 361.854 228.144 361.971 227.664C362.089 227.184 362.147 226.672 362.147 226.128ZM373.493 220.24V222.112H368.197V225.008H372.725V226.832H368.197V230.128H373.669V232H366.149V220.24H373.493ZM381.121 223.456C381.015 223.072 380.791 222.725 380.449 222.416C380.119 222.107 379.681 221.952 379.137 221.952C378.839 221.952 378.588 221.995 378.385 222.08C378.183 222.165 378.017 222.277 377.889 222.416C377.761 222.555 377.665 222.704 377.601 222.864C377.548 223.024 377.521 223.179 377.521 223.328C377.521 223.627 377.607 223.893 377.777 224.128C377.959 224.352 378.289 224.539 378.769 224.688L380.481 225.216C381.388 225.493 382.081 225.931 382.561 226.528C383.052 227.125 383.297 227.84 383.297 228.672C383.297 229.131 383.201 229.573 383.009 230C382.828 230.416 382.567 230.784 382.225 231.104C381.884 231.424 381.473 231.68 380.993 231.872C380.513 232.064 379.98 232.16 379.393 232.16C378.871 232.16 378.375 232.085 377.905 231.936C377.436 231.776 377.02 231.557 376.657 231.28C376.295 231.003 375.985 230.672 375.729 230.288C375.484 229.893 375.313 229.461 375.217 228.992L377.217 228.464C377.303 228.987 377.537 229.419 377.921 229.76C378.316 230.101 378.801 230.272 379.377 230.272C379.687 230.272 379.959 230.229 380.193 230.144C380.428 230.048 380.62 229.925 380.769 229.776C380.929 229.616 381.047 229.445 381.121 229.264C381.196 229.072 381.233 228.88 381.233 228.688C381.233 228.304 381.111 227.973 380.865 227.696C380.62 227.408 380.225 227.179 379.681 227.008L378.177 226.56C377.303 226.293 376.625 225.893 376.145 225.36C375.665 224.816 375.425 224.128 375.425 223.296C375.425 222.859 375.511 222.448 375.681 222.064C375.863 221.669 376.113 221.328 376.433 221.04C376.753 220.741 377.137 220.507 377.585 220.336C378.044 220.165 378.556 220.08 379.121 220.08C379.623 220.08 380.097 220.155 380.545 220.304C380.993 220.453 381.393 220.656 381.745 220.912C382.097 221.168 382.391 221.472 382.625 221.824C382.86 222.165 383.015 222.533 383.089 222.928L381.121 223.456ZM392.303 230.16V232H385.007V230.16H387.631V222.08H385.071V220.24H392.239V222.08H389.679V230.16H392.303ZM397.773 225.36H402.317V229.824C402.157 230.155 401.943 230.464 401.677 230.752C401.41 231.04 401.106 231.291 400.765 231.504C400.423 231.707 400.045 231.867 399.629 231.984C399.223 232.101 398.797 232.16 398.349 232.16C397.645 232.16 397.005 232.027 396.429 231.76C395.853 231.493 395.357 231.104 394.941 230.592C394.535 230.08 394.221 229.451 393.997 228.704C393.773 227.957 393.661 227.104 393.661 226.144C393.661 225.227 393.773 224.395 393.997 223.648C394.221 222.901 394.535 222.267 394.941 221.744C395.357 221.211 395.847 220.8 396.413 220.512C396.989 220.224 397.623 220.08 398.317 220.08C399.181 220.08 399.959 220.309 400.653 220.768C401.346 221.216 401.863 221.851 402.205 222.672L400.349 223.488C399.922 222.539 399.245 222.064 398.317 222.064C397.527 222.064 396.903 222.427 396.445 223.152C395.986 223.877 395.757 224.875 395.757 226.144C395.757 227.403 395.981 228.395 396.429 229.12C396.877 229.845 397.517 230.208 398.349 230.208C398.818 230.208 399.223 230.112 399.565 229.92C399.917 229.728 400.194 229.483 400.397 229.184V227.184H397.773V225.36ZM404.299 232V220.24H406.283L409.995 227.92V220.24H412.059V232H410.075L406.347 224.336V232H404.299ZM329.772 250.16V252H322.476V250.16H325.1V242.08H322.54V240.24H329.708V242.08H327.148V250.16H329.772ZM332.018 252V240.24H334.002L337.714 247.92V240.24H339.778V252H337.794L334.066 244.336V252H332.018ZM350.132 240.24V242.144H346.868V252H344.772V242.144H341.508V240.24H350.132ZM359.165 240.24V242.112H353.869V245.008H358.397V246.832H353.869V250.128H359.341V252H351.821V240.24H359.165ZM361.61 240.24H363.69V250.096H368.922V252H361.61V240.24ZM370.892 240.24H372.972V250.096H378.204V252H370.892V240.24ZM386.756 250.16V252H379.46V250.16H382.084V242.08H379.524V240.24H386.692V242.08H384.132V250.16H386.756ZM392.226 245.36H396.77V249.824C396.61 250.155 396.397 250.464 396.13 250.752C395.863 251.04 395.559 251.291 395.218 251.504C394.877 251.707 394.498 251.867 394.082 251.984C393.677 252.101 393.25 252.16 392.802 252.16C392.098 252.16 391.458 252.027 390.882 251.76C390.306 251.493 389.81 251.104 389.394 250.592C388.989 250.08 388.674 249.451 388.45 248.704C388.226 247.957 388.114 247.104 388.114 246.144C388.114 245.227 388.226 244.395 388.45 243.648C388.674 242.901 388.989 242.267 389.394 241.744C389.81 241.211 390.301 240.8 390.866 240.512C391.442 240.224 392.077 240.08 392.77 240.08C393.634 240.08 394.413 240.309 395.106 240.768C395.799 241.216 396.317 241.851 396.658 242.672L394.802 243.488C394.375 242.539 393.698 242.064 392.77 242.064C391.981 242.064 391.357 242.427 390.898 243.152C390.439 243.877 390.21 244.875 390.21 246.144C390.21 247.403 390.434 248.395 390.882 249.12C391.33 249.845 391.97 250.208 392.802 250.208C393.271 250.208 393.677 250.112 394.018 249.92C394.37 249.728 394.647 249.483 394.85 249.184V247.184H392.226V245.36ZM406.368 240.24V242.112H401.072V245.008H405.6V246.832H401.072V250.128H406.544V252H399.024V240.24H406.368ZM408.674 252V240.24H410.658L414.37 247.92V240.24H416.434V252H414.45L410.722 244.336V252H408.674ZM424.708 244.224C424.644 243.925 424.553 243.643 424.436 243.376C424.329 243.109 424.196 242.88 424.036 242.688C423.876 242.485 423.678 242.325 423.444 242.208C423.22 242.091 422.953 242.032 422.644 242.032C421.908 242.032 421.337 242.373 420.932 243.056C420.526 243.739 420.324 244.768 420.324 246.144C420.324 247.509 420.537 248.528 420.964 249.2C421.39 249.861 421.956 250.192 422.66 250.192C423.246 250.192 423.716 250.016 424.068 249.664C424.42 249.301 424.676 248.837 424.836 248.272L426.788 248.88C426.649 249.275 426.462 249.669 426.228 250.064C426.004 250.448 425.721 250.8 425.38 251.12C425.049 251.429 424.654 251.68 424.196 251.872C423.748 252.064 423.225 252.16 422.628 252.16C421.934 252.16 421.31 252.016 420.756 251.728C420.212 251.44 419.748 251.035 419.364 250.512C418.99 249.979 418.702 249.344 418.5 248.608C418.308 247.861 418.212 247.04 418.212 246.144C418.212 245.205 418.313 244.363 418.516 243.616C418.718 242.859 419.006 242.219 419.38 241.696C419.764 241.173 420.228 240.773 420.772 240.496C421.326 240.219 421.95 240.08 422.644 240.08C423.71 240.08 424.59 240.416 425.284 241.088C425.977 241.749 426.446 242.656 426.692 243.808L424.708 244.224ZM436.134 240.24V242.112H430.838V245.008H435.366V246.832H430.838V250.128H436.31V252H428.79V240.24H436.134ZM443.762 243.456C443.655 243.072 443.431 242.725 443.09 242.416C442.759 242.107 442.322 241.952 441.778 241.952C441.479 241.952 441.229 241.995 441.026 242.08C440.823 242.165 440.658 242.277 440.53 242.416C440.402 242.555 440.306 242.704 440.242 242.864C440.189 243.024 440.162 243.179 440.162 243.328C440.162 243.627 440.247 243.893 440.418 244.128C440.599 244.352 440.93 244.539 441.41 244.688L443.122 245.216C444.029 245.493 444.722 245.931 445.202 246.528C445.693 247.125 445.938 247.84 445.938 248.672C445.938 249.131 445.842 249.573 445.65 250C445.469 250.416 445.207 250.784 444.866 251.104C444.525 251.424 444.114 251.68 443.634 251.872C443.154 252.064 442.621 252.16 442.034 252.16C441.511 252.16 441.015 252.085 440.546 251.936C440.077 251.776 439.661 251.557 439.298 251.28C438.935 251.003 438.626 250.672 438.37 250.288C438.125 249.893 437.954 249.461 437.858 248.992L439.858 248.464C439.943 248.987 440.178 249.419 440.562 249.76C440.957 250.101 441.442 250.272 442.018 250.272C442.327 250.272 442.599 250.229 442.834 250.144C443.069 250.048 443.261 249.925 443.41 249.776C443.57 249.616 443.687 249.445 443.762 249.264C443.837 249.072 443.874 248.88 443.874 248.688C443.874 248.304 443.751 247.973 443.506 247.696C443.261 247.408 442.866 247.179 442.322 247.008L440.818 246.56C439.943 246.293 439.266 245.893 438.786 245.36C438.306 244.816 438.066 244.128 438.066 243.296C438.066 242.859 438.151 242.448 438.322 242.064C438.503 241.669 438.754 241.328 439.074 241.04C439.394 240.741 439.778 240.507 440.226 240.336C440.685 240.165 441.197 240.08 441.762 240.08C442.263 240.08 442.738 240.155 443.186 240.304C443.634 240.453 444.034 240.656 444.386 240.912C444.738 241.168 445.031 241.472 445.266 241.824C445.501 242.165 445.655 242.533 445.73 242.928L443.762 243.456Z" fill="black"/>
<path d="M157.702 232.952H158.95V237.384H163.926V232.952H165.158V243H163.926V238.456H158.95V243H157.702V232.952ZM168.181 232.952H169.429V239.368C169.429 240.312 169.666 240.995 170.141 241.416C170.616 241.832 171.237 242.04 172.005 242.04C172.768 242.04 173.384 241.832 173.853 241.416C174.328 240.995 174.565 240.312 174.565 239.368V232.952H175.813V239.368C175.813 240.211 175.656 240.917 175.341 241.488C175.032 242.053 174.592 242.48 174.021 242.768C173.45 243.051 172.778 243.192 172.005 243.192C171.232 243.192 170.557 243.051 169.981 242.768C169.41 242.48 168.968 242.053 168.653 241.488C168.338 240.917 168.181 240.211 168.181 239.368V232.952ZM178.858 232.952H180.65L184.106 239.896H183.978L187.434 232.952H189.178V243H187.914V234.248H188.138L184.458 241.736H183.626L179.962 234.296H180.106V243H178.858V232.952ZM191.205 243L194.661 232.952H196.181L199.557 243H198.245L197.397 240.424H193.397L192.517 243H191.205ZM193.717 239.448H197.077L195.397 234.472L193.717 239.448ZM201.577 232.952H203.065L208.169 241.224H208.057V232.952H209.305V243H207.913L202.633 234.456H202.825V243H201.577V232.952Z" fill="black"/>
<path d="M577.26 155L580.716 144.952H582.236L585.612 155H584.3L583.452 152.424H579.452L578.572 155H577.26ZM579.772 151.448H583.132L581.452 146.472L579.772 151.448ZM587.647 155V147.336H588.895V155H587.647ZM588.511 151.544C588.511 150.573 588.605 149.768 588.791 149.128C588.978 148.483 589.25 148.003 589.607 147.688C589.97 147.368 590.41 147.208 590.927 147.208C591.098 147.208 591.253 147.221 591.391 147.248C591.535 147.269 591.679 147.304 591.823 147.352L591.743 148.584C591.594 148.536 591.431 148.496 591.255 148.464C591.079 148.427 590.922 148.408 590.783 148.408C590.33 148.408 589.965 148.539 589.687 148.8C589.41 149.056 589.207 149.419 589.079 149.888C588.957 150.357 588.895 150.909 588.895 151.544H588.511ZM595.781 155.192C595.365 155.192 594.991 155.112 594.661 154.952C594.33 154.792 594.069 154.552 593.877 154.232C593.685 153.912 593.589 153.512 593.589 153.032V145.224H594.821V153C594.821 153.789 595.189 154.184 595.924 154.184C596.143 154.184 596.354 154.16 596.557 154.112C596.765 154.064 596.997 153.992 597.253 153.896L597.429 154.792C597.157 154.909 596.885 155.005 596.613 155.08C596.346 155.155 596.069 155.192 595.781 155.192ZM592.357 148.216V147.352H597.237V148.216H592.357ZM600.148 145.544C599.892 145.544 599.689 145.472 599.54 145.328C599.391 145.179 599.316 144.984 599.316 144.744C599.316 144.509 599.391 144.323 599.54 144.184C599.689 144.045 599.892 143.976 600.148 143.976C600.404 143.976 600.607 144.045 600.756 144.184C600.905 144.323 600.98 144.509 600.98 144.744C600.98 144.984 600.905 145.179 600.756 145.328C600.607 145.472 600.404 145.544 600.148 145.544ZM599.524 155V147.336H600.772V155H599.524ZM604.626 155V146.168C604.626 145.661 604.722 145.248 604.914 144.928C605.111 144.603 605.372 144.363 605.698 144.208C606.028 144.053 606.396 143.976 606.802 143.976C607.02 143.976 607.242 143.992 607.466 144.024C607.695 144.056 607.922 144.104 608.146 144.168L607.906 145.16C607.746 145.096 607.586 145.048 607.426 145.016C607.271 144.984 607.122 144.968 606.978 144.968C606.807 144.968 606.636 145 606.466 145.064C606.295 145.128 606.154 145.248 606.042 145.424C605.93 145.6 605.874 145.853 605.874 146.184V155H604.626ZM603.378 148.216V147.352H607.458V148.216H603.378ZM610.394 145.544C610.138 145.544 609.935 145.472 609.786 145.328C609.636 145.179 609.562 144.984 609.562 144.744C609.562 144.509 609.636 144.323 609.786 144.184C609.935 144.045 610.138 143.976 610.394 143.976C610.65 143.976 610.852 144.045 611.002 144.184C611.151 144.323 611.226 144.509 611.226 144.744C611.226 144.984 611.151 145.179 611.002 145.328C610.852 145.472 610.65 145.544 610.394 145.544ZM609.77 155V147.336H611.018V155H609.77ZM617.148 155.192C616.534 155.192 615.961 155.027 615.428 154.696C614.9 154.365 614.473 153.899 614.148 153.296C613.822 152.693 613.66 151.981 613.66 151.16C613.66 150.317 613.822 149.597 614.148 149C614.473 148.403 614.9 147.947 615.428 147.632C615.961 147.317 616.534 147.16 617.148 147.16C617.58 147.16 617.966 147.227 618.308 147.36C618.654 147.488 618.956 147.667 619.212 147.896C619.468 148.125 619.678 148.387 619.844 148.68C620.014 148.968 620.14 149.272 620.22 149.592L618.94 149.704C618.806 149.261 618.582 148.912 618.268 148.656C617.958 148.395 617.58 148.264 617.132 148.264C616.753 148.264 616.396 148.373 616.06 148.592C615.729 148.805 615.46 149.128 615.252 149.56C615.044 149.987 614.94 150.52 614.94 151.16C614.94 151.752 615.033 152.267 615.22 152.704C615.412 153.136 615.673 153.472 616.004 153.712C616.334 153.952 616.71 154.072 617.132 154.072C617.724 154.072 618.172 153.928 618.476 153.64C618.785 153.347 618.94 152.941 618.94 152.424H620.22C620.22 152.957 620.094 153.432 619.844 153.848C619.593 154.264 619.236 154.592 618.772 154.832C618.313 155.072 617.772 155.192 617.148 155.192ZM623.414 145.544C623.158 145.544 622.955 145.472 622.806 145.328C622.656 145.179 622.582 144.984 622.582 144.744C622.582 144.509 622.656 144.323 622.806 144.184C622.955 144.045 623.158 143.976 623.414 143.976C623.67 143.976 623.872 144.045 624.022 144.184C624.171 144.323 624.246 144.509 624.246 144.744C624.246 144.984 624.171 145.179 624.022 145.328C623.872 145.472 623.67 145.544 623.414 145.544ZM622.79 155V147.336H624.038V155H622.79ZM632.211 155L632.051 153.32V150.04C632.051 149.352 631.905 148.859 631.611 148.56C631.318 148.256 630.878 148.104 630.291 148.104C629.961 148.104 629.659 148.152 629.387 148.248C629.121 148.344 628.907 148.493 628.747 148.696C628.593 148.893 628.515 149.149 628.515 149.464H627.123C627.123 148.909 627.259 148.464 627.531 148.128C627.803 147.787 628.177 147.541 628.651 147.392C629.131 147.237 629.678 147.16 630.291 147.16C630.878 147.16 631.398 147.259 631.851 147.456C632.305 147.653 632.659 147.968 632.915 148.4C633.171 148.827 633.299 149.384 633.299 150.072V155H632.211ZM629.603 155.192C628.974 155.192 628.454 155.08 628.043 154.856C627.633 154.632 627.326 154.341 627.123 153.984C626.921 153.627 626.819 153.251 626.819 152.856C626.819 152.339 626.947 151.917 627.203 151.592C627.465 151.267 627.819 151.029 628.267 150.88C628.715 150.725 629.219 150.648 629.779 150.648C630.179 150.648 630.579 150.688 630.979 150.768C631.385 150.848 631.779 150.957 632.163 151.096V151.88C631.843 151.752 631.481 151.651 631.075 151.576C630.675 151.501 630.307 151.464 629.971 151.464C629.459 151.464 629.027 151.571 628.675 151.784C628.323 151.992 628.147 152.349 628.147 152.856C628.147 153.229 628.281 153.549 628.547 153.816C628.819 154.083 629.251 154.216 629.843 154.216C630.259 154.216 630.633 154.12 630.963 153.928C631.299 153.731 631.563 153.485 631.755 153.192C631.953 152.899 632.051 152.605 632.051 152.312H632.355C632.355 152.824 632.243 153.299 632.019 153.736C631.801 154.173 631.486 154.525 631.075 154.792C630.665 155.059 630.174 155.192 629.603 155.192ZM636.288 155V144.088H637.536V155H636.288Z" fill="black"/>
<path d="M608.354 173.646C608.158 173.451 607.842 173.451 607.646 173.646L604.464 176.828C604.269 177.024 604.269 177.34 604.464 177.536C604.66 177.731 604.976 177.731 605.172 177.536L608 174.707L610.828 177.536C611.024 177.731 611.34 177.731 611.536 177.536C611.731 177.34 611.731 177.024 611.536 176.828L608.354 173.646ZM608.5 212L608.5 174L607.5 174L607.5 212L608.5 212Z" fill="black"/>
<path d="M566.084 231.952H567.572L572.676 240.224H572.564V231.952H573.812V242H572.42L567.14 233.456H567.332V242H566.084V231.952ZM580.59 242.192C579.758 242.192 579.014 242 578.358 241.616C577.702 241.232 577.185 240.656 576.806 239.888C576.427 239.115 576.238 238.149 576.238 236.992C576.238 235.819 576.427 234.848 576.806 234.08C577.185 233.307 577.702 232.731 578.358 232.352C579.014 231.968 579.758 231.776 580.59 231.776C581.422 231.776 582.166 231.968 582.822 232.352C583.478 232.736 583.995 233.315 584.374 234.088C584.753 234.861 584.942 235.829 584.942 236.992C584.942 238.16 584.753 239.131 584.374 239.904C583.995 240.672 583.478 241.245 582.822 241.624C582.166 242.003 581.422 242.192 580.59 242.192ZM580.59 241.04C581.534 241.04 582.278 240.696 582.822 240.008C583.371 239.32 583.646 238.309 583.646 236.976C583.646 235.669 583.371 234.664 582.822 233.96C582.278 233.251 581.534 232.896 580.59 232.896C579.657 232.896 578.913 233.251 578.358 233.96C577.809 234.669 577.534 235.68 577.534 236.992C577.534 238.32 577.809 239.328 578.358 240.016C578.913 240.699 579.657 241.04 580.59 241.04ZM587.35 231.952H588.838L593.942 240.224H593.83V231.952H595.078V242H593.686L588.406 233.456H588.598V242H587.35V231.952ZM598.304 231.952H599.552V236.384H604.528V231.952H605.76V242H604.528V237.456H599.552V242H598.304V231.952ZM608.783 231.952H610.031V238.368C610.031 239.312 610.268 239.995 610.743 240.416C611.217 240.832 611.839 241.04 612.607 241.04C613.369 241.04 613.985 240.832 614.455 240.416C614.929 239.995 615.167 239.312 615.167 238.368V231.952H616.415V238.368C616.415 239.211 616.257 239.917 615.943 240.488C615.633 241.053 615.193 241.48 614.623 241.768C614.052 242.051 613.38 242.192 612.607 242.192C611.833 242.192 611.159 242.051 610.583 241.768C610.012 241.48 609.569 241.053 609.255 240.488C608.94 239.917 608.783 239.211 608.783 238.368V231.952ZM619.46 231.952H621.252L624.708 238.896H624.58L628.036 231.952H629.78V242H628.516V233.248H628.74L625.06 240.736H624.228L620.564 233.296H620.708V242H619.46V231.952ZM631.807 242L635.263 231.952H636.783L640.159 242H638.847L637.999 239.424H633.999L633.119 242H631.807ZM634.319 238.448H637.679L635.999 233.472L634.319 238.448ZM642.178 231.952H643.666L648.77 240.224H648.658V231.952H649.906V242H648.514L643.234 233.456H643.426V242H642.178V231.952Z" fill="black"/>
<path d="M607.646 299.354C607.842 299.549 608.158 299.549 608.354 299.354L611.536 296.172C611.731 295.976 611.731 295.66 611.536 295.464C611.34 295.269 611.024 295.269 610.828 295.464L608 298.293L605.172 295.464C604.976 295.269 604.66 295.269 604.464 295.464C604.269 295.66 604.269 295.976 604.464 296.172L607.646 299.354ZM607.5 261L607.5 299L608.5 299L608.5 261L607.5 261Z" fill="black"/>
<path d="M582.334 318.952H583.822L588.926 327.224H588.814V318.952H590.062V329H588.67L583.39 320.456H583.582V329H582.334V318.952ZM598.024 329L597.864 327.32V324.04C597.864 323.352 597.717 322.859 597.424 322.56C597.131 322.256 596.691 322.104 596.104 322.104C595.773 322.104 595.472 322.152 595.2 322.248C594.933 322.344 594.72 322.493 594.56 322.696C594.405 322.893 594.328 323.149 594.328 323.464H592.936C592.936 322.909 593.072 322.464 593.344 322.128C593.616 321.787 593.989 321.541 594.464 321.392C594.944 321.237 595.491 321.16 596.104 321.16C596.691 321.16 597.211 321.259 597.664 321.456C598.117 321.653 598.472 321.968 598.728 322.4C598.984 322.827 599.112 323.384 599.112 324.072V329H598.024ZM595.416 329.192C594.787 329.192 594.267 329.08 593.856 328.856C593.445 328.632 593.139 328.341 592.936 327.984C592.733 327.627 592.632 327.251 592.632 326.856C592.632 326.339 592.76 325.917 593.016 325.592C593.277 325.267 593.632 325.029 594.08 324.88C594.528 324.725 595.032 324.648 595.592 324.648C595.992 324.648 596.392 324.688 596.792 324.768C597.197 324.848 597.592 324.957 597.976 325.096V325.88C597.656 325.752 597.293 325.651 596.888 325.576C596.488 325.501 596.12 325.464 595.784 325.464C595.272 325.464 594.84 325.571 594.488 325.784C594.136 325.992 593.96 326.349 593.96 326.856C593.96 327.229 594.093 327.549 594.36 327.816C594.632 328.083 595.064 328.216 595.656 328.216C596.072 328.216 596.445 328.12 596.776 327.928C597.112 327.731 597.376 327.485 597.568 327.192C597.765 326.899 597.864 326.605 597.864 326.312H598.168C598.168 326.824 598.056 327.299 597.832 327.736C597.613 328.173 597.299 328.525 596.888 328.792C596.477 329.059 595.987 329.192 595.416 329.192ZM604.452 329.192C604.036 329.192 603.663 329.112 603.332 328.952C603.002 328.792 602.74 328.552 602.548 328.232C602.356 327.912 602.26 327.512 602.26 327.032V319.224H603.492V327C603.492 327.789 603.86 328.184 604.596 328.184C604.815 328.184 605.026 328.16 605.228 328.112C605.436 328.064 605.668 327.992 605.924 327.896L606.1 328.792C605.828 328.909 605.556 329.005 605.284 329.08C605.018 329.155 604.74 329.192 604.452 329.192ZM601.028 322.216V321.352H605.908V322.216H601.028ZM613.316 321.336H614.564V329H613.316V321.336ZM607.892 321.336H609.14V326.104C609.14 326.744 609.295 327.229 609.604 327.56C609.919 327.891 610.367 328.056 610.948 328.056C611.428 328.056 611.844 327.928 612.196 327.672C612.553 327.416 612.828 327.064 613.02 326.616C613.217 326.163 613.316 325.645 613.316 325.064H613.78C613.78 325.923 613.655 326.656 613.404 327.264C613.159 327.872 612.809 328.339 612.356 328.664C611.908 328.984 611.38 329.144 610.772 329.144C610.196 329.144 609.692 329.037 609.26 328.824C608.828 328.611 608.492 328.288 608.252 327.856C608.012 327.419 607.892 326.867 607.892 326.2V321.336ZM617.804 329V321.336H619.052V329H617.804ZM618.668 325.544C618.668 324.573 618.761 323.768 618.948 323.128C619.134 322.483 619.406 322.003 619.764 321.688C620.126 321.368 620.566 321.208 621.084 321.208C621.254 321.208 621.409 321.221 621.548 321.248C621.692 321.269 621.836 321.304 621.98 321.352L621.9 322.584C621.75 322.536 621.588 322.496 621.412 322.464C621.236 322.427 621.078 322.408 620.94 322.408C620.486 322.408 620.121 322.539 619.844 322.8C619.566 323.056 619.364 323.419 619.236 323.888C619.113 324.357 619.052 324.909 619.052 325.544H618.668ZM628.321 329L628.161 327.32V324.04C628.161 323.352 628.014 322.859 627.721 322.56C627.427 322.256 626.987 322.104 626.401 322.104C626.07 322.104 625.769 322.152 625.497 322.248C625.23 322.344 625.017 322.493 624.857 322.696C624.702 322.893 624.625 323.149 624.625 323.464H623.233C623.233 322.909 623.369 322.464 623.641 322.128C623.913 321.787 624.286 321.541 624.761 321.392C625.241 321.237 625.787 321.16 626.401 321.16C626.987 321.16 627.507 321.259 627.961 321.456C628.414 321.653 628.769 321.968 629.025 322.4C629.281 322.827 629.409 323.384 629.409 324.072V329H628.321ZM625.713 329.192C625.083 329.192 624.563 329.08 624.153 328.856C623.742 328.632 623.435 328.341 623.233 327.984C623.03 327.627 622.929 327.251 622.929 326.856C622.929 326.339 623.057 325.917 623.313 325.592C623.574 325.267 623.929 325.029 624.377 324.88C624.825 324.725 625.329 324.648 625.889 324.648C626.289 324.648 626.689 324.688 627.089 324.768C627.494 324.848 627.889 324.957 628.273 325.096V325.88C627.953 325.752 627.59 325.651 627.185 325.576C626.785 325.501 626.417 325.464 626.081 325.464C625.569 325.464 625.137 325.571 624.785 325.784C624.433 325.992 624.257 326.349 624.257 326.856C624.257 327.229 624.39 327.549 624.657 327.816C624.929 328.083 625.361 328.216 625.953 328.216C626.369 328.216 626.742 328.12 627.073 327.928C627.409 327.731 627.673 327.485 627.865 327.192C628.062 326.899 628.161 326.605 628.161 326.312H628.465C628.465 326.824 628.353 327.299 628.129 327.736C627.91 328.173 627.595 328.525 627.185 328.792C626.774 329.059 626.283 329.192 625.713 329.192ZM632.397 329V318.088H633.645V329H632.397Z" fill="black"/>
</svg>
